<svg xmlns="http://www.w3.org/2000/svg" viewBox="0 0 137.07 143.45"><defs><style>.cls-1{fill:#fff;}.cls-2{fill:none;stroke:#010101;stroke-linecap:round;stroke-miterlimit:10;stroke-width:0.25px;}</style></defs><g id="Layer_2" data-name="Layer 2"><g id="Livello_1" data-name="Livello 1"><path class="cls-1" d="M47.68,95.71s-8.88-18-17.83-13.12l0,0C37.76,73.2,50.47,56.42,47.8,48v0l.1.09,2.27,3.48c3.45,8.38,1.24,25.06-.65,35.37C48.56,92.12,47.68,95.71,47.68,95.71Z"/><path class="cls-1" d="M23.86,89.3s.93-17.72-7.93-20.37c12.2-4,31.7-11.79,31.87-21,2.67,8.44-10,25.22-18,34.59C26.39,86.63,23.86,89.3,23.86,89.3Z"/><path class="cls-1" d="M6.66,71.68a.12.12,0,0,1-.14-.19c1.42-2.15,12.23-18.51,3-21.82,12.35,2.08,32.83,4.4,38.23-1.79l0,0a.19.19,0,0,0,0,.07c-.17,9.16-19.67,17-31.87,21C11.3,70.44,7.73,71.4,6.66,71.68Z"/><path class="cls-1" d="M50.17,51.5,47.9,48A9.65,9.65,0,0,1,50.17,51.5Z"/><path class="cls-1" d="M47.75,47.88c-5.4,6.19-25.88,3.87-38.23,1.79-4.76-.8-8.31-1.56-9.32-1.78a.1.1,0,0,1,0-.18c2.07-.89,4-17,13.78-17.24,9.68,8,26,20,33.75,17.38Z"/><path class="cls-1" d="M47.8,48a.19.19,0,0,1,0-.07l0,0Z"/><path class="cls-1" d="M47.8,47.93l0,0,0,0,0,0,0,0Z"/><path class="cls-1" d="M47.78,47.91l0,0h0Z"/><path class="cls-1" d="M47.75,47.88l0,0h0v0Z"/><path class="cls-1" d="M14,30.47c-3.82-3.13-6.6-5.64-7.4-6.37A.08.08,0,0,1,6.64,24c2.23.54,15.91-3.83,21.66-5.11,4.57,11.63,12,27.4,19.34,28.94l0,0,0,0C40,50.48,23.64,38.44,14,30.47Z"/><path class="cls-1" d="M47.8,47.87l0,0,0,0Z"/><path class="cls-1" d="M47.76,47.87v0h0Z"/><path class="cls-1" d="M47.75,47.84h0l0,0,0,0,.1,0Z"/><path class="cls-1" d="M47.8,47.82l0,0h0Z"/><path class="cls-1" d="M47.78,47.83h0v0h0Z"/><path class="cls-1" d="M47.8,47.82h0Z"/><path class="cls-1" d="M47.8,47.82h0l-.05-.08h.08Z"/><path class="cls-1" d="M47.8,47.82v-.08h.07Z"/><path class="cls-1" d="M47.77,47.82h0l0-.07Z"/><path class="cls-1" d="M47.74,47.81l-.1,0c-6.18-5.33-3.91-25.64-1.85-38h0c.83-5,1.63-8.65,1.84-9.6,0-.06.1-.06.12,0C48.28,2,65.47,11.36,64,15.41c-8,9.81-18.84,25-16.23,32.33Z"/><path class="cls-1" d="M47.87,47.74H47.8c.09-8.89,23-17.87,34.64-21.87,3.49-1.19,6-1.94,6.57-2.11,0,0,5.71,14.29-7.24,21.37h0C69.55,43.23,53,41.94,47.87,47.74Z"/><path class="cls-1" d="M64,15.41c3.86-4.76,7-8.24,7.68-8.93a0,0,0,0,1,.08,0c-.36,1.69,5.82,16,10.71,19.27l0,.08c-11.68,4-34.55,13-34.64,21.87h-.08C45.11,40.44,56,25.22,64,15.41Z"/><path class="cls-1" d="M45.79,9.77c-2.06,12.38-4.33,32.69,1.85,38C40.32,46.25,32.87,30.48,28.3,18.85c-2.42-6.18-4-11.18-4.37-12.28,0-.08.05-.14.13-.1,1.53.9,11.78,6.39,21.71,3.29Z"/><path class="cls-2" d="M81.14,65.74c8.36-16.61,13.24-17.5,14.47-17.89,0,0,0,0,0-.05-.74-.18-6.5-1.53-13.84-2.67-12.22-1.9-28.82-3.19-33.9,2.61l-.07.08,0,0,0,0h0c-5.4,6.19-25.88,3.87-38.23,1.79-4.76-.8-8.31-1.56-9.32-1.78a.1.1,0,0,1,0-.18c2.07-.89,4-17,13.78-17.24h0"/><path class="cls-2" d="M81.77,45.13C94.72,38.05,89,23.75,89,23.76c-.59.17-3.08.92-6.57,2.11-11.68,4-34.55,13-34.64,21.87V48c-.17,9.16-19.67,17-31.87,21-4.63,1.51-8.2,2.47-9.27,2.75a.12.12,0,0,1-.14-.19c1.42-2.15,12.23-18.51,3-21.82"/><path class="cls-2" d="M77.92,63.54c2,1.34,3.22,2.2,3.22,2.2"/><path class="cls-2" d="M52.82,49.05c7.67,3,19.35,10.61,25,14.43"/><path class="cls-2" d="M68.06,78.87,50.17,51.5,47.9,48l-.1-.15,0,0h0l-.05-.08h.15A16.08,16.08,0,0,1,52.79,49"/><path class="cls-2" d="M68.06,78.87a5.76,5.76,0,0,0,.43.67Z"/><path class="cls-2" d="M28.3,18.85C22.55,20.13,8.87,24.5,6.64,24a.08.08,0,0,0-.08.14c.8.73,3.58,3.24,7.4,6.37,9.68,8,26,20,33.75,17.38h.09a18.94,18.94,0,0,1,5,1.21l0,0c7.25,2.65,17.29,9.07,25,14.43l0,0,.06,0c5.42,3.76,9.68,7,11,8a.18.18,0,0,1-.11.32c-3.59,0-24.47.31-20.73,7"/><path class="cls-2" d="M47.8,47.82h-.06l-.1,0C40.32,46.25,32.87,30.48,28.3,18.85c-2.42-6.18-4-11.18-4.37-12.28,0-.08.05-.14.13-.1,1.53.9,11.78,6.39,21.71,3.29"/><path class="cls-2" d="M49.52,86.87C59,82.09,71.75,89.3,71.75,89.3"/><path class="cls-2" d="M29.85,82.59c8.95-4.84,17.83,13.12,17.83,13.12s.88-3.59,1.84-8.84c1.89-10.31,4.1-27,.65-35.37A9.65,9.65,0,0,0,47.9,48l-.1-.09,0,0,0,0,0,0,0,0,0,0c-6.18-5.33-3.91-25.64-1.85-38h0c.83-5,1.63-8.65,1.84-9.6,0-.06.1-.06.12,0C48.28,2,65.47,11.36,64,15.41l0,.09"/><path class="cls-2" d="M82.42,25.79C77.53,22.53,71.35,8.21,71.71,6.52a0,0,0,0,0-.08,0c-.64.69-3.82,4.17-7.68,8.93-8,9.81-18.84,25-16.23,32.33l0,.07v.06l0,0a.19.19,0,0,0,0,.07c2.67,8.44-10,25.22-18,34.59-3.44,4.06-6,6.73-6,6.73s.93-17.72-7.93-20.37"/><path class="cls-1" d="M91.54,110.65c-.75,4.7-1.49,8.16-1.71,9.09,0,.13-.91-.33-1-.39-2.07-1.09-17.37-9.27-17.61-13,8-9.34,20.69-26.06,18-34.5l0,0h0C95.66,77.82,93.52,98.42,91.54,110.65Z"/><path class="cls-1" d="M113,112.88a0,0,0,0,1-.05,0c-1.36-2-19.06-7.85-21.45-2.25,2-12.23,4.12-32.83-2.25-38.83a2.78,2.78,0,0,1,.38-.12C98,73.89,105.76,92,109.93,103.55,111.68,108.38,112.8,112.05,113,112.88Z"/><path class="cls-1" d="M110,103.54h0C105.76,92,98,73.89,89.67,71.7c7.8-2.26,22.43,8.22,32,16.06,5.37,4.42,9.13,8,9.13,8S112,92.89,110,103.54Z"/><path class="cls-1" d="M47.87,95.47a.09.09,0,0,1-.11-.13c.57-1.3,3.85-9.41,3.11-21.91,11.38,1.91,29.68,4,36.7-.49C78.92,79.69,50.75,94.73,47.87,95.47Z"/><path class="cls-1" d="M121.69,87.68l-.07.08C112.1,79.92,97.47,69.44,89.67,71.7a4.87,4.87,0,0,0-.52-.12c5-5.9,21.69-4.61,34-2.7h0c6.92,1.08,12.43,2.35,13.66,2.64a.21.21,0,0,1,.15.3C135.9,73.92,128.3,89,121.69,87.68Z"/><path class="cls-1" d="M87.57,72.94c-7,4.53-25.32,2.4-36.7.49-4.91-.83-8.54-1.61-9.41-1.81a.1.1,0,0,1-.05-.18c1.36-1.21,11.3-10.23,13.88-17.17C64.76,62.11,80.77,74,88.7,72,88.38,72.29,88,72.6,87.57,72.94Z"/><path class="cls-1" d="M87.57,72.94c.42-.34.81-.65,1.13-.94l.08,0A7.3,7.3,0,0,1,87.57,72.94Z"/><path class="cls-1" d="M55.29,54.27c-4-3.35-6.89-6-7.4-6.44,0,0,0-.09,0-.14,2.24-2.73,18.43-11.5,21.66-5.32C74.12,54,81.62,70,89,71.55l0,0,.06,0L88.7,72C80.77,74,64.76,62.11,55.29,54.27Z"/><path class="cls-1" d="M88.78,72l-.08,0,.39-.37h0Z"/><path class="cls-1" d="M89.24,71.84l-.46.14.32-.34h0l.1.09A.49.49,0,0,0,89.24,71.84Z"/><path class="cls-1" d="M89.27,71.82l0,0a.49.49,0,0,1,0-.11l.09.09Z"/><path class="cls-1" d="M89.29,71.82l-.09-.09a.88.88,0,0,0,0-.15,4.87,4.87,0,0,1,.52.12A2.78,2.78,0,0,0,89.29,71.82Z"/><path class="cls-1" d="M89.15,71.58a.88.88,0,0,1,0,.15l-.1-.09Z"/><path class="cls-1" d="M89.1,71.64h0l.06,0Z"/><path class="cls-1" d="M89.15,71.58l-.06,0-.06,0,0,0Z"/><path class="cls-1" d="M89.15,71.58c-.06-9,23.48-18,35.11-21.93,2.92-1,5.08-1.64,6-1.9a.11.11,0,0,1,.1.18C128.1,50,115.39,62.5,123.12,68.88,110.84,67,94.15,65.68,89.15,71.58Z"/><path class="cls-1" d="M124.26,49.65c-11.63,3.9-35.17,12.92-35.11,21.93-2.61-7.29,8.17-22.49,16.11-32.33,3.8-4.71,7-8.19,7.68-9,0-.05.12,0,.11.06-.41,1.93,4.66,13,11.18,19.2Z"/><path class="cls-1" d="M89.15,71.58l-.16,0c-6.17-5.32-3.93-25.56-1.86-38,.87-5.23,1.71-9.07,1.87-9.78,0,0,.06,0,.06,0,.34,2.06,22.35,7.91,16.2,15.44h0C97.32,49.09,86.54,64.29,89.15,71.58Z"/><path class="cls-1" d="M69.56,42.37C66.87,35.48,65.2,30.1,65.2,30.1s17.76,6,21.7,3.46l.23,0C85.06,46,82.82,66.23,89,71.55,81.62,70,74.12,54,69.56,42.37Z"/><path class="cls-2" d="M89.1,71.64l-.32.34a7.3,7.3,0,0,1-1.21,1c-7,4.53-25.32,2.4-36.7.49-4.91-.83-8.54-1.61-9.41-1.81a.1.1,0,0,1-.05-.18c1.36-1.21,11.3-10.23,13.88-17.17,0,0,0,0,0,0"/><path class="cls-2" d="M123.12,68.88c-12.28-1.91-29-3.2-34,2.7l-.05.06"/><path class="cls-2" d="M121.69,87.68C128.3,89,135.9,73.92,136.93,71.82a.21.21,0,0,0-.15-.3c-1.23-.29-6.74-1.56-13.66-2.64"/><path class="cls-2" d="M123.12,68.88h0c-7.73-6.38,5-18.88,7.19-20.95a.11.11,0,0,0-.1-.18c-.87.26-3,.92-6,1.9-11.63,3.9-35.17,12.92-35.11,21.93l-.06,0L88.7,72c-.32.29-.71.6-1.13.94-8.65,6.75-36.82,21.79-39.7,22.53a.09.09,0,0,1-.11-.13c.57-1.3,3.85-9.41,3.11-21.91"/><path class="cls-2" d="M110,103.54c2.07-10.65,20.79-7.77,20.79-7.77s-3.76-3.59-9.13-8C112.1,79.92,97.47,69.44,89.67,71.7a2.78,2.78,0,0,0-.38.12h0l0,0-.46.14-.08,0c-7.93,2-23.94-9.89-33.41-17.73-4-3.35-6.89-6-7.4-6.44,0,0,0-.09,0-.14,2.24-2.73,18.43-11.5,21.66-5.32a3.48,3.48,0,0,1,.21.48"/><path class="cls-2" d="M91.54,110.66h0c2.39-5.6,20.09.3,21.45,2.25a0,0,0,0,0,.05,0c-.24-.83-1.36-4.5-3.11-9.33C105.76,92,98,73.89,89.67,71.7a4.87,4.87,0,0,0-.52-.12l-.16,0C81.62,70,74.12,54,69.56,42.37,66.87,35.48,65.2,30.1,65.2,30.1s17.76,6,21.7,3.46"/><path class="cls-2" d="M71.19,106.34c.24,3.74,15.54,11.92,17.61,13,.12.06,1,.52,1,.39.22-.93,1-4.39,1.71-9.09,2-12.23,4.12-32.83-2.25-38.83l-.09-.09-.1-.09h0l-.06,0,0,0c-6.17-5.32-3.93-25.56-1.86-38,.87-5.23,1.71-9.07,1.87-9.78,0,0,.06,0,.06,0,.34,2.06,22.35,7.91,16.2,15.44"/><path class="cls-2" d="M124.23,49.53c-6.52-6.25-11.59-17.27-11.18-19.2,0-.06-.07-.11-.11-.06-.72.79-3.88,4.27-7.68,9-7.94,9.84-18.72,25-16.11,32.33a.88.88,0,0,1,0,.15.49.49,0,0,0,0,.11c2.64,8.44-10.1,25.16-18,34.5-2.84,3.35-5.07,5.74-5.76,6.48a.28.28,0,0,1-.42,0c-1.5-2-11.09-15.43-7.73-20.11"/><path class="cls-1" d="M47.88,143.17a.2.2,0,0,1-.29.13c-2.07-1.09-17.37-9.28-17.61-13,8-9.34,20.69-26.06,18-34.51h.06c6.43,6.07,3.78,26.77,1.58,38.8h0C48.84,139,48.09,142.26,47.88,143.17Z"/><path class="cls-1" d="M71.83,136.82s0,.06,0,0c-1.36-2-15.8-22-22.12-2.29,2.2-12,4.85-32.73-1.58-38.8l.38-.12c8.3,2.19,16.09,20.34,20.26,31.85C70.47,132.33,71.58,136,71.83,136.82Z"/><path class="cls-1" d="M24.22,136.76a.27.27,0,0,1-.42,0c-1.5-2-11.09-15.43-7.73-20.11,12.14-4,31.51-11.71,31.86-20.82l.09,0c2.65,8.45-10.09,25.17-18,34.51C27.14,133.63,24.91,136,24.22,136.76Z"/><path class="cls-1" d="M68.75,127.48h0c-4.17-11.51-12-29.66-20.26-31.85,7.8-2.26,22.42,8.22,31.95,16.07,5.37,4.42,9.12,8,9.12,8S70.82,116.83,68.75,127.48Z"/><path class="cls-1" d="M6.66,119.42a.09.09,0,0,1-.11-.13c.56-1.3,3.85-9.41,3.11-21.92,12.12,2,32.07,4.32,37.91-1.45l.36-.11c-.35,9.11-19.72,16.85-31.86,20.82C11.22,118.21,7.53,119.19,6.66,119.42Z"/><path class="cls-1" d="M80.48,111.62l-.07.09c-9.53-7.85-24.15-18.33-31.95-16.07l-.52-.12c5-5.89,21.69-4.6,34-2.69,6.92,1.07,12.43,2.34,13.66,2.63a.21.21,0,0,1,.14.3C94.69,97.86,87.08,112.91,80.48,111.62Z"/><path class="cls-1" d="M47.57,95.92c-5.84,5.77-25.79,3.49-37.91,1.45-4.92-.82-8.54-1.61-9.41-1.8a.1.1,0,0,1,0-.18c1.36-1.21,11.3-10.23,13.88-17.18C23.57,86.08,39.66,98,47.57,95.92Z"/><path class="cls-1" d="M14.08,78.21c-4-3.34-6.89-5.95-7.41-6.43a.09.09,0,0,1,0-.14c1.48-.93,18.43-11.44,21.67-5.3h0C32.91,78,40.41,94,47.78,95.49l0,0,.07.06c-.1.12-.2.23-.31.34C39.66,98,23.57,86.08,14.08,78.21Z"/><path class="cls-1" d="M47.93,95.81l-.36.11c.11-.11.21-.22.31-.34h0l.06,0h0Z"/><path class="cls-1" d="M48,95.78l-.09,0v-.18s0,0,.05.05Z"/><path class="cls-1" d="M48.06,95.77h0l0-.1.09.08Z"/><path class="cls-1" d="M48.08,95.76,48,95.68a1,1,0,0,1-.05-.16l.52.12Z"/><path class="cls-1" d="M47.94,95.52a1,1,0,0,0,.05.16s0,0-.05-.05h0Z"/><path class="cls-1" d="M47.94,95.63l-.06,0,.06-.06Z"/><path class="cls-1" d="M47.88,95.58h0l-.07-.06,0,0,.16,0Z"/><path class="cls-1" d="M47.94,95.52c-.06-9,23.47-18,35.11-21.93,2.91-1,5.08-1.63,6-1.89a.1.1,0,0,1,.09.17c-2.2,2.07-10.34,11.63-7.18,21C69.63,90.92,52.94,89.63,47.94,95.52Z"/><path class="cls-1" d="M83.05,73.59C71.41,77.5,47.88,86.51,47.94,95.52,45.33,88.24,56.11,73,64.05,63.2c3.8-4.71,7-8.19,7.68-9a.06.06,0,0,1,.1.05c-.4,1.94,4.67,13,11.18,19.21Z"/><path class="cls-1" d="M47.94,95.52l-.16,0c-6.17-5.32-3.93-25.56-1.86-37.95.87-5.24,1.71-9.07,1.87-9.79,0,0,.05,0,.06,0,.33,2.05,22.35,7.91,16.2,15.44h0C56.11,73,45.33,88.24,47.94,95.52Z"/><path class="cls-1" d="M28.36,66.34h0C25.66,59.44,24,54.05,24,54.05s17.76,6,21.7,3.45l.23,0c-2.07,12.39-4.31,32.63,1.86,37.95C40.41,94,32.91,78,28.36,66.34Z"/><path class="cls-2" d="M47.88,95.58c-.1.12-.2.23-.31.34-5.84,5.77-25.79,3.49-37.91,1.45-4.92-.82-8.54-1.61-9.41-1.8a.1.1,0,0,1,0-.18c1.36-1.21,11.3-10.23,13.88-17.18v0"/><path class="cls-2" d="M80.48,111.62c6.6,1.29,14.21-13.76,15.23-15.86a.21.21,0,0,0-.14-.3c-1.23-.29-6.74-1.56-13.66-2.63-12.28-1.91-29-3.2-34,2.69l-.06.06"/><path class="cls-2" d="M47.94,95.63v.18c-.35,9.11-19.72,16.85-31.86,20.82-4.85,1.58-8.54,2.56-9.41,2.79a.09.09,0,0,1-.11-.13c.56-1.3,3.85-9.41,3.11-21.92"/><path class="cls-2" d="M81.91,92.83c-3.16-9.33,5-18.89,7.18-21A.1.1,0,0,0,89,71.7c-.87.26-3,.91-6,1.89C71.41,77.5,47.88,86.51,47.94,95.52v.11"/><path class="cls-2" d="M28.36,66.34a4.68,4.68,0,0,1,.2.45"/><path class="cls-2" d="M68.75,127.48c2.07-10.65,20.78-7.76,20.78-7.76s-3.75-3.59-9.12-8c-9.53-7.85-24.15-18.33-31.95-16.07l-.38.12H48l-.09,0-.36.11c-7.91,2.1-24-9.84-33.49-17.71-4-3.34-6.89-5.95-7.41-6.43a.09.09,0,0,1,0-.14c1.48-.93,18.43-11.44,21.67-5.3"/><path class="cls-2" d="M49.66,134.56c6.32-19.69,20.76.33,22.12,2.29,0,0,.06,0,0,0-.25-.82-1.36-4.49-3.11-9.33-4.17-11.51-12-29.66-20.26-31.85l-.52-.12-.16,0C40.41,94,32.91,78,28.36,66.34h0C25.66,59.44,24,54.05,24,54.05s17.76,6,21.7,3.45"/><path class="cls-2" d="M30,130.29c.24,3.73,15.54,11.92,17.61,13a.2.2,0,0,0,.29-.13c.21-.91,1-4.16,1.77-8.6h0c2.2-12,4.85-32.73-1.58-38.8L48,95.68s0,0-.05-.05h0l-.06,0h0l-.07-.06,0,0c-6.17-5.32-3.93-25.56-1.86-37.95.87-5.24,1.71-9.07,1.87-9.79,0,0,.05,0,.06,0,.33,2.05,22.35,7.91,16.2,15.44"/><path class="cls-2" d="M83,73.48C76.5,67.23,71.43,56.21,71.83,54.27a.06.06,0,0,0-.1-.05c-.72.79-3.88,4.27-7.68,9-7.94,9.83-18.72,25-16.11,32.32a1,1,0,0,0,.05.16l0,.1c2.65,8.45-10.09,25.17-18,34.51-2.84,3.34-5.07,5.74-5.76,6.47a.27.27,0,0,1-.42,0c-1.5-2-11.09-15.43-7.73-20.11"/></g></g></svg>