<svg xmlns="http://www.w3.org/2000/svg" viewBox="0 0 24.08 198.87"><defs><style>.cls-1{fill:none;stroke:#1d1d1b;stroke-linecap:round;stroke-linejoin:round;stroke-width:0.25px;}</style></defs><g id="Layer_2" data-name="Layer 2"><g id="Livello_1" data-name="Livello 1"><path class="cls-1" d="M13.13,70.25c-34,16,18.33,62.44.13,89.66,21.75-24.4-24.64-76-.13-89.66-21.81,13.15,23.44,67.66.13,89.66"/><path class="cls-1" d="M15.44,89.78C39.76,66.38,3.09,24.44,14.21.12,1,27.78,38.48,67.5,15.44,89.78"/><path class="cls-1" d="M8.64,109.1C-15.68,132.49,21,174.43,9.87,198.75,23,171.09-14.4,131.37,8.64,109.1"/><path class="cls-1" d="M10.56,107.55C34.88,84.15-1.79,42.21,9.33,17.9-3.84,45.55,33.6,85.27,10.56,107.55"/></g></g></svg>