<svg xmlns="http://www.w3.org/2000/svg" viewBox="0 0 200.13 274.2"><defs><style>.cls-1,.cls-3{fill:#fff;}.cls-1,.cls-2,.cls-3{stroke:#1d1d1b;stroke-miterlimit:10;}.cls-1,.cls-2{stroke-width:0.25px;}.cls-2{fill:none;}.cls-3{stroke-width:0.2px;}</style></defs><g id="Layer_2" data-name="Layer 2"><g id="Livello_1" data-name="Livello 1"><path class="cls-1" d="M67.15,68.53c-5.71,6.83-14.79,9.86-23.87,9.86C18.05,76.37,4.94,46.1,16,24.91,25.12,6.75,46.3-2.33,66.48.7,46.3-2.33,25.12,7.76,16,26.93,10,41.06,13,56.19,23.1,67.29c8.07,7.06,20.18,10.09,30.27,7.06-16.15,3-31.28-7.06-36.33-22.19-4-16.15,3-31.28,16.15-41.37,18.16-12.11,40.36-8.07,55.49,5C68.5-1.32,34.2.7,21.08,25.92c-8.07,16.15-2,40.36,17.15,44.4A27.93,27.93,0,0,1,20.07,49.13C17,35,24.11,22.9,34.2,14.82c26.23-19.17,60.53,1,66.59,29.26C94.73,19.87,67.49,2.72,43.28,11.8,25.12,18.86,16,42.07,27.13,58.21a39,39,0,0,1-3-21.19c4-17.15,21.18-27.24,38.34-25.22,27.24,4,43.38,36.32,31.28,61.54,10.09-21.18-1-48.43-22.2-57.51C51.35,7.76,26.12,21.89,26.12,44.08c1-19.17,20.18-30.26,38.35-27.24,19.17,4,31.27,23.21,29.26,42.38-2,16.14-13.12,29.26-26.24,37.33C88.68,85.45,99.78,59.22,88.68,37c-4-7.06-10.09-12.11-17.15-16.14-13.12-5-30.27-2-37.33,10.09,9.08-13.12,27.24-15.14,40.36-6.06C85.65,33,90.7,46.1,89.69,59.22c-3,25.22-28.25,42.38-52.47,37.33,22.2,5,47.43-11.1,51.46-34.3,4-22.2-16.14-46.42-38.34-38.34,20.18-5.05,38.34,16.14,35.31,36.32A40.72,40.72,0,0,1,52.36,93.52a46.81,46.81,0,0,1-36-9.84c-4.89-3.83-6.56-5.26-6.56-5.26l5.82,4.81c17.62,13.32,44.86,13.32,60-3.83,5-6.06,9.09-14.13,9.09-22.2,0-12.11-7.07-25.22-20.18-29.26C78.59,33,85.65,50.14,81.62,64.26c-3,8.08-8.07,14.13-15.14,19.17C41.26,99.58,9,83.43,2.11,56.29c-1.51-6-2-7.53-2-7.53s.46,1.37,1.78,6.52c4,17.06,19.18,31.18,37.34,33.2,17.15,2,33.3-7.06,39.35-23.21,3-8.07,1-16.14-3-23.2a29.35,29.35,0,0,1-3,31.27A37.54,37.54,0,0,1,44.29,86.46C15,85.45-2.13,52.16,7,26.41c2.3-5.79,2.79-7.3,2.79-7.3s-.42,1.38-2.38,6.39C.9,46.1,8,69.31,26.12,80.41c20.18,11.1,48.44-1,49.44-24.22-1,10.09-7.06,17.15-15.13,22.2-13.12,7.06-27.24,5-38.34-4C.9,56.19,4.94,19.87,27.65,5.51,33,2,35,.78,35,.78S33.19,1.9,28.52,5C14,15.83,4.94,36,11,54.17c3,10.09,10.09,19.17,20.18,23.21,11.1,4,25.22,3,33.52-6.21A32,32,0,0,0,67.15,68.53Z"/><path class="cls-1" d="M86.89,245.13C81.18,252,72.1,255,63,255c-25.23-2-38.34-32.29-27.25-53.48C44.85,183.35,66,174.27,86.22,177.3c-20.18-3-41.37,7.06-50.45,26.23-6.05,14.13-3,29.26,7.07,40.36C50.91,251,63,254,73.11,251c-16.15,3-31.28-7.06-36.33-22.2-4-16.14,3-31.27,16.15-41.36,18.16-12.11,40.36-8.07,55.49,5-20.18-17.15-54.48-15.13-67.6,10.09-8.07,16.15-2,40.36,17.15,44.4a27.93,27.93,0,0,1-18.16-21.19c-3-14.13,4-26.24,14.13-34.31,26.23-19.17,60.53,1,66.59,29.26-6.06-24.21-33.3-41.36-57.51-32.28-18.17,7.06-27.25,30.27-16.15,46.41a39,39,0,0,1-3-21.19c4-17.15,21.18-27.24,38.34-25.22,27.24,4,43.38,36.32,31.28,61.54,10.09-21.19-1-48.43-22.2-57.51-20.18-8.07-45.41,6.06-45.41,28.25,1-19.17,20.18-30.27,38.34-27.24,19.18,4,31.28,23.21,29.27,42.38-2,16.14-13.12,29.26-26.24,37.33,21.19-11.1,32.29-37.33,21.19-59.53-4-7.06-10.09-12.11-17.15-16.14-13.12-5-30.27-2-37.33,10.09,9.08-13.12,27.24-15.14,40.35-6.06,11.1,8.07,16.15,21.19,15.14,34.31C106.4,261,81.18,278.19,57,273.15c22.2,5,47.42-11.1,51.46-34.31,4-22.19-16.14-46.41-38.34-38.34,20.18-5,38.34,16.15,35.31,36.33A40.72,40.72,0,0,1,72.1,270.12a46.81,46.81,0,0,1-36-9.84c-4.89-3.83-6.56-5.27-6.56-5.27l5.82,4.82c17.62,13.32,44.86,13.32,60-3.83,5-6.06,9.08-14.13,9.08-22.2,0-12.11-7.06-25.22-20.18-29.26,14.13,5,21.19,22.2,17.16,36.32-3,8.07-8.07,14.13-15.14,19.17C61,276.18,28.71,260,21.85,232.89c-1.51-6-2-7.53-2-7.53s.46,1.37,1.78,6.52c4,17.05,19.18,31.18,37.34,33.2,17.15,2,33.3-7.06,39.35-23.21,3-8.07,1-16.14-3-23.2a29.35,29.35,0,0,1-3,31.27A37.54,37.54,0,0,1,64,263.06c-29.26-1-46.42-34.31-37.33-60.05,2.3-5.79,2.79-7.3,2.79-7.3s-.42,1.38-2.38,6.39c-6.47,20.6.59,43.81,18.75,54.91,20.18,11.1,48.43-1,49.44-24.22-1,10.09-7.06,17.15-15.13,22.2-13.12,7.06-27.24,5-38.34-4-21.19-18.16-17.15-54.48,5.56-68.84,5.33-3.52,7.33-4.73,7.33-4.73s-1.79,1.12-6.46,4.2c-14.5,10.85-23.58,31-17.53,49.19,3,10.09,10.09,19.17,20.18,23.21,11.1,4,25.22,3,33.52-6.21A32,32,0,0,0,86.89,245.13Z"/><path class="cls-2" d="M51,32.84l4.6-7.71L56.89,34a4.09,4.09,0,0,0,5,3.37l8.7-2.2-5.36,7.19a4.09,4.09,0,0,0,1.19,6l7.71,4.6-8.88,1.3a4.08,4.08,0,0,0-3.37,5l2.2,8.7-7.2-5.36a4.09,4.09,0,0,0-6,1.19l-4.59,7.7-1.3-8.87a4.09,4.09,0,0,0-5-3.37l-8.69,2.2,5.35-7.2a4.08,4.08,0,0,0-1.18-6L27.8,43.71l8.88-1.3a4.1,4.1,0,0,0,3.37-5l-2.2-8.7L45,34A4.08,4.08,0,0,0,51,32.84Z"/><path class="cls-2" d="M53.68,34.88l5.21-2.94c3.39-1.91,8.29.92,7.36,4.25l-1.42,5.13,6.61,1.11c4.31.72,5.61,5.34,2,6.94l-5.6,2.47,4.14,4.51c2.7,2.93-.35,6.64-4.58,5.57l-6.51-1.64-.75,5.26c-.49,3.43-6.11,4-8.45.94L48.06,61.7l-5.21,2.93c-3.39,1.91-8.29-.91-7.36-4.25l1.42-5.12L30.3,54.15c-4.31-.72-5.61-5.34-2-6.95l5.61-2.46L29.8,40.23c-2.7-2.93.35-6.64,4.58-5.57l6.51,1.64L41.64,31c.49-3.42,6.11-4,8.45-.93Z"/><path class="cls-2" d="M58.88,244.42l-11.7,6,5.27-12.06a6,6,0,0,0-3.65-8.1l-12.53-4,12.25-4.79a6,6,0,0,0,3.14-8.32l-6-11.7,12.05,5.28a6,6,0,0,0,8.1-3.66l4-12.52,4.8,12.25a6,6,0,0,0,8.31,3.14l11.7-6-5.27,12a6,6,0,0,0,3.65,8.1l12.53,4-12.25,4.79a6,6,0,0,0-3.15,8.32l6,11.7-12-5.28A6,6,0,0,0,76,247.29l-4,12.53-4.79-12.26A6,6,0,0,0,58.88,244.42Z"/><path class="cls-2" d="M56.82,239.86l-8.88-.4c-5.77-.26-9.72-7.67-5.93-11.14L47.83,223l-7.46-6.6c-4.85-4.3-2.86-11.15,3-10.3l9,1.31-1.68-8.94c-1.09-5.81,5.67-8.09,10.16-3.41l6.91,7.18,5.09-6c3.31-3.93,10.88-.29,11.38,5.47L85,210.5l8.88.4c5.77.26,9.72,7.67,5.93,11.14L94,227.38l7.47,6.6c4.85,4.3,2.86,11.15-3,10.3l-9-1.31,1.68,8.94c1.09,5.82-5.67,8.09-10.17,3.41l-6.9-7.18-5.09,6c-3.31,3.93-10.89.29-11.38-5.47Z"/><path class="cls-1" d="M163.19,139.94c-5.71,6.83-14.79,9.86-23.87,9.86-25.23-2-38.35-32.29-27.25-53.48,9.08-18.16,30.27-27.24,50.45-24.21-20.18-3-41.37,7.06-50.45,26.23-6,14.13-3,29.26,7.07,40.36,8.07,7.06,20.18,10.09,30.27,7.06-16.15,3-31.28-7.06-36.33-22.19-4-16.15,3-31.28,16.15-41.37,18.16-12.11,40.36-8.07,55.49,5-20.18-17.15-54.49-15.13-67.6,10.09-8.07,16.15-2,40.36,17.15,44.4a27.93,27.93,0,0,1-18.16-21.19c-3-14.13,4-26.23,14.12-34.31,26.24-19.17,60.54,1,66.6,29.26-6.06-24.21-33.3-41.36-57.51-32.28-18.17,7.06-27.25,30.27-16.15,46.41a39,39,0,0,1-3-21.19c4-17.15,21.18-27.24,38.34-25.22,27.24,4,43.38,36.32,31.27,61.54,10.09-21.18-1-48.43-22.19-57.51-20.18-8.07-45.41,6.06-45.41,28.25,1-19.17,20.18-30.26,38.34-27.24,19.17,4,31.28,23.21,29.26,42.38-2,16.14-13.11,29.26-26.23,37.33,21.19-11.1,32.29-37.33,21.19-59.53-4-7.06-10.09-12.11-17.15-16.14-13.12-5.05-30.27-2-37.34,10.09,9.09-13.12,27.25-15.14,40.36-6.06,11.1,8.08,16.15,21.19,15.14,34.31-3,25.22-28.25,42.38-52.47,37.33,22.2,5,47.42-11.1,51.46-34.3,4-22.2-16.14-46.42-38.34-38.34,20.18-5,38.34,16.14,35.31,36.32a40.72,40.72,0,0,1-33.29,33.29,46.81,46.81,0,0,1-36.05-9.84c-4.89-3.83-6.56-5.26-6.56-5.26l5.82,4.81c17.62,13.32,44.86,13.32,60-3.83,5.05-6.06,9.08-14.13,9.08-22.2,0-12.11-7.06-25.22-20.18-29.26,14.13,5.05,21.19,22.2,17.16,36.32-3,8.08-8.07,14.13-15.14,19.17C137.3,171,105,154.84,98.15,127.7c-1.51-6-2-7.53-2-7.53s.46,1.37,1.78,6.52c4,17.06,19.18,31.18,37.34,33.2,17.15,2,33.3-7.06,39.35-23.21,3-8.07,1-16.14-3-23.2a29.35,29.35,0,0,1-3,31.27,37.54,37.54,0,0,1-28.26,13.12c-29.26-1-46.41-34.3-37.32-60.05,2.3-5.79,2.79-7.3,2.79-7.3s-.42,1.38-2.38,6.39c-6.47,20.6.59,43.81,18.75,54.91,20.18,11.1,48.43-1,49.44-24.22-1,10.09-7.06,17.15-15.13,22.2-13.12,7.06-27.24,5-38.34-4C96.94,127.6,101,91.28,123.69,76.92,129,73.4,131,72.19,131,72.19s-1.79,1.12-6.46,4.2c-14.5,10.85-23.59,31-17.53,49.19,3,10.09,10.09,19.17,20.18,23.21,11.1,4,25.22,3,33.52-6.21A32,32,0,0,0,163.19,139.94Z"/><path class="cls-3" d="M157,124c-.66,3.79-3.41,6.9-6.81,8.87-9.88,4.71-21.36-3.77-21.8-14.12-.54-8.77,5.43-16.76,13.64-20a20.82,20.82,0,0,0-13.2,20.77,16.08,16.08,0,0,0,11.4,13.58,14.4,14.4,0,0,0,12.87-3.92,14,14,0,0,1-18.42-.43c-5-5.17-5.65-12.37-2.93-19C136,101.25,145.14,98,153.65,99.57c-11.27-2-23.68,6.16-23.12,18.45.48,7.79,8,15.55,16.05,12.9a12.06,12.06,0,0,1-11.39-4C131,122.29,131,116.23,133,111c5.67-12.87,22.89-12.76,31.29-3.49-7.52-7.76-21.45-8.27-28.54.38-5.27,6.59-3.64,17.25,4,20.88a16.9,16.9,0,0,1-5.73-7.27c-2.21-7.3,2-14.8,8.89-17.77C154,99.35,167.08,107.94,168,120c-.82-10.12-10.88-17.91-20.79-16.72-9.31,1.36-15.69,12.12-10.87,20.43-3.78-7.39,1-15.71,8.45-18.52,8.05-2.64,16.74,1.91,20.15,9.52,2.74,6.49,1.43,13.81-1.73,19.67,5.53-8.75,4-21-5-26.88a19,19,0,0,0-9.92-2.33c-6,1-11.78,5.81-11.79,11.88.55-6.88,6.91-11.58,13.8-11a16.5,16.5,0,0,1,13.1,9.56c4.34,10.1-1.38,22-11.54,25.36,9.4-2.93,15.35-14.44,11.82-24-3.3-9.18-16.11-13.87-22.67-6,6.46-6.26,17.86-2.27,21.1,5.94a17.63,17.63,0,0,1-5.24,19.69,20.24,20.24,0,0,1-15.63,4.14c-2.67-.37-3.6-.55-3.6-.55l3.22.54c9.49,1.17,19.69-4.74,21.63-14.45a15.68,15.68,0,0,0-1.41-10.28c-2.63-4.53-8.12-7.91-13.91-6.58,6.39-1.17,12.75,3.72,14.31,9.88A17.53,17.53,0,0,1,160,129.7c-5.94,11.52-21.54,12.48-30,3.8-1.87-1.92-2.38-2.38-2.38-2.38s.47.41,2.08,2a19.12,19.12,0,0,0,21.18,4.33,15.87,15.87,0,0,0,9.7-17.23c-.62-3.67-3.12-6.26-6.17-8a12.73,12.73,0,0,1,5.66,12.37,16.25,16.25,0,0,1-7.74,11c-11.17,6-24.82-2.78-27-14.39-.4-2.66-.54-3.34-.54-3.34s.14.61.5,2.91c2,9.12,9.72,16.28,18.93,16.49,10-.22,17.92-10.88,13.26-19.79,1.81,4,1.08,8-.85,11.6a14.49,14.49,0,0,1-15.24,6.8c-11.87-2.2-18.24-16.68-12.85-27,1.23-2.48,1.72-3.36,1.72-3.36s-.43.81-1.51,3c-3.07,7.21-2.1,16.74,4.11,22.22a15.42,15.42,0,0,0,12.59,4.32c5-.9,10.1-4.34,11.21-9.6A14.31,14.31,0,0,0,157,124Z"/><path class="cls-2" d="M160.49,149.87l-2.25,18.82-10.14-16a8.63,8.63,0,0,0-12.63-2.16l-14.9,11.72,4.16-18.5a8.63,8.63,0,0,0-7.4-10.46L98.51,131l16-10.14a8.64,8.64,0,0,0,2.17-12.63L105,93.36l18.49,4.15a8.63,8.63,0,0,0,10.46-7.39l2.25-18.83,10.14,16a8.64,8.64,0,0,0,12.63,2.17l14.9-11.73-4.16,18.5a8.63,8.63,0,0,0,7.4,10.46L195.9,109l-16,10.14a8.64,8.64,0,0,0-2.17,12.63l11.72,14.89L171,142.47A8.63,8.63,0,0,0,160.49,149.87Z"/><path class="cls-2" d="M153.38,148.65l-7.63,10.28c-5,6.69-17,5.43-18.1-1.9L126,145.77l-13.9,3.59c-9,2.34-15.62-5.56-9.89-11.87l8.82-9.7-12-5.2c-7.82-3.39-5.08-13.3,4.12-14.9l14.14-2.45-3.11-10.95c-2-7.12,8.43-13.24,15.71-9.19L141,91.33l7.63-10.28c5-6.69,17-5.42,18.09,1.9l1.68,11.26,13.9-3.59c9-2.33,15.62,5.57,9.88,11.88l-8.81,9.69,12,5.21c7.83,3.38,5.09,13.29-4.11,14.89l-14.15,2.45,3.11,10.95c2,7.13-8.43,13.24-15.7,9.19Z"/></g></g></svg>