<svg xmlns="http://www.w3.org/2000/svg" viewBox="0 0 278.11 219.04"><defs><style>.b8cd8efe-55f9-4758-af96-093aaec784b0{fill:none;stroke:#000;stroke-miterlimit:10;stroke-width:0.5px;}</style></defs><title>Risorsa 1</title><g id="a7c65af4-172e-4aea-8985-7e964d2dc4ae" data-name="Livello 2"><g id="fb1ce171-1129-4cfe-ad45-842ad843dfc0" data-name="Livello 1"><path class="b8cd8efe-55f9-4758-af96-093aaec784b0" d="M89.24,108.28c2,0,3.86.09,5.69.19l5.39.32c1.76.1,3.51.19,5.25.25s3.48.1,5.22.11,3.48,0,5.22-.06,3.48-.11,5.2-.2,3.45-.18,5.15-.27,3.38-.18,5-.24,3.27-.13,4.78-.09,3,.15,4.35.28,2.77.3,4.14.46,2.73.34,4.11.49,2.77.3,4.2.41,2.89.2,4.38.25,3,.06,4.6,0,3.16-.1,4.79-.2,3.29-.26,5-.44,3.34-.39,5-.63,3.26-.57,4.95-.74,3.31-.24,4.91-.28,3.19,0,4.76,0,3.15.09,4.74.16l4.84.19c1.64.07,3.31.13,5,.17s3.47.06,5.28.06,3.67,0,5.57,0l5.8-.11c2,0,4-.07,5.94-.06"/><path class="b8cd8efe-55f9-4758-af96-093aaec784b0" d="M91.3,112.16c1.82.12,3.57.29,5.31.41s3.47.25,5.18.34,3.44.15,5.15.18,3.44,0,5.17,0,3.45-.11,5.17-.2,3.45-.2,5.15-.32l5.07-.36c1.67-.11,3.34-.25,4.87-.27a29.6,29.6,0,0,1,4.31.23c1.34.16,2.58.43,3.88.61s2.6.38,3.91.55,2.63.34,4,.48,2.73.25,4.14.32,2.87.11,4.36.11,3,0,4.58-.15,3.17-.22,4.8-.4,3.28-.4,5-.65,3.34-.55,5-.87a41,41,0,0,1,4.87-.64c1.58-.1,3.1-.11,4.6-.06s3,.09,4.49.15,3,.14,4.53.22l4.65.23c1.58.07,3.2.12,4.86.16s3.37.06,5.13.06,3.57,0,5.42-.07,3.75-.1,5.68-.16,3.88-.12,5.82-.13"/><path class="b8cd8efe-55f9-4758-af96-093aaec784b0" d="M93.19,116.25c1.76.19,3.43.44,5.19.55s3.51.2,5.28.24,3.53,0,5.31,0,3.56-.13,5.35-.24,3.58-.25,5.36-.41l5.29-.5c1.75-.17,3.47-.36,5-.38a30,30,0,0,1,4.34.24c1.37.18,2.65.42,3.89.69s2.45.57,3.63.86a30.43,30.43,0,0,0,3.91.55c1.35.14,2.74.25,4.16.31s2.9.08,4.41,0,3.08-.11,4.68-.24,3.25-.31,4.94-.55,3.39-.51,5.13-.84,3.54-.76,5.19-1.08a38.27,38.27,0,0,1,4.82-.61,43.37,43.37,0,0,1,4.55,0c1.49,0,2.94.17,4.39.33s2.89.3,4.4.4l4.61.26c1.57.08,3.18.14,4.84.18s3.37.06,5.14,0,3.59,0,5.47-.11,3.8-.14,5.77-.23,3.92-.19,5.87-.22"/><path class="b8cd8efe-55f9-4758-af96-093aaec784b0" d="M95,120.39c1.75.2,3.46.41,5.16.59a41.69,41.69,0,0,0,5.48,0c1.84,0,3.7-.15,5.56-.29s3.74-.32,5.61-.53,3.73-.43,5.58-.67a47.9,47.9,0,0,1,5.13-.47,32.29,32.29,0,0,1,4.41.28c1.38.18,2.68.44,3.95.72s2.48.58,3.69.88,2.42.58,3.64.83a23.94,23.94,0,0,0,4,.45q2.18.06,4.5,0c1.56-.07,3.16-.19,4.82-.37s3.37-.43,5.12-.73,3.55-.65,5.37-1.07,3.62-.91,5.26-1.21a36.88,36.88,0,0,1,4.75-.59,42.48,42.48,0,0,1,4.51,0c1.47.06,2.92.19,4.36.35s2.87.36,4.31.57,2.87.44,4.43.52,3.17.15,4.83.19,3.38,0,5.17,0,3.63-.08,5.53-.17,3.92-.19,5.9-.34,3.93-.23,5.89-.27"/><path class="b8cd8efe-55f9-4758-af96-093aaec784b0" d="M97,124.42c1.79.17,3.55.32,5.34.41a41.09,41.09,0,0,0,5.69-.22c2-.18,3.93-.41,5.9-.67s4-.57,5.92-.89a34.86,34.86,0,0,1,5.24-.51,31.77,31.77,0,0,1,4.49.31c1.4.2,2.73.47,4,.76s2.53.61,3.77.91,2.47.59,3.73.84,2.53.44,3.86.57a23.15,23.15,0,0,0,4.24.14c1.6-.11,3.27-.28,5-.53s3.52-.55,5.37-.93,3.74-.83,5.67-1.35,3.51-1,5.12-1.26a37.78,37.78,0,0,1,4.7-.53,44.29,44.29,0,0,1,4.47,0c1.46.08,2.9.22,4.33.39s2.85.39,4.29.6,2.89.43,4.38.63a38.15,38.15,0,0,0,4.61.48c1.67,0,3.41,0,5.21,0s3.69-.13,5.63-.25,4-.32,6-.48,3.95-.24,5.92-.27"/><path class="b8cd8efe-55f9-4758-af96-093aaec784b0" d="M99.1,128.22c1.86.09,3.73.13,5.65.07a47.25,47.25,0,0,0,6-.6c2.09-.34,4.31-.75,6.27-1.14a28,28,0,0,1,5.38-.53,30,30,0,0,1,4.6.36c1.44.21,2.8.5,4.12.81s2.59.64,3.86.95,2.54.59,3.83.83a38.55,38.55,0,0,0,4,.54,35.55,35.55,0,0,0,4.3.11,42.63,42.63,0,0,0,4.79-.44c1.7-.25,3.65-.69,5.61-1.16s4.15-1.09,5.86-1.64a35.19,35.19,0,0,1,5-1.19,34.53,34.53,0,0,1,4.64-.46,43.31,43.31,0,0,1,4.43.09c1.45.1,2.87.26,4.3.45s2.84.42,4.27.65,2.89.45,4.38.66,3,.38,4.61.51,3.26.21,5,.2,3.73-.17,5.73-.34,4.07-.43,6.05-.59,4-.24,5.93-.27"/><path class="b8cd8efe-55f9-4758-af96-093aaec784b0" d="M101.53,131.7a59.81,59.81,0,0,0,6.13-.45c2.11-.26,4.44-.79,6.49-1.2a27.36,27.36,0,0,1,5.58-.57,29.32,29.32,0,0,1,4.75.4c1.48.23,2.88.55,4.23.87s2.67.68,4,1,2.61.61,3.94.84a38.28,38.28,0,0,0,4.1.5,36.62,36.62,0,0,0,4.45,0,44.83,44.83,0,0,0,5-.58c1.76-.31,3.63-.73,5.64-1.27s4-1.3,5.71-1.81a33.77,33.77,0,0,1,4.9-1.1A35.1,35.1,0,0,1,171,128c1.49,0,2.95,0,4.38.17s2.85.31,4.27.52,2.83.46,4.25.7,2.88.48,4.37.7,3,.4,4.62.54,3.28.21,5.06.2,3.66-.1,5.7-.31,4.07-.5,6.05-.65,3.95-.23,5.92-.25"/><path class="b8cd8efe-55f9-4758-af96-093aaec784b0" d="M104.33,134.76c2.17-.23,4.5-.7,6.61-1.09a46.17,46.17,0,0,1,5.91-.73,22,22,0,0,1,5,.42c1.53.26,3,.59,4.37.94s2.75.72,4.1,1,2.7.63,4.07.86a36.19,36.19,0,0,0,8.86.37,45.57,45.57,0,0,0,5.14-.75c1.82-.37,3.76-.86,5.84-1.49s3.66-1.28,5.34-1.76a29.63,29.63,0,0,1,9.45-1.35c1.48,0,2.92.12,4.35.27s2.83.36,4.23.6,2.81.49,4.24.75,2.87.52,4.35.75,3,.42,4.63.55,3.28.21,5.07.2a52.39,52.39,0,0,0,5.72-.34c2-.24,4-.45,6-.64s4-.25,5.95-.26"/><path class="b8cd8efe-55f9-4758-af96-093aaec784b0" d="M107.41,137.39a53.44,53.44,0,0,1,6.1-.6,39.27,39.27,0,0,1,5.38.14,28.56,28.56,0,0,1,4.63.9c1.45.38,2.85.77,4.25,1.11s2.79.65,4.21.88a34.89,34.89,0,0,0,4.41.41,34.21,34.21,0,0,0,4.78-.2,44.33,44.33,0,0,0,5.33-.93,57.73,57.73,0,0,0,5.87-1.71,46,46,0,0,1,5.11-1.51c1.65-.38,3.24-.66,4.81-.87s3.11-.34,4.63-.43a22.78,22.78,0,0,1,4.34.29c1.41.19,2.81.43,4.21.69s2.79.54,4.21.82,2.85.54,4.34.78,3,.44,4.62.57,3.28.21,5.08.19,3.74-.19,5.67-.37,3.89-.32,5.87-.46,4-.25,6-.35"/><path class="b8cd8efe-55f9-4758-af96-093aaec784b0" d="M109.89,140.64a52.05,52.05,0,0,1,5.66.13,50.2,50.2,0,0,1,5,.7c1.6.3,3.1.68,4.55,1.05s2.91.68,4.39.91a33.82,33.82,0,0,0,4.57.37,34.64,34.64,0,0,0,5-.33,46.24,46.24,0,0,0,5.54-1.13c2-.52,4-1.28,5.73-1.81a41.93,41.93,0,0,1,5-1.22c1.62-.29,3.18-.48,4.72-.61s3-.19,4.54-.21,3,0,4.45,0a26.06,26.06,0,0,1,4.3.51l4.19.89c1.41.29,2.84.58,4.32.82s3,.45,4.61.59a49,49,0,0,0,5.08.16c1.8,0,3.7-.21,5.59-.33s3.8-.21,5.75-.29,3.93-.16,6-.22"/><path class="b8cd8efe-55f9-4758-af96-093aaec784b0" d="M111.94,144.59c1.9.12,3.68.34,5.39.61s3.32.6,4.91.93,3.15.67,4.69.89a30.87,30.87,0,0,0,4.77.34,32.82,32.82,0,0,0,5.17-.46,46.61,46.61,0,0,0,5.77-1.36c2-.61,3.84-1.3,5.56-1.74a40,40,0,0,1,5-.94c1.59-.2,3.13-.31,4.64-.36s3,0,4.46,0,2.93.12,4.38.22,2.93.2,4.4.32a31.53,31.53,0,0,1,4.39.49c1.4.32,2.83.61,4.3.87s3,.45,4.6.59a46.51,46.51,0,0,0,5.08.13c1.8-.06,3.62-.18,5.47-.24s3.73-.11,5.65-.14l5.89-.1"/><path class="b8cd8efe-55f9-4758-af96-093aaec784b0" d="M113.79,148.88c1.74.22,3.41.49,5,.76s3.19.56,4.76.78a43.9,43.9,0,0,0,4.75.46,26.51,26.51,0,0,0,5-.35,41.69,41.69,0,0,0,5.55-1.28c1.95-.59,3.74-1.27,5.41-1.69a37.29,37.29,0,0,1,4.78-.87c1.53-.17,3-.25,4.44-.28s2.84,0,4.22.09,2.76.17,4.12.28,2.74.24,4.11.37l4.15.38,4.26.34c1.44.11,2.91.19,4.32.41s2.89.37,4.43.46,3.2,0,4.87,0,3.36-.06,5.09-.07h10.82"/><path class="b8cd8efe-55f9-4758-af96-093aaec784b0" d="M115.64,153.19c1.74.24,3.42.49,5.09.68a49.81,49.81,0,0,0,5,.37,32.06,32.06,0,0,0,5.27-.36,31.6,31.6,0,0,0,5.78-1.46,34.16,34.16,0,0,1,5.3-1.47,36.19,36.19,0,0,1,4.74-.58c1.51-.08,3-.08,4.38,0s2.8.16,4.16.29,2.72.27,4.08.42,2.7.31,4.07.45,2.74.27,4.14.39,2.81.2,4.26.28,2.91.13,4.42.17,3,.07,4.59.09,3.16,0,4.79,0,3.28,0,5,.07l5.19.11,5.5.08"/><path class="b8cd8efe-55f9-4758-af96-093aaec784b0" d="M117.64,157.28c1.79.17,3.56.29,5.36.3a34.18,34.18,0,0,0,5.54-.4,48,48,0,0,0,5.9-1.48,34.32,34.32,0,0,1,5.34-1.23,35.62,35.62,0,0,1,4.72-.3c1.5,0,2.94.09,4.35.22s2.78.29,4.14.46l4,.54c1.34.17,2.69.34,4.06.48s2.74.27,4.14.36,2.84.14,4.3.17,3,0,4.49,0,3.1-.12,4.7-.21a33.86,33.86,0,0,1,4.73.05c1.55.13,3.17.2,4.83.27l5.12.2c1.76.06,3.58.11,5.46.14"/><path class="b8cd8efe-55f9-4758-af96-093aaec784b0" d="M119.93,160.93a38.6,38.6,0,0,0,5.82-.38c2-.29,4.12-.9,6-1.35a45.63,45.63,0,0,1,5.41-.94,31.81,31.81,0,0,1,4.82-.16c1.52.06,2.95.24,4.36.43s2.78.4,4.14.62,2.7.43,4.06.62,2.7.35,4.08.48,2.76.22,4.18.27,2.87,0,4.36,0,3-.14,4.59-.29,3.21-.4,4.82-.54a30.88,30.88,0,0,1,4.71,0c1.54.11,3.08.32,4.63.58a41.43,41.43,0,0,0,4.95.5c1.75.08,3.56.14,5.45.17"/><path class="b8cd8efe-55f9-4758-af96-093aaec784b0" d="M122.6,164c2.08-.25,4.23-.78,6.19-1.14a52.25,52.25,0,0,1,5.57-.72,37.55,37.55,0,0,1,5,0,36,36,0,0,1,4.46.55c1.42.27,2.77.6,4.15.84s2.73.48,4.1.67,2.74.34,4.14.44,2.81.14,4.26.13,2.93-.09,4.46-.23,3.09-.35,4.72-.62,3.29-.64,4.88-.79a30.39,30.39,0,0,1,4.67,0,45.79,45.79,0,0,1,4.6.56c1.54.26,3.11.57,4.74.88a30.71,30.71,0,0,0,5.28.54"/><path class="b8cd8efe-55f9-4758-af96-093aaec784b0" d="M125.42,166.66c2.06-.28,4-.48,5.85-.58a44.83,44.83,0,0,1,5.2,0,41.46,41.46,0,0,1,4.67.56c1.48.25,2.89.57,4.26.91a35.68,35.68,0,0,0,4,1c1.4.18,2.81.3,4.24.35a42.9,42.9,0,0,0,4.38-.07c1.49-.09,3-.27,4.6-.52s3.2-.6,4.89-1a30.8,30.8,0,0,1,4.87-.89,28.28,28.28,0,0,1,4.6,0,42.43,42.43,0,0,1,4.56.58c1.53.26,3.09.58,4.71.9s3.32.63,5.12.89"/><path class="b8cd8efe-55f9-4758-af96-093aaec784b0" d="M127.8,170.05a54.39,54.39,0,0,1,5.58,0c1.75.09,3.4.28,5,.51s3.06.53,4.51.84l4.24.91c1.39.28,2.77.53,4.17.69a19.1,19.1,0,0,0,4.49-.19,46.28,46.28,0,0,0,4.78-.89c1.65-.4,3.4-1,5.06-1.44a24.23,24.23,0,0,1,4.78-.83,27.37,27.37,0,0,1,4.53,0c1.49.13,3,.35,4.49.63s3.07.61,4.69.94,3.31.66,5.12.93"/><path class="b8cd8efe-55f9-4758-af96-093aaec784b0" d="M129.92,174c1.92.07,3.71.22,5.41.42s3.31.47,4.86.74,3,.55,4.51.79,2.92.43,4.39.52a26.23,26.23,0,0,0,4.51-.06,23.24,23.24,0,0,0,4.91-1.09c1.73-.57,3.51-1.29,5.14-1.71a24.45,24.45,0,0,1,4.69-.73,27.29,27.29,0,0,1,4.44.13c1.47.15,2.93.4,4.43.7s3,.65,4.65,1,3.3.69,5.13,1"/><path class="b8cd8efe-55f9-4758-af96-093aaec784b0" d="M131.94,178.16c1.88.16,3.65.39,5.34.62s3.3.47,4.87.67a46.67,46.67,0,0,0,4.67.39,28.12,28.12,0,0,0,4.73-.23,25.07,25.07,0,0,0,5-1.24c1.77-.62,3.5-1.34,5.1-1.72a23,23,0,0,1,4.6-.59,26.27,26.27,0,0,1,4.35.24c1.43.18,2.87.46,4.35.79s3,.7,4.6,1.07,3.31.73,5.15,1"/><path class="b8cd8efe-55f9-4758-af96-093aaec784b0" d="M134,182.31c1.88.19,3.66.41,5.38.57s3.38.29,5,.31a30.21,30.21,0,0,0,5-.35,39.12,39.12,0,0,0,5.19-1.32q2.58-.79,5-1.34a43.33,43.33,0,0,1,4.66-.8,15.32,15.32,0,0,1,4.3.24c1.41.22,2.82.54,4.27.9s3,.76,4.57,1.14,3.31.77,5.18,1.06"/><path class="b8cd8efe-55f9-4758-af96-093aaec784b0" d="M136.09,186.25c1.93.15,3.76.27,5.56.28a34.31,34.31,0,0,0,5.35-.39c1.78-.28,3.62-.81,5.33-1.22s3.34-.75,4.92-1,3.09-.45,4.58-.55a38,38,0,0,1,4.39-.07,19.4,19.4,0,0,1,4.29.7c1.43.39,2.92.82,4.53,1.23a53,53,0,0,0,5.22,1.09"/><path class="b8cd8efe-55f9-4758-af96-093aaec784b0" d="M138.37,189.87a39.25,39.25,0,0,0,5.87-.31c1.93-.26,3.82-.71,5.58-1s3.42-.58,5-.78,3.11-.32,4.6-.38,2.93,0,4.37,0,2.87.23,4.35.45a43.27,43.27,0,0,1,4.57.94,44.73,44.73,0,0,0,5.28,1.11"/><path class="b8cd8efe-55f9-4758-af96-093aaec784b0" d="M140.83,193.11c1.87-.16,3.68-.46,5.37-.68s3.26-.43,4.76-.59,2.91-.27,4.28-.34,2.67-.09,3.95-.07,2.55.1,3.82.21,2.55.27,3.87.47,2.68.43,4.13.68,3,.53,4.74.77"/><path class="b8cd8efe-55f9-4758-af96-093aaec784b0" d="M143.3,196.26c1.85-.17,3.57-.33,5.18-.46s3.09-.22,4.5-.26,2.75-.06,4.05,0,2.55.11,3.82.21,2.53.24,3.84.41,2.67.36,4.13.56,3,.42,4.79.57"/><path class="b8cd8efe-55f9-4758-af96-093aaec784b0" d="M145.56,199.83c1.82-.12,3.47-.2,5-.25s2.95-.05,4.29,0,2.62.09,3.89.18,2.53.2,3.83.33l4.12.45c1.46.15,3,.31,4.83.4"/><path class="b8cd8efe-55f9-4758-af96-093aaec784b0" d="M147.72,203.63c1.8-.07,3.38-.09,4.85-.07s2.81.06,4.11.12,2.56.16,3.86.26l4.07.33c1.45.11,3,.22,4.84.26"/><path class="b8cd8efe-55f9-4758-af96-093aaec784b0" d="M149.88,207.5c1.77,0,3.29,0,4.7.05s2.7.1,4,.18l4,.22c1.42.07,3,.15,4.81.14"/><path class="b8cd8efe-55f9-4758-af96-093aaec784b0" d="M152.07,211.33c1.75,0,3.2.06,4.56.11l4,.14c1.38,0,2.86.09,4.71.06"/><path class="b8cd8efe-55f9-4758-af96-093aaec784b0" d="M154.31,215.08l4.4.1c1.33,0,2.66,0,4.51,0"/><path class="b8cd8efe-55f9-4758-af96-093aaec784b0" d="M156.6,218.75c1.76,0,2.65.05,4.48,0"/><path class="b8cd8efe-55f9-4758-af96-093aaec784b0" d="M174.93.28h16.54c1.72,0,3.41,0,5.08,0l4.9,0h9.4l4.54,0h8.92l4.42,0h8.92l4.54,0h9.39c1.61,0,3.24,0,4.9,0h21.63"/><path class="b8cd8efe-55f9-4758-af96-093aaec784b0" d="M174.93,3.61c2,0,3.88,0,5.75.05l5.49.08c1.8,0,3.55,0,5.28,0s3.41,0,5.08,0,3.32-.11,4.92-.17,3.18-.08,4.74-.08,3.1,0,4.63.06l4.54.1c1.51,0,3,.06,4.49.07s3,0,4.45,0,2.95-.12,4.42-.15,2.95,0,4.44,0l4.5.09,4.57.11c1.54,0,3.09.06,4.65,0s3.13,0,4.71-.12,3.2-.18,4.86-.22,3.34-.06,5.06-.06,3.49,0,5.3.07l5.53.11c1.88,0,3.8.06,5.77.06"/><path class="b8cd8efe-55f9-4758-af96-093aaec784b0" d="M174.93,6.94c2,0,3.88,0,5.74.09l5.49.16c1.79,0,3.54.09,5.26.09s3.42,0,5.09-.08,3.35-.21,4.94-.32,3.16-.15,4.71-.14,3.1,0,4.63.11l4.55.19c1.5.06,3,.11,4.49.13s3,0,4.46-.08,3-.23,4.42-.29,2.95-.06,4.45,0,3,.1,4.52.17,3,.15,4.59.21,3.1.1,4.65.09S250,7.17,251.6,7s3.17-.33,4.81-.41,3.33-.11,5.06-.1,3.49.06,5.3.12l5.55.2c1.89.07,3.82.12,5.79.12"/><path class="b8cd8efe-55f9-4758-af96-093aaec784b0" d="M174.93,10.27c2,0,3.87.06,5.74.13s3.69.16,5.47.24,3.54.12,5.26.13,3.42,0,5.1-.11,3.36-.31,4.94-.48a43.79,43.79,0,0,1,4.7-.2c1.55,0,3.09.07,4.62.15s3,.2,4.55.28,3,.17,4.5.19,3,0,4.48-.11,3-.34,4.41-.43,3-.09,4.45,0,3,.14,4.55.25,3.07.22,4.62.31,3.09.15,4.65.13a36.06,36.06,0,0,0,4.64-.33c1.55-.23,3.13-.49,4.77-.61s3.32-.16,5-.15,3.5.09,5.32.18l5.57.3c1.9.09,3.83.17,5.8.17"/><path class="b8cd8efe-55f9-4758-af96-093aaec784b0" d="M174.93,13.59c2,0,3.87.08,5.73.18s3.68.22,5.47.31,3.53.17,5.25.18,3.42,0,5.1-.15,3.39-.41,5-.62a32.12,32.12,0,0,1,4.68-.28c1.55,0,3.08.1,4.61.21s3,.25,4.56.37,3,.21,4.51.24a37.19,37.19,0,0,0,4.48-.14c1.49-.14,2.95-.44,4.41-.56a36.77,36.77,0,0,1,4.46-.06c1.51.06,3,.18,4.57.32s3.09.3,4.64.42,3.1.19,4.65.17a25.44,25.44,0,0,0,4.61-.44c1.53-.29,3.1-.64,4.72-.8a46.2,46.2,0,0,1,5-.19c1.73,0,3.51.11,5.33.23s3.69.27,5.59.39,3.84.22,5.81.22"/><path class="b8cd8efe-55f9-4758-af96-093aaec784b0" d="M174.93,16.92c2,0,3.87.1,5.73.22s3.67.27,5.45.39,3.52.21,5.25.22a47.9,47.9,0,0,0,5.1-.19c1.69-.15,3.41-.5,5-.77a26.36,26.36,0,0,1,4.67-.34c1.54,0,3.07.12,4.6.26s3.05.31,4.56.46,3,.26,4.52.3a30.8,30.8,0,0,0,4.5-.18c1.49-.17,2.94-.55,4.4-.7a30.2,30.2,0,0,1,4.47-.07c1.51.07,3,.23,4.59.4s3.1.37,4.66.51a42.87,42.87,0,0,0,4.66.22,20.69,20.69,0,0,0,4.57-.55,42.08,42.08,0,0,1,4.68-1,39.19,39.19,0,0,1,5-.24c1.73,0,3.52.14,5.34.29l5.62.49c1.91.15,3.85.27,5.82.27"/><path class="b8cd8efe-55f9-4758-af96-093aaec784b0" d="M174.93,20.25c2,0,3.86.12,5.72.26l5.44.46c1.78.14,3.52.25,5.24.27a41.18,41.18,0,0,0,5.11-.22c1.69-.19,3.43-.61,5-.93a22.81,22.81,0,0,1,4.64-.41c1.54,0,3.08.15,4.6.31s3.05.38,4.56.55,3,.32,4.53.36a26.16,26.16,0,0,0,4.51-.21c1.5-.21,2.95-.66,4.4-.83a25.58,25.58,0,0,1,4.47-.09c1.52.09,3.06.27,4.62.48s3.12.44,4.68.61a36.6,36.6,0,0,0,4.66.26,17.84,17.84,0,0,0,4.54-.65,32.34,32.34,0,0,1,4.63-1.18,30.53,30.53,0,0,1,5-.29c1.73,0,3.52.16,5.35.34s3.72.4,5.64.58,3.86.33,5.83.33"/><path class="b8cd8efe-55f9-4758-af96-093aaec784b0" d="M174.93,23.58c2,0,3.86.13,5.71.3s3.66.38,5.44.54,3.51.29,5.23.31a35,35,0,0,0,5.12-.26c1.69-.22,3.45-.71,5-1.07a19.1,19.1,0,0,1,4.62-.48,39.07,39.07,0,0,1,4.59.36c1.53.2,3.05.43,4.57.64s3,.36,4.54.42a23.54,23.54,0,0,0,4.51-.25c1.51-.24,3-.77,4.41-1a22.16,22.16,0,0,1,4.47-.1c1.52.1,3.07.32,4.64.56s3.13.51,4.7.71a32.11,32.11,0,0,0,4.67.3,14.65,14.65,0,0,0,4.5-.76,28.37,28.37,0,0,1,4.59-1.37,26.37,26.37,0,0,1,5-.34c1.74,0,3.53.19,5.37.4s3.73.46,5.65.68a54,54,0,0,0,5.85.38"/><path class="b8cd8efe-55f9-4758-af96-093aaec784b0" d="M174.93,26.91a55.81,55.81,0,0,1,5.72.34c1.86.19,3.67.42,5.45.6s3.52.33,5.24.36a33.47,33.47,0,0,0,5.11-.3,43.49,43.49,0,0,0,5-1.21,16.79,16.79,0,0,1,4.6-.55,33.84,33.84,0,0,1,4.59.39c1.53.22,3,.48,4.58.71a41.3,41.3,0,0,0,4.55.48,21.41,21.41,0,0,0,4.52-.26c1.51-.26,3-.84,4.4-1.07a20.14,20.14,0,0,1,4.47-.11c1.53.12,3.08.35,4.65.62s3.14.56,4.71.78a28.65,28.65,0,0,0,4.68.33,13.31,13.31,0,0,0,4.49-.83,26.39,26.39,0,0,1,4.55-1.51,24.09,24.09,0,0,1,5-.37c1.73,0,3.53.21,5.38.43s3.74.51,5.67.75a49.26,49.26,0,0,0,5.85.42"/><path class="b8cd8efe-55f9-4758-af96-093aaec784b0" d="M174.93,30.24a51.76,51.76,0,0,1,5.76.37c1.87.2,3.7.45,5.5.65s3.55.35,5.28.38a29.57,29.57,0,0,0,5.08-.32A36.43,36.43,0,0,0,201.41,30a15.14,15.14,0,0,1,4.56-.64,31.15,31.15,0,0,1,4.6.39c1.53.22,3.07.5,4.6.75a44.93,44.93,0,0,0,4.58.53,20.2,20.2,0,0,0,4.53-.23c1.5-.26,2.93-.85,4.37-1.08a19.48,19.48,0,0,1,4.46-.11c1.52.11,3.07.36,4.63.63s3.14.57,4.71.8a28.57,28.57,0,0,0,4.68.33,13.26,13.26,0,0,0,4.52-.85A26.84,26.84,0,0,1,256.21,29a24.64,24.64,0,0,1,5-.37,53.86,53.86,0,0,1,5.38.44c1.85.23,3.75.52,5.67.75a47.54,47.54,0,0,0,5.86.43"/><path class="b8cd8efe-55f9-4758-af96-093aaec784b0" d="M174.93,33.57a50.11,50.11,0,0,1,5.79.39c1.89.22,3.75.49,5.56.71s3.59.38,5.32.41a26.36,26.36,0,0,0,5.05-.35,30,30,0,0,0,4.74-1.42,14.14,14.14,0,0,1,4.53-.74,30.17,30.17,0,0,1,4.61.38c1.54.24,3.09.53,4.63.8a45.89,45.89,0,0,0,4.6.58,19.57,19.57,0,0,0,4.53-.2c1.5-.26,2.91-.86,4.36-1.09a18.74,18.74,0,0,1,4.44-.12c1.51.12,3.06.37,4.62.65s3.13.58,4.7.81a26.58,26.58,0,0,0,4.69.34,13.29,13.29,0,0,0,4.55-.86,25.41,25.41,0,0,1,4.55-1.55,24.09,24.09,0,0,1,5-.37,51.26,51.26,0,0,1,5.38.44c1.84.23,3.74.52,5.67.76a47.54,47.54,0,0,0,5.86.43"/><path class="b8cd8efe-55f9-4758-af96-093aaec784b0" d="M174.93,36.89a46.76,46.76,0,0,1,5.82.43c1.92.24,3.79.52,5.63.76a52.85,52.85,0,0,0,5.34.44,24.33,24.33,0,0,0,5-.38,26,26,0,0,0,4.64-1.53,12.87,12.87,0,0,1,4.48-.83,26.83,26.83,0,0,1,4.62.38c1.55.24,3.11.56,4.67.83a44,44,0,0,0,4.63.64,19,19,0,0,0,4.53-.17c1.49-.25,2.89-.87,4.33-1.1a18.16,18.16,0,0,1,4.43-.12,44.3,44.3,0,0,1,4.6.66c1.56.28,3.13.59,4.7.83a26.6,26.6,0,0,0,4.69.35,13.26,13.26,0,0,0,4.58-.89,25.3,25.3,0,0,1,4.56-1.56,23.93,23.93,0,0,1,5-.38c1.73,0,3.53.22,5.38.45s3.75.52,5.68.76a47.54,47.54,0,0,0,5.86.43"/><path class="b8cd8efe-55f9-4758-af96-093aaec784b0" d="M174.93,40.22a44.21,44.21,0,0,1,5.86.46c1.93.25,3.83.56,5.68.8a46.6,46.6,0,0,0,5.38.47,22.6,22.6,0,0,0,5-.39,23.74,23.74,0,0,0,4.53-1.65,11.83,11.83,0,0,1,4.44-.91,24.36,24.36,0,0,1,4.63.37c1.56.25,3.13.58,4.69.87a45.2,45.2,0,0,0,4.66.69,18.49,18.49,0,0,0,4.53-.14c1.48-.25,2.88-.87,4.31-1.11a18.08,18.08,0,0,1,4.42-.13c1.5.13,3,.39,4.59.68s3.12.61,4.69.85a25.72,25.72,0,0,0,4.7.35,13,13,0,0,0,4.6-.91A25.09,25.09,0,0,1,256.19,39a23.32,23.32,0,0,1,5-.38,48.78,48.78,0,0,1,5.38.45c1.85.23,3.75.53,5.68.77a47.54,47.54,0,0,0,5.86.43"/><path class="b8cd8efe-55f9-4758-af96-093aaec784b0" d="M174.93,43.55a43.18,43.18,0,0,1,5.89.48c2,.27,3.88.6,5.74.86a47.91,47.91,0,0,0,5.42.5,16.69,16.69,0,0,0,9.38-2.17,11.13,11.13,0,0,1,4.4-1,23,23,0,0,1,4.64.37c1.57.25,3.15.6,4.72.91s3.14.59,4.68.74a17.63,17.63,0,0,0,4.54-.11c1.47-.25,2.86-.88,4.29-1.13a17.44,17.44,0,0,1,4.4-.12,44.35,44.35,0,0,1,4.57.69c1.55.29,3.12.62,4.69.86a25.75,25.75,0,0,0,4.7.37,13.28,13.28,0,0,0,4.64-.93,24.68,24.68,0,0,1,4.56-1.59,23.27,23.27,0,0,1,5-.39,51.42,51.42,0,0,1,5.38.46c1.85.23,3.76.53,5.69.77a45.67,45.67,0,0,0,5.86.44"/><path class="b8cd8efe-55f9-4758-af96-093aaec784b0" d="M174.93,46.88a42.37,42.37,0,0,1,5.92.51c2,.29,3.92.63,5.81.91a48.67,48.67,0,0,0,5.45.53,15.31,15.31,0,0,0,9.24-2.31,10.3,10.3,0,0,1,4.36-1.1,22.46,22.46,0,0,1,4.65.36c1.57.27,3.16.63,4.75,1a46.76,46.76,0,0,0,4.71.79,17.13,17.13,0,0,0,4.53-.08c1.47-.24,2.85-.89,4.27-1.14a16.85,16.85,0,0,1,4.38-.12,44.42,44.42,0,0,1,4.57.7c1.54.3,3.1.63,4.67.88a25,25,0,0,0,4.72.37,13,13,0,0,0,4.66-1,25.29,25.29,0,0,1,4.56-1.61,23.27,23.27,0,0,1,5-.38,51.3,51.3,0,0,1,5.39.45c1.85.24,3.75.54,5.69.79a47.55,47.55,0,0,0,5.86.44"/><path class="b8cd8efe-55f9-4758-af96-093aaec784b0" d="M174.93,50.21a40.37,40.37,0,0,1,6,.54c2,.3,4,.66,5.86,1a43.79,43.79,0,0,0,5.49.55,17.67,17.67,0,0,0,4.9-.47,17.39,17.39,0,0,0,4.19-2,9.84,9.84,0,0,1,4.33-1.2,21.16,21.16,0,0,1,4.65.36c1.59.27,3.19.65,4.78,1s3.18.67,4.74.85a16.8,16.8,0,0,0,4.54,0c1.46-.24,2.83-.9,4.25-1.15A16.66,16.66,0,0,1,233,49.5a44.21,44.21,0,0,1,4.55.72c1.54.3,3.1.64,4.67.9a25,25,0,0,0,4.72.37,13,13,0,0,0,4.69-1,24.26,24.26,0,0,1,4.57-1.63,23.22,23.22,0,0,1,5-.39,51.42,51.42,0,0,1,5.38.46c1.86.24,3.76.54,5.69.79a46,46,0,0,0,5.87.45"/><path class="b8cd8efe-55f9-4758-af96-093aaec784b0" d="M174.93,53.54a38.27,38.27,0,0,1,6,.57c2,.32,4,.7,5.91,1a42.78,42.78,0,0,0,5.51.59,16.72,16.72,0,0,0,4.88-.5,16.06,16.06,0,0,0,4.11-2.08,9.23,9.23,0,0,1,4.28-1.28,19.48,19.48,0,0,1,4.65.34c1.59.27,3.21.65,4.81,1s3.21.7,4.77.89a16.5,16.5,0,0,0,4.55,0c1.46-.22,2.82-.88,4.24-1.12a16.34,16.34,0,0,1,4.37-.09,44.43,44.43,0,0,1,4.55.75c1.55.31,3.11.66,4.67.92a24.22,24.22,0,0,0,4.72.36,12.84,12.84,0,0,0,4.68-1,23.17,23.17,0,0,1,4.54-1.69,21.82,21.82,0,0,1,5-.4,49.36,49.36,0,0,1,5.4.48c1.86.25,3.77.56,5.71.81a44.39,44.39,0,0,0,5.88.47"/><path class="b8cd8efe-55f9-4758-af96-093aaec784b0" d="M174.93,56.86a36.45,36.45,0,0,1,6,.61c2,.34,4,.74,5.93,1.07a41.48,41.48,0,0,0,5.53.63,15.88,15.88,0,0,0,4.86-.53,15.75,15.75,0,0,0,4.05-2.19,8.78,8.78,0,0,1,4.22-1.37,19.54,19.54,0,0,1,4.66.29c1.59.27,3.22.66,4.84,1s3.23.72,4.8.92a17.05,17.05,0,0,0,4.56.07c1.46-.2,2.82-.82,4.25-1a16.6,16.6,0,0,1,4.4,0c1.5.17,3,.47,4.57.8s3.11.69,4.68.94a22,22,0,0,0,4.71.32,12,12,0,0,0,4.63-1.15,21.17,21.17,0,0,1,4.47-1.81,20.51,20.51,0,0,1,5-.43,50.42,50.42,0,0,1,5.42.51c1.87.27,3.79.6,5.74.87a41.8,41.8,0,0,0,5.9.49"/><path class="b8cd8efe-55f9-4758-af96-093aaec784b0" d="M174.93,60.19a34.69,34.69,0,0,1,6,.64c2,.36,4,.79,6,1.13a37.69,37.69,0,0,0,5.54.66,14.93,14.93,0,0,0,4.86-.56,14.64,14.64,0,0,0,4-2.3,8.55,8.55,0,0,1,4.16-1.46,18.45,18.45,0,0,1,4.65.26c1.61.26,3.24.65,4.87,1s3.25.73,4.84,1a18.17,18.17,0,0,0,4.58.13c1.46-.18,2.81-.77,4.25-1a16.88,16.88,0,0,1,4.43,0c1.51.19,3,.52,4.59.86s3.12.7,4.69,1a20.62,20.62,0,0,0,4.69.29,11.44,11.44,0,0,0,4.59-1.28,19.18,19.18,0,0,1,4.4-1.91,18.9,18.9,0,0,1,4.94-.46,46.34,46.34,0,0,1,5.44.54c1.88.28,3.82.63,5.78.92a40.8,40.8,0,0,0,5.92.52"/><path class="b8cd8efe-55f9-4758-af96-093aaec784b0" d="M174.93,63.52a34.14,34.14,0,0,1,6,.67c2,.38,4,.83,6,1.19a36.9,36.9,0,0,0,5.56.7,11.11,11.11,0,0,0,8.77-3,8.12,8.12,0,0,1,4.1-1.54,17.62,17.62,0,0,1,4.66.22c1.61.25,3.25.64,4.9,1s3.27.75,4.86,1a18.45,18.45,0,0,0,4.6.19c1.46-.15,2.82-.71,4.27-.88a18,18,0,0,1,4.45.13c1.51.21,3,.56,4.61.91s3.13.73,4.7,1a18.84,18.84,0,0,0,4.67.25,10.91,10.91,0,0,0,4.55-1.39,14.32,14.32,0,0,1,9.25-2.51,41.36,41.36,0,0,1,5.46.57c1.89.29,3.85.67,5.82,1a38.6,38.6,0,0,0,5.94.55"/><path class="b8cd8efe-55f9-4758-af96-093aaec784b0" d="M174.93,66.85a32.55,32.55,0,0,1,6,.7c2,.4,4.06.87,6,1.25a36.13,36.13,0,0,0,5.57.73,13.44,13.44,0,0,0,4.83-.61,14.06,14.06,0,0,0,3.88-2.54,7.83,7.83,0,0,1,4-1.63,17.1,17.1,0,0,1,4.65.19c1.62.25,3.28.63,4.93,1s3.3.77,4.9,1a18.77,18.77,0,0,0,4.62.26c1.46-.12,2.81-.66,4.27-.8a18.27,18.27,0,0,1,4.47.2c1.53.24,3.08.6,4.64,1s3.13.74,4.7,1a18.36,18.36,0,0,0,4.67.2,10.33,10.33,0,0,0,4.5-1.51,16.69,16.69,0,0,1,4.26-2.14,17.28,17.28,0,0,1,4.9-.51,42.19,42.19,0,0,1,5.49.6c1.9.32,3.87.71,5.85,1a37.82,37.82,0,0,0,6,.58"/><path class="b8cd8efe-55f9-4758-af96-093aaec784b0" d="M174.93,70.18a30.48,30.48,0,0,1,6,.74c2.05.41,4.08.9,6,1.3a35.6,35.6,0,0,0,5.59.77,12.64,12.64,0,0,0,4.81-.65,13.3,13.3,0,0,0,3.82-2.65,7.52,7.52,0,0,1,4-1.71,16.71,16.71,0,0,1,4.66.14c1.62.25,3.29.64,5,1s3.33.79,4.94,1.06a20.06,20.06,0,0,0,4.63.32c1.46-.1,2.82-.61,4.28-.72a18.12,18.12,0,0,1,4.5.27c1.53.26,3.09.64,4.66,1s3.14.77,4.71,1a17,17,0,0,0,4.65.17,10.06,10.06,0,0,0,4.46-1.63,15.47,15.47,0,0,1,4.19-2.26,16.11,16.11,0,0,1,4.89-.53,39.49,39.49,0,0,1,5.5.63c1.91.33,3.89.74,5.89,1.08a36,36,0,0,0,6,.61"/><path class="b8cd8efe-55f9-4758-af96-093aaec784b0" d="M174.93,73.51a30.12,30.12,0,0,1,6.07.77c2.05.43,4.09,1,6.06,1.36a32.81,32.81,0,0,0,5.6.8,12.08,12.08,0,0,0,4.81-.67A12.81,12.81,0,0,0,201.22,73a7.27,7.27,0,0,1,3.93-1.79,15.54,15.54,0,0,1,4.65.1c1.63.24,3.31.63,5,1s3.35.8,5,1.09a21,21,0,0,0,4.65.39c1.46-.08,2.81-.56,4.28-.65a19,19,0,0,1,4.53.35c1.54.28,3.1.68,4.68,1.08s3.15.78,4.72,1a15.74,15.74,0,0,0,4.64.13A9.6,9.6,0,0,0,251.67,74a14.51,14.51,0,0,1,4.12-2.36,14.78,14.78,0,0,1,4.87-.56,37.28,37.28,0,0,1,5.52.66c1.93.34,3.92.77,5.93,1.13a35.36,35.36,0,0,0,6,.64"/><path class="b8cd8efe-55f9-4758-af96-093aaec784b0" d="M174.93,76.84a28.93,28.93,0,0,1,6.08.8c2.06.45,4.12,1,6.09,1.43a33.22,33.22,0,0,0,5.62.83,11.61,11.61,0,0,0,4.79-.71,12.34,12.34,0,0,0,3.7-2.88,7,7,0,0,1,3.87-1.88,15.51,15.51,0,0,1,4.65.07c1.63.23,3.32.62,5,1s3.38.82,5,1.13a22,22,0,0,0,4.66.44c1.47,0,2.81-.5,4.29-.56a19.86,19.86,0,0,1,4.56.42c1.54.3,3.12.72,4.7,1.13a47.62,47.62,0,0,0,4.72,1,15.34,15.34,0,0,0,4.63.09,9.44,9.44,0,0,0,4.37-1.87,13.88,13.88,0,0,1,4-2.48,14.36,14.36,0,0,1,4.85-.59,38,38,0,0,1,5.55.69c1.93.37,3.94.82,6,1.19a33.83,33.83,0,0,0,6,.67"/><path class="b8cd8efe-55f9-4758-af96-093aaec784b0" d="M174.93,80.16a30.7,30.7,0,0,1,6.06.75c2,.41,4.08.92,6,1.32a34.57,34.57,0,0,0,5.6.77,12.67,12.67,0,0,0,4.81-.65,13.35,13.35,0,0,0,3.79-2.67,7.51,7.51,0,0,1,3.92-1.74,16.52,16.52,0,0,1,4.65,0c1.63.21,3.31.57,5,.94s3.35.76,5,1a24.76,24.76,0,0,0,4.65.43c1.47,0,2.83-.44,4.31-.49a21.55,21.55,0,0,1,4.55.4c1.55.28,3.11.67,4.69,1s3.15.74,4.71,1a16.35,16.35,0,0,0,4.63.07,9.89,9.89,0,0,0,4.39-1.74,14,14,0,0,1,4.1-2.3,15.57,15.57,0,0,1,4.86-.54,38.49,38.49,0,0,1,5.53.64c1.93.33,3.93.75,5.94,1.1a36.34,36.34,0,0,0,6,.61"/><path class="b8cd8efe-55f9-4758-af96-093aaec784b0" d="M174.93,83.49a35.81,35.81,0,0,1,6,.64c2,.36,4,.79,6,1.14a37.69,37.69,0,0,0,5.54.66,14.66,14.66,0,0,0,4.86-.56,14.88,14.88,0,0,0,3.94-2.29,8.71,8.71,0,0,1,4-1.5,19.09,19.09,0,0,1,4.65,0c1.61.18,3.27.49,4.92.81s3.3.65,4.9.89a26.68,26.68,0,0,0,4.62.37c1.47,0,2.84-.38,4.32-.42a25.22,25.22,0,0,1,4.54.35c1.53.24,3.09.58,4.65.9s3.14.64,4.69.83a18.9,18.9,0,0,0,4.63.06,11.25,11.25,0,0,0,4.45-1.5,15.35,15.35,0,0,1,4.21-2,18,18,0,0,1,4.89-.46,43.76,43.76,0,0,1,5.5.55c1.91.28,3.88.64,5.87.94a40.36,40.36,0,0,0,6,.53"/><path class="b8cd8efe-55f9-4758-af96-093aaec784b0" d="M174.93,86.82a40.76,40.76,0,0,1,6,.54c2,.3,4,.66,5.89,1a43.94,43.94,0,0,0,5.5.55,17.49,17.49,0,0,0,4.89-.47,16.75,16.75,0,0,0,4.1-1.92,10.77,10.77,0,0,1,4.16-1.25,22.63,22.63,0,0,1,4.65,0c1.59.16,3.23.41,4.85.68s3.25.55,4.84.75a31.8,31.8,0,0,0,4.59.31c1.46,0,2.86-.32,4.34-.36a28.8,28.8,0,0,1,4.51.3c1.53.2,3.08.48,4.63.75s3.11.54,4.67.69a22.41,22.41,0,0,0,4.63.06,13.38,13.38,0,0,0,4.49-1.26A18.06,18.06,0,0,1,256,85.51a22.27,22.27,0,0,1,4.92-.39,51,51,0,0,1,5.46.47c1.89.24,3.84.54,5.82.79a49.29,49.29,0,0,0,5.93.44"/><path class="b8cd8efe-55f9-4758-af96-093aaec784b0" d="M174.93,90.15a49.42,49.42,0,0,1,5.93.43c2,.24,3.93.53,5.82.77s3.72.41,5.46.45a23,23,0,0,0,4.93-.38,21.86,21.86,0,0,0,4.25-1.55,13.67,13.67,0,0,1,4.28-1,26.68,26.68,0,0,1,4.64,0c1.59.12,3.2.33,4.8.54s3.2.44,4.76.61a37.7,37.7,0,0,0,4.56.24c1.47,0,2.88-.25,4.36-.28a36.09,36.09,0,0,1,4.5.23c1.52.17,3.06.39,4.6.61s3.09.43,4.64.56a27.55,27.55,0,0,0,4.63,0,16.17,16.17,0,0,0,4.55-1,21.27,21.27,0,0,1,4.43-1.33,27.46,27.46,0,0,1,5-.32c1.74,0,3.55.18,5.42.37s3.8.44,5.76.64a58,58,0,0,0,5.9.36"/><path class="b8cd8efe-55f9-4758-af96-093aaec784b0" d="M174.93,93.48c2,0,3.94.14,5.89.33s3.88.4,5.74.58,3.68.31,5.42.34a30.5,30.5,0,0,0,5-.29,29.33,29.33,0,0,0,4.41-1.18,19.29,19.29,0,0,1,4.4-.76,37.86,37.86,0,0,1,4.64,0c1.57.09,3.16.25,4.73.41s3.15.34,4.7.46,3.06.21,4.53.19,2.89-.19,4.37-.22,3,.06,4.49.18,3,.3,4.57.46,3.07.33,4.62.43a37.65,37.65,0,0,0,4.63,0,21.39,21.39,0,0,0,4.59-.77,28.22,28.22,0,0,1,4.55-1,36.76,36.76,0,0,1,5-.24c1.73,0,3.53.13,5.39.28l5.69.49c1.94.15,3.9.27,5.87.27"/><path class="b8cd8efe-55f9-4758-af96-093aaec784b0" d="M174.93,96.81c2,0,3.92.1,5.85.22s3.82.28,5.67.4,3.64.21,5.37.23a36.19,36.19,0,0,0,9.57-1,27.8,27.8,0,0,1,4.5-.52c1.53-.07,3.09,0,4.64,0s3.13.17,4.68.28,3.1.23,4.62.32,3,.14,4.51.13,2.91-.14,4.38-.15,3,0,4.47.12,3,.2,4.54.32,3.06.22,4.6.28,3.08.09,4.63,0a32,32,0,0,0,4.65-.53,41.83,41.83,0,0,1,4.66-.69c1.61-.13,3.29-.18,5-.16s3.52.09,5.35.19,3.72.23,5.64.33,3.86.19,5.83.19"/><path class="b8cd8efe-55f9-4758-af96-093aaec784b0" d="M174.93,100.13c2,0,3.9.06,5.81.12l5.59.22c1.82.06,3.6.11,5.33.12s3.41,0,5-.1,3.19-.27,4.73-.43,3.08-.25,4.62-.28,3.1,0,4.64,0,3.09.1,4.62.16,3,.12,4.55.16,3,.08,4.47.07,2.93-.07,4.41-.08,3,0,4.45.07,3,.11,4.51.17,3,.12,4.57.15,3.08,0,4.64,0,3.12-.12,4.7-.28,3.14-.3,4.77-.37,3.32-.09,5.05-.08,3.5,0,5.32.1l5.57.18c1.9,0,3.83.09,5.8.09"/><path class="b8cd8efe-55f9-4758-af96-093aaec784b0" d="M174.93,103.46l5.76,0,5.52,0h10.36c1.66,0,3.28,0,4.88-.06l4.74,0c1.56,0,3.11,0,4.64,0l4.55,0,4.49,0h13.3l4.48,0,4.55,0h4.63c1.57,0,3.15,0,4.75,0l4.89,0h5.07l5.29,0,5.51,0h5.77"/><path class="b8cd8efe-55f9-4758-af96-093aaec784b0" d="M.09,42.83q2.76-1,5.26-1.9c1.67-.58,3.27-1.1,4.81-1.59s3-.94,4.47-1.38l4.26-1.31c1.41-.43,2.8-.87,4.2-1.34a38,38,0,0,0,4.26-1.66c1.46-.69,3-1.39,4.57-2.12s3.21-1.48,4.88-2.27,3.56-1.63,5-2.42A46.31,46.31,0,0,1,46,24.75c1.42-.62,2.84-1.17,4.26-1.68s2.85-1,4.29-1.42,2.87-.89,4.33-1.33,2.91-.88,4.38-1.34,3-.93,4.47-1.44,3-1,4.56-1.61,3.1-1.17,4.69-1.81,3.19-1.32,4.82-2,3.28-1.47,5-2.17,3.39-1.35,5.15-2S95.48,6.63,97.31,6l5.61-2"/><path class="b8cd8efe-55f9-4758-af96-093aaec784b0" d="M1.05,45.34q2.73-1,5.22-1.83T11.08,42c1.54-.49,3-1,4.48-1.39l4.26-1.3c1.39-.44,2.77-.88,4.15-1.34s2.76-1,4.16-1.48,2.81-1.1,4.27-1.73,3-1.39,4.53-2.2,3.39-1.7,4.76-2.49a42,42,0,0,1,4.11-2.1c1.37-.61,2.74-1.14,4.11-1.63s2.75-.93,4.13-1.35,2.76-.82,4.16-1.21l4.2-1.2c1.41-.4,2.84-.82,4.27-1.27s2.88-.91,4.35-1.42,2.94-1.05,4.44-1.63,3-1.21,4.56-1.88,3.13-1.38,4.69-2.12,3.15-1.42,4.78-2.06,3.3-1.26,5-1.87,3.44-1.2,5.22-1.8,3.58-1.23,5.42-1.88"/><path class="b8cd8efe-55f9-4758-af96-093aaec784b0" d="M1.89,47.88c1.87-.66,3.66-1.26,5.39-1.83s3.37-1.1,5-1.6L16.9,43l4.41-1.36c1.45-.46,2.87-.92,4.29-1.41s2.83-1,4.26-1.54,2.88-1.15,4.36-1.81,3-1.38,4.56-2.19,3.09-1.72,4.48-2.47a37.86,37.86,0,0,1,4.15-2c1.38-.56,2.77-1.05,4.15-1.49s2.78-.85,4.18-1.24l4.2-1.12,4.25-1.14c1.43-.39,2.87-.8,4.32-1.25s2.91-.92,4.39-1.45,3-1.09,4.49-1.71,3-1.29,4.61-2,3.12-1.54,4.7-2.25,3.19-1.38,4.84-2,3.35-1.21,5.07-1.8l5.28-1.74q2.7-.87,5.49-1.81"/><path class="b8cd8efe-55f9-4758-af96-093aaec784b0" d="M2.69,50.44c1.91-.66,3.74-1.27,5.52-1.84s3.47-1.12,5.12-1.63l4.81-1.48c1.55-.48,3.07-1,4.56-1.43s3-1,4.42-1.46,2.91-1,4.37-1.61,2.94-1.19,4.44-1.87,3-1.43,4.61-2.25,2.89-1.59,4.3-2.25,2.79-1.27,4.19-1.81,2.79-1.05,4.19-1.45,2.81-.77,4.22-1.12l4.25-1c1.43-.35,2.86-.71,4.3-1.1s2.9-.8,4.36-1.25,3-1,4.44-1.51,3-1.17,4.54-1.84,3.08-1.41,4.66-2.21,3.1-1.58,4.7-2.26,3.24-1.31,4.91-1.91S97,16,98.73,15.42l5.35-1.66c1.81-.57,3.66-1.14,5.55-1.75"/><path class="b8cd8efe-55f9-4758-af96-093aaec784b0" d="M3.48,53q2.91-1,5.63-1.86l5.26-1.66L19.31,48c1.61-.49,3.17-1,4.71-1.48s3-1,4.54-1.52,3-1.07,4.49-1.67,3-1.23,4.52-1.92,3.14-1.52,4.57-2.26,2.86-1.39,4.28-2,2.84-1.11,4.25-1.59,2.82-.91,4.23-1.32,2.83-.79,4.25-1.17,2.86-.71,4.3-1,2.88-.69,4.34-1.08,2.93-.81,4.41-1.29,3-1,4.49-1.61,3-1.27,4.58-2,3.12-1.62,4.66-2.42,3.13-1.5,4.76-2.14,3.28-1.23,5-1.79,3.43-1.08,5.2-1.6l5.4-1.58c1.84-.54,3.71-1.1,5.61-1.7"/><path class="b8cd8efe-55f9-4758-af96-093aaec784b0" d="M4.33,55.53C6.21,54.9,8,54.31,9.81,53.74S13.3,52.63,15,52.11l4.89-1.52c1.59-.49,3.13-1,4.66-1.46s3-1,4.49-1.49S32,46.6,33.42,46s2.93-1.16,4.41-1.81,3-1.39,4.4-2.07,2.79-1.27,4.17-1.8,2.75-1,4.12-1.46,2.74-.84,4.11-1.21,2.73-.73,4.1-1.08l4.13-1c1.38-.35,2.77-.71,4.17-1.09s2.81-.78,4.23-1.21,2.85-.89,4.29-1.43S78.46,30.7,79.93,30s3-1.45,4.47-2.3,2.94-1.61,4.46-2.29,3.07-1.28,4.66-1.84S96.74,22.52,98.4,22s3.34-1,5.06-1.42,3.47-.94,5.25-1.44,3.59-1,5.42-1.6"/><path class="b8cd8efe-55f9-4758-af96-093aaec784b0" d="M5.28,58l5.52-1.8L16,54.58,21,53l4.77-1.51c1.56-.5,3.09-1,4.6-1.53s3-1.06,4.51-1.63,3-1.18,4.49-1.84,3-1.36,4.37-2S46.58,43.46,48,43s2.78-.89,4.17-1.27,2.76-.75,4.14-1.09,2.77-.68,4.15-1l4.17-1c1.39-.36,2.8-.73,4.21-1.13s2.83-.85,4.27-1.34,2.88-1,4.34-1.65,2.93-1.29,4.42-2.07,3-1.71,4.44-2.51a42.38,42.38,0,0,1,4.53-2.12c1.54-.62,3.13-1.18,4.74-1.68s3.26-1,4.94-1.42,3.39-.88,5.13-1.32,3.5-.9,5.29-1.39,3.62-1,5.46-1.59"/><path class="b8cd8efe-55f9-4758-af96-093aaec784b0" d="M6.36,60.48c1.87-.62,3.72-1.22,5.52-1.8s3.57-1.13,5.29-1.67l5.06-1.58,4.86-1.53c1.59-.51,3.15-1,4.7-1.55s3.07-1.08,4.6-1.66,3-1.19,4.56-1.85,2.92-1.23,4.35-1.74,2.85-1,4.26-1.37,2.81-.77,4.21-1.12,2.79-.67,4.19-1l4.19-1c1.39-.33,2.8-.68,4.21-1s2.82-.77,4.25-1.21,2.86-.94,4.31-1.49S77.83,37.73,79.3,37s3-1.48,4.47-2.38,2.92-1.78,4.42-2.52a44.39,44.39,0,0,1,4.61-1.93c1.57-.57,3.17-1.06,4.81-1.52s3.31-.88,5-1.29l5.18-1.22c1.75-.42,3.53-.86,5.34-1.35s3.63-1,5.48-1.63"/><path class="b8cd8efe-55f9-4758-af96-093aaec784b0" d="M7.56,62.9c1.88-.62,3.73-1.24,5.53-1.82s3.57-1.14,5.31-1.68l5.11-1.59c1.67-.52,3.31-1,4.92-1.55s3.2-1,4.78-1.56,3.12-1.08,4.67-1.66,3.1-1.22,4.58-1.79,2.94-1.07,4.39-1.51,2.87-.83,4.3-1.18,2.84-.69,4.25-1l4.22-.93c1.41-.31,2.82-.62,4.23-1s2.83-.7,4.25-1.1,2.85-.84,4.3-1.34,2.89-1,4.35-1.68,2.94-1.35,4.43-2.15,3-1.8,4.46-2.68a35.39,35.39,0,0,1,4.44-2.32,46.87,46.87,0,0,1,4.68-1.76c1.6-.5,3.26-.92,4.92-1.33s3.35-.78,5.07-1.16S108.21,29.4,110,29s3.56-.85,5.37-1.35,3.64-1.06,5.49-1.71"/><path class="b8cd8efe-55f9-4758-af96-093aaec784b0" d="M8.76,65.34l5.37-1.75L19.3,61.9c1.69-.55,3.33-1.06,4.95-1.56L29,58.86q2.36-.73,4.65-1.49c1.54-.5,3.05-1,4.56-1.54s3-1.13,4.46-1.63,2.87-1,4.28-1.34,2.8-.74,4.19-1.06,2.76-.61,4.13-.9l4.1-.85c1.36-.28,2.73-.57,4.09-.89s2.74-.65,4.11-1,2.75-.8,4.14-1.27,2.78-1,4.19-1.6,2.82-1.27,4.25-2,2.88-1.62,4.34-2.58a40.12,40.12,0,0,1,4.16-2.47,40.59,40.59,0,0,1,4.39-1.89c1.5-.54,3-1,4.61-1.43s3.17-.77,4.81-1.1,3.3-.64,5-.95,3.39-.64,5.1-1,3.44-.83,5.18-1.35,3.51-1.1,5.28-1.79"/><path class="b8cd8efe-55f9-4758-af96-093aaec784b0" d="M10,67.77,15.38,66l5.22-1.67,5-1.62c1.65-.53,3.27-1.06,4.85-1.55s3.14-1,4.68-1.45,3.08-1,4.6-1.5,3-1.05,4.46-1.48,2.89-.8,4.31-1.13,2.83-.64,4.23-.92l4.17-.81c1.38-.27,2.76-.53,4.13-.82s2.76-.59,4.13-.92,2.76-.71,4.15-1.13,2.78-.89,4.19-1.42,2.81-1.14,4.23-1.83,2.86-1.46,4.31-2.34,2.87-1.92,4.24-2.78a35.77,35.77,0,0,1,4.23-2.25A40.46,40.46,0,0,1,95,38.7c1.52-.49,3.08-.91,4.67-1.29s3.21-.7,4.86-1l5-.89c1.7-.31,3.42-.62,5.16-1s3.49-.79,5.24-1.31a45.07,45.07,0,0,0,5.25-2"/><path class="b8cd8efe-55f9-4758-af96-093aaec784b0" d="M11.17,70.21l5.47-1.73,5.25-1.67L27,65.21l4.91-1.55,4.75-1.51,4.61-1.46c1.52-.49,3-.9,4.48-1.26s2.91-.67,4.35-1,2.85-.54,4.26-.8l4.2-.75c1.39-.26,2.78-.52,4.17-.82s2.78-.62,4.18-1,2.78-.78,4.19-1.25,2.81-1,4.23-1.63,2.84-1.3,4.28-2.09a51.16,51.16,0,0,0,4.37-2.69c1.47-1,2.73-1.93,4.13-2.71a36.63,36.63,0,0,1,4.29-2.05,43.71,43.71,0,0,1,4.52-1.54c1.54-.44,3.12-.82,4.73-1.16s3.24-.63,4.91-.92l5.07-.86c1.71-.31,3.44-.63,5.18-1s3.5-.85,5.26-1.43a38.21,38.21,0,0,0,5.26-2.14"/><path class="b8cd8efe-55f9-4758-af96-093aaec784b0" d="M12.38,72.64l5.51-1.72,5.3-1.65,5.12-1.59,4.94-1.54L38,64.64c1.57-.49,3.13-1,4.65-1.42s3-.76,4.51-1,2.94-.54,4.39-.79l4.29-.7c1.42-.24,2.83-.47,4.24-.73s2.81-.54,4.21-.85,2.81-.68,4.22-1.09,2.81-.88,4.23-1.42,2.85-1.16,4.28-1.86,2.88-1.51,4.34-2.42,3-2,4.3-3a33.74,33.74,0,0,1,4.14-2.47A39.93,39.93,0,0,1,94.2,45c1.5-.53,3-1,4.59-1.37s3.16-.73,4.78-1,3.28-.57,5-.85,3.39-.54,5.11-.84,3.46-.65,5.21-1.07a48.26,48.26,0,0,0,5.26-1.56c1.76-.64,3.47-1.47,5.31-2.35"/><path class="b8cd8efe-55f9-4758-af96-093aaec784b0" d="M13.59,75.07l5.55-1.7,5.35-1.64,5.16-1.59,5-1.53,4.84-1.48c1.58-.49,3.15-1,4.69-1.34s3.05-.67,4.54-.92,3-.46,4.42-.65,2.9-.36,4.33-.53,2.85-.45,4.27-.72,2.84-.57,4.25-.92,2.84-.75,4.26-1.22,2.85-1,4.28-1.63a47.67,47.67,0,0,0,8.74-4.92c1.48-1,2.78-2.1,4.15-3a32.89,32.89,0,0,1,4.21-2.26,42.19,42.19,0,0,1,4.44-1.67c1.51-.47,3.06-.87,4.65-1.22s3.2-.65,4.84-.93,3.31-.52,5-.78,3.41-.53,5.14-.85,3.48-.68,5.23-1.14a45.47,45.47,0,0,0,5.27-1.71c1.75-.71,3.55-1.6,5.42-2.39"/><path class="b8cd8efe-55f9-4758-af96-093aaec784b0" d="M14.79,77.51l5.6-1.7,5.4-1.63L31,72.61l5-1.52,4.87-1.47c1.6-.49,3.18-.89,4.73-1.22s3.07-.6,4.58-.82,3-.42,4.46-.6,2.92-.35,4.37-.54,2.88-.39,4.31-.63,2.85-.52,4.27-.86a35.8,35.8,0,0,0,4.3-1.39,46.28,46.28,0,0,0,4.34-1.88,44.38,44.38,0,0,0,4.39-2.47,51.94,51.94,0,0,0,4.41-3.14,32.58,32.58,0,0,1,4-2.72,33.62,33.62,0,0,1,4.29-2,42.51,42.51,0,0,1,4.51-1.49c1.54-.42,3.11-.77,4.71-1.08s3.24-.58,4.9-.83l5.06-.74c1.7-.25,3.43-.53,5.17-.86s3.5-.73,5.25-1.23a42.39,42.39,0,0,0,5.27-1.89Q131,42,133.81,40.92"/><path class="b8cd8efe-55f9-4758-af96-093aaec784b0" d="M16,79.94l5.43-1.62,5.25-1.56,5.06-1.5,4.89-1.46,4.75-1.42c1.56-.45,3.1-.82,4.61-1.13s3-.56,4.48-.78,2.92-.4,4.36-.58l4.27-.52c1.41-.18,2.81-.38,4.2-.61s2.78-.5,4.17-.82,2.77-.71,4.15-1.17a41.24,41.24,0,0,0,4.18-1.66A37.15,37.15,0,0,0,80,62.79a48.55,48.55,0,0,0,4.32-3.06,43.79,43.79,0,0,1,3.87-2.84,32.19,32.19,0,0,1,4.06-2.14,37.7,37.7,0,0,1,4.27-1.59c1.46-.45,3-.83,4.46-1.15s3.07-.6,4.65-.85,3.17-.47,4.79-.69,3.27-.44,4.93-.69,3.33-.55,5-.91a50.64,50.64,0,0,0,5.07-1.34c1.69-.55,3.38-1.27,5.15-2s3.56-1.35,5.4-2"/><path class="b8cd8efe-55f9-4758-af96-093aaec784b0" d="M17.2,82.38l5.49-1.61L28,79.22l5.1-1.5L38,76.27c1.62-.47,3.22-1,4.79-1.37s3.12-.74,4.65-1,3-.51,4.51-.71,2.95-.38,4.4-.55,2.89-.35,4.31-.55,2.84-.42,4.25-.68,2.81-.57,4.22-.94a42.53,42.53,0,0,0,4.2-1.34,39.74,39.74,0,0,0,4.22-1.87,40.71,40.71,0,0,0,4.29-2.56c1.44-1,2.87-2.2,4.14-3.18a32,32,0,0,1,3.91-2.6A33.8,33.8,0,0,1,94,57a42.28,42.28,0,0,1,4.34-1.41c1.48-.39,3-.72,4.53-1s3.11-.52,4.7-.74,3.21-.42,4.85-.63,3.29-.43,5-.69,3.35-.57,5-1a44.07,44.07,0,0,0,5.07-1.48c1.7-.61,3.46-1.28,5.24-1.92s3.6-1.26,5.46-1.87"/><path class="b8cd8efe-55f9-4758-af96-093aaec784b0" d="M18.41,84.81l5.53-1.6,5.33-1.54,5.14-1.48,5-1.44c1.63-.47,3.24-.94,4.83-1.3s3.14-.66,4.68-.91,3.06-.46,4.55-.65l4.45-.54c1.46-.19,2.92-.37,4.36-.59s2.87-.47,4.29-.77,2.84-.65,4.26-1.07,2.83-.93,4.25-1.52a41.13,41.13,0,0,0,4.27-2.11,40,40,0,0,0,4.32-2.84c1.46-1.08,2.66-2.12,4-3a35.89,35.89,0,0,1,4-2.32,44.32,44.32,0,0,1,4.19-1.79A37.57,37.57,0,0,1,100.2,58c1.51-.34,3-.62,4.6-.86s3.15-.45,4.76-.65,3.25-.37,4.9-.58,3.32-.42,5-.7,3.37-.61,5.06-1,3.38-1,5.11-1.6,3.51-1.2,5.31-1.8,3.63-1.19,5.51-1.77"/><path class="b8cd8efe-55f9-4758-af96-093aaec784b0" d="M19.61,87.24l5.58-1.58,5.37-1.53,5.19-1.47,5-1.43q2.48-.7,4.87-1.2c1.59-.33,3.17-.59,4.72-.82s3.08-.42,4.6-.61,3-.36,4.48-.56,3-.39,4.41-.64,2.89-.53,4.33-.87,2.87-.74,4.3-1.22a40.31,40.31,0,0,0,4.29-1.71,40.77,40.77,0,0,0,4.31-2.35c1.45-.9,3-2.06,4.27-3a31.41,31.41,0,0,1,3.94-2.63,35.53,35.53,0,0,1,4.11-2A42.86,42.86,0,0,1,97.69,62c1.46-.45,2.94-.83,4.45-1.17s3-.64,4.61-.91,3.15-.52,4.77-.69,3.28-.35,5-.55,3.34-.43,5-.72,3.39-.66,5.08-1.13,3.42-1.07,5.17-1.63l5.36-1.69q2.73-.86,5.56-1.7"/><path class="b8cd8efe-55f9-4758-af96-093aaec784b0" d="M20.82,89.68l5.62-1.58,5.41-1.51,5.24-1.47c1.71-.48,3.4-1,5.06-1.41s3.29-.78,4.91-1.07,3.2-.54,4.76-.75,3.12-.41,4.64-.59,3-.37,4.53-.58,3-.44,4.45-.72,2.93-.59,4.38-1,2.89-.84,4.34-1.38a41.86,41.86,0,0,0,4.33-1.92,42.52,42.52,0,0,0,4.34-2.6c1.46-1,2.79-2.11,4.11-3a34.19,34.19,0,0,1,4-2.31,41.55,41.55,0,0,1,4.22-1.73c1.43-.5,2.89-.92,4.37-1.3s3-.69,4.53-1,3.09-.54,4.67-.78l4.8-.71c1.63-.23,3.27-.47,4.93-.74s3.34-.55,5-.87,3.39-.74,5.1-1.24l5.22-1.56,5.41-1.63,5.61-1.64"/><path class="b8cd8efe-55f9-4758-af96-093aaec784b0" d="M22,92.11l5.67-1.56L33.15,89l5.27-1.45c1.73-.48,3.43-1,5.11-1.36s3.32-.7,4.95-1,3.23-.49,4.81-.7L58,84c1.54-.19,3.06-.39,4.57-.62s3-.49,4.49-.8,2.95-.67,4.41-1.11a40.83,40.83,0,0,0,4.38-1.55,41.87,41.87,0,0,0,4.37-2.14,42.56,42.56,0,0,0,4.38-2.87,35.19,35.19,0,0,1,4-2.67,34.34,34.34,0,0,1,4.15-2A43.75,43.75,0,0,1,97,68.75c1.47-.41,2.95-.77,4.46-1.08s3-.58,4.6-.82,3.12-.48,4.72-.7l4.84-.7c1.63-.25,3.28-.52,4.94-.83s3.34-.67,5-1.1,3.39-.94,5.11-1.42,3.49-.94,5.27-1.46l5.46-1.58,5.66-1.62"/><path class="b8cd8efe-55f9-4758-af96-093aaec784b0" d="M23.23,94.55l5.5-1.5L34,91.61l5.14-1.4c1.68-.46,3.34-.91,5-1.27S47.4,88.29,49,88s3.16-.46,4.71-.66l4.58-.57c1.51-.19,3-.39,4.47-.61s2.94-.48,4.39-.78,2.88-.65,4.31-1.07a43.93,43.93,0,0,0,4.26-1.48,40.39,40.39,0,0,0,4.23-2,42.2,42.2,0,0,0,4.24-2.66,44.79,44.79,0,0,1,3.92-2.63,33.66,33.66,0,0,1,4-1.94,40.77,40.77,0,0,1,4.16-1.42c1.41-.41,2.84-.75,4.29-1s2.92-.55,4.4-.79,3-.44,4.52-.65,3.06-.41,4.62-.64,3.12-.47,4.7-.76,3.18-.61,4.78-1,3.19-.85,4.83-1.38,3.31-1,5-1.5,3.4-.92,5.14-1.36l5.29-1.34c1.79-.45,3.62-1,5.49-1.51"/><path class="b8cd8efe-55f9-4758-af96-093aaec784b0" d="M24.43,97,30,95.5l5.35-1.44,5.18-1.38c1.7-.46,3.37-.86,5-1.18s3.28-.6,4.88-.84,3.19-.43,4.75-.63l4.63-.58c1.52-.2,3-.42,4.51-.66s3-.54,4.42-.88,2.91-.73,4.35-1.2a40.15,40.15,0,0,0,4.29-1.64,41.14,41.14,0,0,0,4.26-2.21C83,82,84.47,81,85.77,80.07a31.29,31.29,0,0,1,4-2.28,38.05,38.05,0,0,1,4.12-1.65c1.39-.46,2.81-.85,4.24-1.18s2.89-.61,4.36-.85,3-.46,4.47-.66,3-.4,4.56-.6,3.08-.42,4.64-.67,3.14-.54,4.72-.88,3.17-.75,4.76-1.24,3.21-1.1,4.87-1.65,3.35-1,5.06-1.51,3.44-.9,5.19-1.34l5.35-1.3q2.72-.66,5.51-1.36"/><path class="b8cd8efe-55f9-4758-af96-093aaec784b0" d="M25.64,99.41l5.59-1.47,5.4-1.42c1.76-.47,3.5-.94,5.21-1.37s3.4-.78,5.07-1.07,3.31-.54,4.93-.76,3.21-.42,4.79-.62l4.67-.62c1.54-.22,3.06-.46,4.56-.73s3-.6,4.45-1,2.93-.81,4.38-1.34A42.21,42.21,0,0,0,79,87.21a39.43,39.43,0,0,0,4.28-2.43c1.42-.92,2.73-1.9,4.06-2.67a29.91,29.91,0,0,1,4.09-2,37,37,0,0,1,4.21-1.38q2.13-.57,4.32-1c1.46-.27,2.93-.5,4.42-.7s3-.39,4.52-.58,3-.37,4.59-.59,3.1-.46,4.67-.75,3.13-.64,4.71-1.07a46.39,46.39,0,0,0,4.73-1.53c1.58-.61,3.28-1.25,5-1.78s3.39-1,5.11-1.46,3.48-.87,5.26-1.28l5.39-1.23c1.83-.42,3.68-.84,5.56-1.29"/><path class="b8cd8efe-55f9-4758-af96-093aaec784b0" d="M26.84,101.85l5.64-1.46L37.92,99c1.78-.46,3.53-.94,5.26-1.33s3.43-.69,5.11-1,3.34-.49,5-.69l4.84-.6c1.59-.2,3.16-.41,4.71-.65s3.08-.52,4.6-.84,3-.7,4.49-1.12,2.95-.91,4.41-1.49a42.05,42.05,0,0,0,4.33-2,45.5,45.5,0,0,0,4.28-2.64,29.87,29.87,0,0,1,4-2.35,34.13,34.13,0,0,1,4.18-1.64,43.18,43.18,0,0,1,4.3-1.13c1.44-.31,2.91-.56,4.39-.77s3-.4,4.48-.58,3-.34,4.56-.53,3.07-.39,4.62-.63,3.1-.54,4.67-.9,3.12-.79,4.69-1.31,3.12-1.23,4.78-1.88,3.34-1.22,5-1.72,3.43-1,5.18-1.37,3.51-.8,5.3-1.18l5.45-1.13c1.84-.39,3.7-.79,5.59-1.22"/><path class="b8cd8efe-55f9-4758-af96-093aaec784b0" d="M28.05,104.28l5.68-1.45,5.48-1.4c1.8-.46,3.56-.91,5.3-1.26s3.47-.62,5.16-.86,3.37-.43,5-.63l4.88-.58c1.6-.21,3.18-.43,4.75-.69s3.1-.56,4.63-.91,3-.77,4.52-1.26,3-1,4.44-1.7a46,46,0,0,0,4.36-2.23c1.44-.85,2.83-1.86,4.2-2.66a29.28,29.28,0,0,1,4.15-2,36.64,36.64,0,0,1,4.28-1.36c1.44-.36,2.89-.65,4.37-.9s3-.44,4.45-.61,3-.33,4.54-.49,3-.33,4.59-.53,3.08-.44,4.63-.73,3.11-.65,4.66-1.1a41.25,41.25,0,0,0,4.67-1.64c1.55-.66,3.22-1.45,4.9-2.07s3.38-1.13,5.1-1.6,3.46-.86,5.23-1.23,3.54-.71,5.35-1l5.48-1c1.85-.36,3.72-.73,5.62-1.14"/><path class="b8cd8efe-55f9-4758-af96-093aaec784b0" d="M29.25,106.72l5.53-1.39L40.11,104c1.75-.44,3.47-.84,5.18-1.15s3.38-.56,5-.78,3.29-.4,4.91-.58,3.2-.35,4.76-.55,3.12-.41,4.65-.66,3-.55,4.52-.89,3-.75,4.42-1.23a44.71,44.71,0,0,0,4.33-1.65,42.49,42.49,0,0,0,4.25-2.16c1.4-.82,2.77-1.81,4.1-2.59a25.06,25.06,0,0,1,4-1.95,35,35,0,0,1,4.16-1.28c1.4-.35,2.82-.62,4.24-.85s2.87-.4,4.32-.56,2.91-.3,4.38-.44,2.94-.29,4.42-.46,3-.38,4.46-.64,3-.58,4.48-1a41,41,0,0,0,4.47-1.48c1.49-.59,3-1.39,4.58-2.09a50.42,50.42,0,0,1,4.88-1.81c1.65-.51,3.31-.94,5-1.32s3.38-.7,5.1-1,3.45-.59,5.21-.87,3.53-.57,5.32-.88,3.6-.65,5.43-1"/><path class="b8cd8efe-55f9-4758-af96-093aaec784b0" d="M30.46,109.15,36,107.77l5.38-1.33c1.76-.43,3.51-.77,5.22-1s3.42-.5,5.09-.7l4.94-.54c1.63-.17,3.23-.35,4.81-.55s3.14-.44,4.68-.72,3-.6,4.55-1,3-.84,4.45-1.37a41.78,41.78,0,0,0,4.34-1.84,40.47,40.47,0,0,0,4.27-2.4c1.4-.9,2.7-1.79,4-2.48a28.47,28.47,0,0,1,4.13-1.69,33.31,33.31,0,0,1,4.24-1.07c1.43-.27,2.87-.47,4.33-.61s2.92-.25,4.4-.33,2.94-.21,4.42-.35,3-.3,4.45-.5,3-.46,4.46-.78a41.24,41.24,0,0,0,4.47-1.22,34.76,34.76,0,0,0,4.44-1.84c1.47-.74,3.11-1.59,4.74-2.23a44.59,44.59,0,0,1,4.94-1.63c1.66-.45,3.34-.81,5-1.13s3.41-.59,5.14-.84l5.24-.73c1.76-.24,3.54-.49,5.33-.78s3.61-.62,5.43-1"/><path class="b8cd8efe-55f9-4758-af96-093aaec784b0" d="M31.66,111.58l5.61-1.37c1.84-.44,3.64-.91,5.42-1.3s3.54-.68,5.27-.92,3.45-.44,5.13-.62l5-.52c1.64-.17,3.25-.35,4.84-.57s3.16-.47,4.71-.78,3.08-.67,4.59-1.1a46,46,0,0,0,4.46-1.52,42.07,42.07,0,0,0,4.37-2c1.43-.78,2.89-1.74,4.23-2.62A28.12,28.12,0,0,1,89.37,96a29.92,29.92,0,0,1,4.2-1.47,39.6,39.6,0,0,1,4.3-.91c1.45-.22,2.91-.38,4.38-.51s3-.2,4.44-.28,3-.15,4.48-.25,3-.22,4.5-.41a33.07,33.07,0,0,0,4.48-.86,34.37,34.37,0,0,0,4.44-1.54c1.47-.62,2.87-1.44,4.48-2.27A37.11,37.11,0,0,1,134,85.4,46.3,46.3,0,0,1,139,84c1.68-.38,3.37-.68,5.09-.94s3.43-.46,5.17-.66,3.49-.38,5.26-.59,3.54-.43,5.33-.71,3.59-.61,5.41-1"/><path class="b8cd8efe-55f9-4758-af96-093aaec784b0" d="M32.87,114l5.65-1.36c1.85-.45,3.67-.9,5.46-1.24s3.58-.6,5.33-.82,3.47-.39,5.17-.56,3.38-.32,5-.5,3.28-.37,4.88-.61,3.18-.52,4.74-.86,3.09-.74,4.61-1.22a44.31,44.31,0,0,0,4.48-1.71,39.64,39.64,0,0,0,4.38-2.27c1.44-.86,2.81-1.88,4.18-2.66A28,28,0,0,1,91,98.26,32.66,32.66,0,0,1,95.22,97c1.44-.33,2.89-.58,4.36-.77s2.94-.32,4.43-.43,3-.18,4.48-.26,3-.17,4.5-.29,3-.28,4.52-.52a37.53,37.53,0,0,0,4.49-1A26.82,26.82,0,0,0,126.43,92c1.47-.73,3-1.73,4.68-2.49a34.41,34.41,0,0,1,4.94-1.86,47.2,47.2,0,0,1,5-1.19c1.7-.3,3.41-.54,5.13-.73s3.45-.34,5.2-.49,3.5-.29,5.26-.47,3.53-.39,5.32-.67,3.56-.62,5.36-1.07"/><path class="b8cd8efe-55f9-4758-af96-093aaec784b0" d="M34.08,116.45l5.69-1.35c1.86-.44,3.7-.85,5.51-1.15s3.61-.53,5.37-.72,3.51-.35,5.22-.51,3.41-.31,5.07-.5,3.3-.4,4.91-.66,3.21-.57,4.77-1a46.45,46.45,0,0,0,4.63-1.38,40.93,40.93,0,0,0,8.89-4.42,37.39,37.39,0,0,1,4.16-2.51,30.69,30.69,0,0,1,4.24-1.73,36.78,36.78,0,0,1,4.34-1.1c1.46-.29,2.93-.49,4.41-.66s3-.27,4.47-.37l4.52-.26c1.51-.09,3-.19,4.53-.34s3-.35,4.52-.64a31.65,31.65,0,0,0,4.5-1.16,29.37,29.37,0,0,0,4.43-2,48.15,48.15,0,0,1,4.86-2.24,50.22,50.22,0,0,1,5-1.65c1.69-.46,3.4-.82,5.12-1.12s3.44-.44,5.17-.57,3.47-.22,5.21-.33,3.5-.22,5.26-.39,3.52-.37,5.28-.67a48.62,48.62,0,0,0,5.3-1.2"/><path class="b8cd8efe-55f9-4758-af96-093aaec784b0" d="M35.28,118.89,41,117.55c1.88-.44,3.74-.78,5.57-1s3.64-.46,5.42-.63,3.54-.32,5.26-.48,3.43-.31,5.11-.51,3.32-.43,4.95-.72,3.22-.64,4.79-1.07a46,46,0,0,0,4.65-1.54,41,41,0,0,0,4.51-2.12c1.49-.82,3-1.84,4.34-2.73a30.15,30.15,0,0,1,4.21-2.25,34.18,34.18,0,0,1,4.32-1.52,41.54,41.54,0,0,1,4.4-1c1.48-.25,3-.43,4.47-.56s3-.24,4.51-.33l4.55-.28c1.51-.1,3-.23,4.55-.41a44.14,44.14,0,0,0,4.53-.76,30,30,0,0,0,4.5-1.34c1.48-.57,3-1.39,4.59-2.1a48.91,48.91,0,0,1,4.88-1.86,51.5,51.5,0,0,1,5-1.36c1.69-.38,3.4-.68,5.12-.92s3.47-.42,5.22-.56,3.52-.26,5.29-.36,3.52-.21,5.26-.37a51.84,51.84,0,0,0,5.23-.75,36.94,36.94,0,0,0,5.21-1.41"/></g></g></svg>