<svg xmlns="http://www.w3.org/2000/svg" viewBox="0 0 386.63 147.65"><defs><style>.bc1abbe8-ae81-42a7-a656-41c77e861774{fill:none;stroke:#000;stroke-linecap:round;stroke-linejoin:round;}</style></defs><title>Risorsa 2</title><g id="bf5723d4-14e3-4e3c-9cf8-0ca346210dbf" data-name="Livello 2"><g id="ed730c74-aaf4-4953-ac6d-384c75a517e2" data-name="Livello 1"><path class="bc1abbe8-ae81-42a7-a656-41c77e861774" d="M99.22,61.42C94.5,51.29,86.38,43.19,75.82,40.21a92.14,92.14,0,0,0-14.94-3.09,24.32,24.32,0,0,1-15.29-7.37c-6.3-6.7-21.22-1.83-22.81,7.16-.56,3.19-.79,7.52-6.41,6.69C15,43.39,14,45.33,13.76,47.42c-.35,3.23-.92,6.71-3.88,8.4-3.62.72-4.62-7.73-9.38-1.26A44.2,44.2,0,0,1,5.33,59c.91,1.1,2.12,1.07,3.09,1.35,4.83,1.39,6.27,2.07,8,4.59"/><path class="bc1abbe8-ae81-42a7-a656-41c77e861774" d="M294.22,64.91c-1-1.5-3.35-3.8-4.49-5.49,4.63-7.37,14.25-8.81,19.22-16.7-1.43-4.08,1.41-6.52,5.45-8.11,7.09-2.79,13.41-7.27,21-9.1,5-1.21,9.88-1.9,14.49.64C356.14,29.61,362,33.81,368.44,37c7.43,3.7,11.1,9.71,14.76,16.94,5.75,11.38,2.09,20.87-2.86,30.63-2.66,5.27-7.46,8.82-11.41,13.06-4.29,4.59-7.31,9.77-7.14,16.47.07,2.8,1.42,5.1,2.32,7.41,1,2.49-.71.72.78,7.09.57,2.43-2.59,0-2.43,4.81-8.21-7.29-10.43-24.84-3.51-33.26,4.86-5.92,9.53-12.09,15.94-16.55"/><path class="bc1abbe8-ae81-42a7-a656-41c77e861774" d="M147.3,76.6c4.3,6.22,4.2,13.45,4.41,20.5.18,5.76-2.45,8.67-7.93,9.39-1.35.18-2.37,1-2.38,1.61-.14,7.14-4,13.7-3.16,21,.19,1.63.19,3.32,2.06,3.41,1.64.07,2,1.19,2.45,2.11,2.1,4.2,5.37,5.64,9.54,4,1.11-.44,2.11-.84,2.07-2.49,0-1.91-.65-2.75-2.56-2.5"/><path class="bc1abbe8-ae81-42a7-a656-41c77e861774" d="M226.8,33.6c-2.75-1.52-5.71,1.15-8.5,1.5-1,5.4,2.51,10.11,2,15.5-.18,2,.16,4-.93,6a5.15,5.15,0,0,0,.94,6.43c4.66,4.43,2.41,9.9,3.2,16-4.52-1.85-8.78-.09-12.22-3"/><path class="bc1abbe8-ae81-42a7-a656-41c77e861774" d="M295.89,78.1c3.62,6.59,10.9,8.14,16.53,12,.95.65,1.14.38,3.48-2-.33-.66-.5-1.66-1-1.94-6.17-3.18-12.33-6.4-19-8.55"/><path class="bc1abbe8-ae81-42a7-a656-41c77e861774" d="M52.9,55.43a58.25,58.25,0,0,0,5.49,23c2,4.36,2.06,9.47,5.25,13.31-2.31,2.47-6.25.24-8.27,2.7"/><path class="bc1abbe8-ae81-42a7-a656-41c77e861774" d="M219.39,32.1c-.34-4.77-4.88-3-7.07-3.59-8.21-2.24-16.47-3.91-25-3.93-8.06,0-15.6,2.23-23,5.06-6,2.28-12.23,4.09-16.55,9.43-2.88,3.56-5.21,7.23-4.94,12.57,6.33-.71,11.83,2.1,17.53,4.32.69.27,2.21.88,3.66-1.21,4.52-6.51,15.41-8.18,21-6.59-2.08,4.49-4.31,8.9-6.09,13.48-.49,1.26-5.11,3.77-3.61,5.46"/><path class="bc1abbe8-ae81-42a7-a656-41c77e861774" d="M180.3,1.6a6.58,6.58,0,0,0-2.84,4.52c-1.27,7.63-6.25,10.68-13.17,11.38-1.74.18-2.47,1.19-3.49,2.1l-14,12.5"/><path class="bc1abbe8-ae81-42a7-a656-41c77e861774" d="M45.4,104.25c-3,6.69-16.62,14.73-22,17.62-5.67,3-9,11.27-6,16.06.18-.28,3.52-3.63,4-4.13"/><path class="bc1abbe8-ae81-42a7-a656-41c77e861774" d="M251.8,52.1c-4.59-3.71-5.61-6.19-5.52-13,.06-4.19.06-9.66-3.63-11.13-4.35-1.73-6.67,3.49-9.45,6.54-2.61,2.87-2.7,6.93-5.4,9.59"/><path class="bc1abbe8-ae81-42a7-a656-41c77e861774" d="M91.4,116.93c-3,4.58-7.23,8.1-11,12a9.92,9.92,0,0,1-6,3.11c-3.7.55-6.92,2.29-8,6.39l.5,1A33.71,33.71,0,0,0,76.43,147c4.94-3,5.14-10.85,12-12,3.17-6.71,9.08-10.94,14.6-15.37,2.37-1.91,2.17-3.72,1.32-5.59a79.49,79.49,0,0,0-6-11c-5-7.54-4.92-14.69,1.1-21.5a8.8,8.8,0,0,0,2.32-7.25"/><path class="bc1abbe8-ae81-42a7-a656-41c77e861774" d="M357.39,101.1c-5.11.18-9.92,2-15,2.72-3.41.47-6.56,3-8.83,6.22-.92-1.23-4.85-6.42-5.49-7.27"/><path class="bc1abbe8-ae81-42a7-a656-41c77e861774" d="M358.39,55.6c-4.07.39-7.8,1.9-11.49,3.53-1.3.57-2.85,1.5-4,.88-4.73-2.62-10.93-.43-15.09-4.88-1.68-1.79-4.24-.38-6.55-1.3-6.08-2.44-6.36-2-6.33-8.23,0-1.31-.94-1.94-1.08-3"/><path class="bc1abbe8-ae81-42a7-a656-41c77e861774" d="M318.39,82.1a83.81,83.81,0,0,1-17.63-10.34c-1.9-1.51-6.31-2.06-8.37-4.16"/><path class="bc1abbe8-ae81-42a7-a656-41c77e861774" d="M17.4,71.93l-3.47,1.76c-.35,2.57,2.89,2.22,3,4.64-.07.16-.16.83-.53,1.07-4.11,2.67-7.69,5.53-6.53,11.29.35,1.7-1.37,1.77-2.45,2.24"/><path class="bc1abbe8-ae81-42a7-a656-41c77e861774" d="M61.77,110.43c-.22.78-7.86,1.2-8.84,1.59-6,2.38-10.82,6.6-15,11.45-1.59,1.85-2.45,3.78-5.64,2.15-1.41-.71-3.24,1-1.91,3.32a6.63,6.63,0,0,1-.32,7.5c-5.29.1-2.07-4.83-3.67-7"/><path class="bc1abbe8-ae81-42a7-a656-41c77e861774" d="M310.39,69.1c-1.08-2.73-4.67-2.11-5.71-5-3.68,2.94-7.1,4.77-10.46.8-5.91,4.85-4.2,14-4.42,19.92"/><path class="bc1abbe8-ae81-42a7-a656-41c77e861774" d="M211.3,63.6c-2.22,2.89-4.4,4.33-8.07,1.59-4-3-9.39.14-10,5.41S190,80.65,187.14,85c-1.84,2.83-4.29,5.34-5.27,8.62-.67,2.26-3.37,1.59-4.07,3.48l-1,.5c-4,3.68-7.42,7.84-12.34,10.78-3.56,2.12-8.63,1.7-11.81,3.82"/><path class="bc1abbe8-ae81-42a7-a656-41c77e861774" d="M218.3,35.1c-6.79.88-13,3.23-16.88,9.08-2.49,3.78-6.18,7.53-4.7,12.93a9.18,9.18,0,0,1,6.09,2c2.63,1.86,5,2,6.49-1.48"/><path class="bc1abbe8-ae81-42a7-a656-41c77e861774" d="M89.9,64.43c7.69-5.47,15-3.47,20.19,5.85-5.06,3.15-10,6.06-16.19,2.65"/><path class="bc1abbe8-ae81-42a7-a656-41c77e861774" d="M312.33,102.61c-4.83,3-10.62.79-15.43.42-2-.16-3.9-1.62-6-.43l-1.5,1c-1.05,3.12.7,6.85-.7,9.39-2.77,5-1.1,9.46.22,14.1,2.32,8.17-.14,14.77-7,18.51-3.38,1.83-7.21,1.17-7.41-1.51-.33-4.31-1.08-9.35,2.53-12.36,5.52-4.6,3.17-9.36,1.31-14.11-2.38-6.1-5.51-11.93-7.83-18.06-1.25-3.3-1.95-7.4,1.47-9.87,4.65-3.36,10.11-5.76,15.9-4.88,2.86.44,4.42-1,6.63-2,4,4.3,9.06,6.87,13.81,9.94s9.09,3.07,13.59-.13"/><path class="bc1abbe8-ae81-42a7-a656-41c77e861774" d="M185.3,88.6c6.84,3.21,15,6,20,.5"/><path class="bc1abbe8-ae81-42a7-a656-41c77e861774" d="M242.3,40.6c-2.65,6-6.65,11.78-6.3,18.49.28,5.64-.79,11.57,1.8,17"/><path class="bc1abbe8-ae81-42a7-a656-41c77e861774" d="M151.3,115.1c.26,3-1.16,5.64-1.5,8.5-.42,3.5,1.15,5.76,4.5,6,4,.25,4.14,3.08,4.57,6,.22,1.49-6.78.61-.86,4.66"/><path class="bc1abbe8-ae81-42a7-a656-41c77e861774" d="M175.3,67.1c-1,2.5-2.05,5-3,7.5-.55,1.51-1.48,2.94-3,2.9-1.87-.06-2-1.75-2.08-3.4-.1-1.37-5.74-3.36-5.42-5"/><path class="bc1abbe8-ae81-42a7-a656-41c77e861774" d="M216.8,51.1c-.38-1.94-1.53-3-3.5-2.47-4.65,1.24-9.37-.51-14,.47"/><path class="bc1abbe8-ae81-42a7-a656-41c77e861774" d="M200.3,137.1c1.5,1.08,4,3.48,5.95,2.42,2.72-1.45,2.95,1.22,4,2.14,2.89,2.59,5.26,6,9.64,2,1-.88,3.22.63,4.42-1.09-3-4.6-5.93-6-12.5-6"/><path class="bc1abbe8-ae81-42a7-a656-41c77e861774" d="M133.85,74.59a18.5,18.5,0,0,1-4.5,15.56c-3,3.23-.82,12.14,3,14.95"/><path class="bc1abbe8-ae81-42a7-a656-41c77e861774" d="M130.8,50.6c1.32,5.18,6.15,6.35,10.06,7.83,5.49,2.07,10.71,5.4,16.94,5.17"/><path class="bc1abbe8-ae81-42a7-a656-41c77e861774" d="M154,137.57l4,2.68c-2.95,3.93-7.24,3.7-11.18,3.12-1.22-.18-2.67-.57-4-.77"/><path class="bc1abbe8-ae81-42a7-a656-41c77e861774" d="M196.3,122.1a18.51,18.51,0,0,0,2.32,9.6c.82,1.45,2.23,3.28,1.68,5.4"/><path class="bc1abbe8-ae81-42a7-a656-41c77e861774" d="M132.8,67.6c2.27.13,4.54.09,5.45-2.52a2.36,2.36,0,0,0-1-3c-2.08-1.2-3.94-2.05-6.55-.6-3.37,1.87-5.79,3.9-4.93,8.1.77,3.78,3.36,5.11,7,5,2.41-.07,4.83,0,7.25,0"/><path class="bc1abbe8-ae81-42a7-a656-41c77e861774" d="M151.3,115.1c3.35-1.85,1.21-3.74-.48-3.37-2.62.57-4.89,2.17-5,5.37,0,1.18,0,2.29-1.52,2.5"/><path class="bc1abbe8-ae81-42a7-a656-41c77e861774" d="M178.64,62.06c-3.08.06-6.39-.45-9.44,1.37-2,1.2-4.66,2.36-7.14,1.28-1.25,1.72-.76,3.05-.26,4.39"/><path class="bc1abbe8-ae81-42a7-a656-41c77e861774" d="M194.8,100.1c-2.52,4.51-1.6,9.26-1,14"/><path class="bc1abbe8-ae81-42a7-a656-41c77e861774" d="M205.8,109.1c-3.92-.26-5.86,1.46-5.51,5.5.15,1.83-.34,3.73.51,5.5"/><path class="bc1abbe8-ae81-42a7-a656-41c77e861774" d="M231.3,57.23a3.32,3.32,0,0,0-1,3.36c2.6,7.25-.85,14.33-.52,21.51l-1,.5a73.68,73.68,0,0,1-17.89,27.12c-7.41,7.07-6.41,16.81,1.6,24.07,3.79-2.91,7.84-.56,11.77,0,2.21.3,3.27,2.26,1,4.37-.61.57-2.92,1.15-2.43,2.57"/><path class="bc1abbe8-ae81-42a7-a656-41c77e861774" d="M180.3,1.6c-6.82-3.73-18.4,2.65-19,10a6,6,0,0,1-1.95,4.58c-6.51,6-12.74,12.25-19.07,18.42l-1,1c-3.52,3.55-8.1,5.72-11.66,9.34-2,2-2.33,4.54-2.34,6.89"/><path class="bc1abbe8-ae81-42a7-a656-41c77e861774" d="M224.3,38.6c4,4.58,5,10.37,5.84,16,.36,2.37,1.52,3.12,3.16,4"/><path class="bc1abbe8-ae81-42a7-a656-41c77e861774" d="M207.3,83.1c1.73,3.83,5.61.76,8.11,2.7-1.77,4.63-5.77,1.91-8.63,2.13-2.7.21-3.74-2.17-3.48-4.83"/><path class="bc1abbe8-ae81-42a7-a656-41c77e861774" d="M135.3,39.6a6.76,6.76,0,0,1,3,7c-.54,3.27,1.26,4.59,4.52,4"/><path class="bc1abbe8-ae81-42a7-a656-41c77e861774" d="M212.3,89.1c-.3,1.5-.93,3,0,4.51,1.23,2.08,2,4.25-.5,6s-4.75,3.83-8,1.53a11.27,11.27,0,0,0-7-1.86c-5.19.31-9.82-.61-14-3.65"/><path class="bc1abbe8-ae81-42a7-a656-41c77e861774" d="M7.4,92.93c1.16,2.73,10.21,0,10.37-.15,6.34-5.25,12.72-3,19.13-.35"/><path class="bc1abbe8-ae81-42a7-a656-41c77e861774" d="M94.4,69.93c2.83-.32,5.83.74,8.65-.83-3.89-4.31-6.88-5.21-10.15-3.17"/><path class="bc1abbe8-ae81-42a7-a656-41c77e861774" d="M142.8,64.1c0,1.5-.09,3,0,4.49,0,.53.62,1,1,1.61-2.34,1.26-4.5,3.08-3,5.84s-2,4.3-1,7.18c.44,1.26-4.52,1.75-6.55-.31"/><path class="bc1abbe8-ae81-42a7-a656-41c77e861774" d="M243.3,54.6c3.27-.19,6.13,2.23,9.5,1.5"/><path class="bc1abbe8-ae81-42a7-a656-41c77e861774" d="M76.47,40.4C78.1,37,81,33.63,85.24,32.57c.63,3.67,1.52,7.87-1.87,10.72"/><path class="bc1abbe8-ae81-42a7-a656-41c77e861774" d="M329.61,56.58c-2.69,1.17-7.63.71-7.72,5.52"/><path class="bc1abbe8-ae81-42a7-a656-41c77e861774" d="M26.4,43.93c4.55,0,9.5-1,12,4.5"/><path class="bc1abbe8-ae81-42a7-a656-41c77e861774" d="M260.27,55.34a16.11,16.11,0,0,1,7.43,7.51c-2,2.27-5.66,5.8-7.62,8"/><path class="bc1abbe8-ae81-42a7-a656-41c77e861774" d="M213.8,73.1c-2.28,2.29-6.26,1.85-8,5"/><path class="bc1abbe8-ae81-42a7-a656-41c77e861774" d="M244.3,48.6c-3.89,7.17-2.85,14.52-1.06,22,1.12,4.68,3.19,9.1,3.6,14s-3.54,9.21-8,8.51"/><path class="bc1abbe8-ae81-42a7-a656-41c77e861774" d="M44.4,88.43c-.65,3.81-3.55,5.58-7.5,4"/><path class="bc1abbe8-ae81-42a7-a656-41c77e861774" d="M48.4,89.43a18.23,18.23,0,0,1-6,8"/><path class="bc1abbe8-ae81-42a7-a656-41c77e861774" d="M291.69,84.25c2.69,2.66,6.41,7.36,9.7,9.35,4.4,1.49,7.69,4.61,10.38,8.09,1.84,2.36.74,5.53.16,8.42-1.27,6.43-.68,6.89,5.93,9.56,4.83,1.94,9.77,3.76,14,6.91,4.68,3.44,4.55,6.59.05,10.09-3.11,2.41-7.3,2.55-10.06,5.43l-.5,1c-.25,1.25,1.11,1.32,1.52,1.41,6.56,1.53,13.27,5.51,19.52-.88.74-.75,2-1,2.95-1.54,4.23-2.6,4.75-5.07,1.46-9-2.16-2.54-2.92-5.26-3.68-8.49-1.29-5.48-1.05-13.42-8.7-15.76"/><path class="bc1abbe8-ae81-42a7-a656-41c77e861774" d="M22.72,127.71c-.93,1.72-.69,3.31-2.26,5-.6.66,4.84,3.49,6.47,1.8"/><path class="bc1abbe8-ae81-42a7-a656-41c77e861774" d="M91.4,122.43c.13-1.76,2.81-2,2.44-4.54l-9.94-8-1-1c-7.65-3.63-13.35-11.55-19.26-17.18"/><path class="bc1abbe8-ae81-42a7-a656-41c77e861774" d="M133.3,42.1c1.53,4.45-.12,8.1-5,8.8-3,.42-4.65,1.89-6.47,3.7"/><path class="bc1abbe8-ae81-42a7-a656-41c77e861774" d="M250.3,61.6c-2,2.55-4.83,2-7.5,2"/><path class="bc1abbe8-ae81-42a7-a656-41c77e861774" d="M254.3,73.6c-2.09,2.29-4.38,4.27-7.5,5"/><path class="bc1abbe8-ae81-42a7-a656-41c77e861774" d="M251.8,68.6c-2.57,1-4.37,3.68-7.5,3.5"/><path class="bc1abbe8-ae81-42a7-a656-41c77e861774" d="M196.72,57.11c-2,2.27-2.23,5.84-1.42,8.49"/><path class="bc1abbe8-ae81-42a7-a656-41c77e861774" d="M173.3,6.6c-1.5,2.8-5.21,1.71-7,4"/><path class="bc1abbe8-ae81-42a7-a656-41c77e861774" d="M310.89,59.6c3.19,1.84,4.56,4.37,3,8"/><path class="bc1abbe8-ae81-42a7-a656-41c77e861774" d="M205.8,53.6c-2.68-1-4.9,3-7.07,3.63"/><path class="bc1abbe8-ae81-42a7-a656-41c77e861774" d="M218.21,137.4a16.55,16.55,0,0,1-6.41,4.2"/><path class="bc1abbe8-ae81-42a7-a656-41c77e861774" d="M250.8,45.1c-.57-2.1-1.86-4-4.51-4"/><path class="bc1abbe8-ae81-42a7-a656-41c77e861774" d="M75.4,138.93c-.84,1.67-2,4-2.82,5.64"/><path class="bc1abbe8-ae81-42a7-a656-41c77e861774" d="M250.8,37.6l3.5,5,1,.5c-.15,3.17,2.68,4.67,3.91,7,.91,1.75,2.33,4.08.53,5.91-4.25,4.33-2.81,8.69-.35,13,.56,1,1,1.71.38,2.54-4,5-5.73,11.9-12.47,14.52"/><path class="bc1abbe8-ae81-42a7-a656-41c77e861774" d="M137.94,84.3c2.26,3.74-1.75,3.78-3.64,6.3l-1,1c-3,4.3-2.65,8.85-1,13.5"/><path class="bc1abbe8-ae81-42a7-a656-41c77e861774" d="M73.9,135.93c-2.54.44-3.08,4.43-4.89,5.5"/><path class="bc1abbe8-ae81-42a7-a656-41c77e861774" d="M201.8,95.1c-.17,1.5-.34,3-.5,4.5"/><path class="bc1abbe8-ae81-42a7-a656-41c77e861774" d="M18.9,54.93l3,3.5c-1,2.13-2.88,1.38-4.5,1.5"/><path class="bc1abbe8-ae81-42a7-a656-41c77e861774" d="M55,93.39c-2.34,0-5.12,2-7.56.54"/><path class="bc1abbe8-ae81-42a7-a656-41c77e861774" d="M39.4,88.43l-2,4"/><path class="bc1abbe8-ae81-42a7-a656-41c77e861774" d="M200.64,111.44c-1.69-1-1-6-4.84-4.84"/><path class="bc1abbe8-ae81-42a7-a656-41c77e861774" d="M54.4,90.43c-.79,2.34,2.9,4.67,0,7"/></g></g></svg>