<svg xmlns="http://www.w3.org/2000/svg" viewBox="0 0 355.66 148.84"><defs><style>.b8969097-e1f3-4206-ad07-08c9e6efb3ef{fill:none;stroke:#1d1d1b;stroke-linecap:round;stroke-linejoin:round;stroke-width:0.25px;}</style></defs><title>Risorsa 2</title><g id="a5690699-1e3e-411e-aa8d-73289c6a9335" data-name="Livello 2"><g id="a1e2e927-308a-43c5-8f5f-94b378286d8e" data-name="Livello 1"><path class="b8969097-e1f3-4206-ad07-08c9e6efb3ef" d="M183.83,104.09c1,6-2,11-7,14-11,5-22-1-29-10-6-8-7-17-4-26a40.54,40.54,0,0,1,38-32c-18,1-33,14-38,31-5,15,3,32,18,37,7,2,14,1,19-4,3-4,5-14-3-15,9,5,1,16-6,17-21,4-32-21-25-38,8-18,28-27,47-25-23-3-51,14-48,40,1,14,15,28,29,22,5-3,9-11,3-16,6,7-1,14-8,15-12,0-21-9-22-21-1-8,2-15,6-22,13-17,38-20,56-9-17-9-40-9-54,7-8,10-11,24-3,36,6,8,18,11,25,4a6.68,6.68,0,0,0,0-10c1,3,2,6,0,8-5,6-13,5-19,1-11-9-11-24-3-35,15-19,45-19,60.16-1.42,2.63,2.47,5.22,5.63,5.84,5.42-.62.29-3.31-3-6-5.47a39.38,39.38,0,0,0-57-1.53c-12,12-11,37,8,41,6,1,15-5,11-12,1,6-3,10-8,10-7,0-12-5-15-11-5-13,2-25,13-32,20-11,47-1,55.46,19.83,1.62,2.87,2.87,5.26,3.54,5.17-.67.21-1.91-2.13-3.53-5-7.47-18-28.47-28-47.47-23-13,4-24,17-22,32a17,17,0,0,0,14,14c4,0,10-4,9-9-1,2-2,5-5,6-7,2-13-3-15-9-2-9,0-19,8-25,23-18,55-2,59.91,24.59,1.47,9.82,2,10.48,2,10.48s-.54-.52-1.94-10a42.87,42.87,0,0,0-34-32c-15-2-31,7-34,23-1,9,6,20,15,17,2,0,4-2,5-5-2,5-9,7-13,3-6-6-7-17-2-24,9-12,25-15,38-9,16,7,24,25,23.31,42.09-1.58,9.25-1.24,9.85-1.24,9.85s-.4-.48,1.15-9.44c2.78-25.5-18.22-49.5-44.22-44.5-14,3-27,21-15,33,3,3,11,5,13-1-3,2-5,5-10,2-7-6-7-17-2-23,6-6,15-10,24-9,26,4,37,33,27.93,56-4.18,7.93-4.06,8.58-4.06,8.58s-.21-.56,3.84-8.22c6.29-16.38,4.29-35.38-8.71-47.38s-35-12-44,4c-2,5-3,10,0,15,3,4,9,6,13,2-7,3-13-3-13-9,1-7,4-13,11-16,17-7,36,4,41,21,4,14,0,30-9.26,40.95-6.17,6.06-6.52,6.84-6.52,6.84s.35-.77,6.32-6.7c12.46-14.09,15.46-35.09,3.46-51.09-10-13-27-18-40-7-5,5-8,14-2,20,2,1,6,3,9,1-4,1-9-2-10-6-2-14,13-21,25-18,15,4,24,18,23,33-1,14-8,28-21,35-7.55,3.88-8.67,4.61-8.67,4.61s1.09-.72,8.44-4.54c14.22-9.09,23.22-26.09,20.22-43.09-2-8-5-14-11-19-9-7-21-9-30-2-5,4-8,12-3,18,2,1,4,3,7,2-8-1-9-11-4-16,9-10,24-6,31,3a34.94,34.94,0,0,1,6,34c-5,13-17,22-29.93,25.87-8.34,1.5-10.38,1.76-10.38,1.76s2-.27,10.14-1.77c21.17-5.86,37.17-27.86,30.17-49.86-5-14-20-23-34-16-5,3-9,10-6,16,2,2,4,3,7,2-5-1-6-5-6-8,3-12,18-11,26-6,13,9,15,24,9,37-8,16-26,25-44.44,22.86-2.73-.32-5.43-.86-6.56-.86,1.08-.08,3.94.45,6.79.76,18.21,2.24,37.21-6.76,44.21-23.76,4-9,3-19-1-28-6-10-24-18-31-4-2,4-1,9,3,10-4-2-5-6-2-10s7-6,12-5c11,1,18,11,19,21,1,15-9,30-23,35-11,4-24,3-34.42-2-2.71-1.2-5.45-2.73-6.58-3,1.42.42,5.13,2.54,8.59,3.88,15.41,6.12,31.41,3.12,44.41-6.88,8-6,10-15,11-24,0-9-5-17-12-22a14.17,14.17,0,0,0-19,3,7.75,7.75,0,0,0,2,10c-4-4-1-10,3-12,11-5,21,7,23,17,2,16-10,29-24,34a45,45,0,0,1-44-13c13,13,32,18,49,11,11-5,20-16,19-29-1-7-4-14-11-18a14.83,14.83,0,0,0-13,0c-3,2-4,5-2,10-2-8,7-11,13-8,9,5,13,17,9,26-4,7-9,14-17,17-22,9-45-5-54-25,5,11,14,21,26,25,16,6,37,0,44-17,3-9,2-19-6-25-3-2-5-3-8-2-5,1-8,4-7,9a6.84,6.84,0,0,1,7-7c13,1,16,17,11,27-10,17-31,19-47,9-10-7-17-17-19-29,2,12,10,24,21,30,15,8,34,6,44-9,4-8,5-18-3-25a9.08,9.08,0,0,0-7-3c-3,1-7,2-6,7,2-8,11-5,14,0,6,11,0,22-9,28-14,8-31,3-41-8s-14-26-10-40c-7,24,12,54,39,51,13-1,26-12,23-26-2-8-11-11-17-5,2-1,4-4,7-3,9,3,10,14,5,21-8,12-22,13-34,8-20-10-27-37-16-56-10,18-6,43,12,54a32.83,32.83,0,0,0,29,2,21.44,21.44,0,0,0,11-19c0-6-7-13-13-7,4-2,7,0,9,2a13.62,13.62,0,0,1,0,15c-4,6-11,9-18,9-17,0-31-15-32-32a42.68,42.68,0,0,1,14-35,43.27,43.27,0,0,0-13,43c5,16,21,28,37,23,5-2,10-5,12-10,3-6,0-18-9-15,5-1,9,3,9,8-1,10-11,15-20,15-8-1-16-5-21-12-16-22-2-52,22-60-22,8-34,34-25,55,6,13,22,21,36,14,5-3,7-8,7-13-1-4-3.26-7-8-7C177.64,99.18,182.83,101.09,183.83,104.09Z"/><path class="b8969097-e1f3-4206-ad07-08c9e6efb3ef" d="M49.26,48.62C33.12,36.12,39.12,11.12,53.12.12c-14,12-19,36-3,48-15-15-3-38,13-46-15,9-25,31-13,46-5-8-4-19,1-27s13-13,22-16c-17,6-32,25-23,43-6-20,14-36,32-37-17,1-36,17-31,36-2-20,20-31,38-28-11-1-23,2-31,10-4,5-8,11-7,18,4-20,27-27,44-19-17-6-41,0-44,20,7-19,32-21,47-10-15-10-38-8-47,10,12-16,36-14,48,1-12-14-36-16-47-1,14-13,39-5,46,12-8-16-31-24-46-12,14-8,30,0,38.65,12.13C94.31,67.42,95.33,70,95.33,70s-1.14-2.29-4.75-9.08C83.12,47.12,66.12,43.12,52.12,48.12c15-5,30,7,35.41,20.63,1.93,7.83,2.57,10.32,2.57,10.32s-.83-2.22-2.9-9.69C82.12,56.12,68.12,45.12,53.12,49.12c16-2,28,13,29.44,27.19.21,8.13.55,10.53.55,10.53s-.58-2.17-1-10c-1-14.73-14-28.73-30-26.73,16,0,24,18,24,32.45C74.59,90.67,74.65,93,74.65,93s-.34-2.15.92-10c1.55-14.87-8.45-30.87-23.45-32.87,15,5,21,23,16.46,37.15-3.25,7.71-3.48,10-3.48,10S65,95.08,68,87.55c4.16-14.43-1.84-31.43-15.84-37.43,14,8,17,27,8.18,40.1-4.86,7-5.43,9.19-5.43,9.19s.25-2.15,4.77-9c5.48-13.25,5.48-31.25-7.52-40.25,11,11,10,30-.43,41.24-6.3,6-7.27,8-7.27,8s.65-2.11,6.6-8c10.1-11.24,11.1-29.24,1.1-41.24,10,14,2,31-9,40.56-7.52,4.67-8.93,6.55-8.93,6.55s1.11-2,8.29-6.68c11.63-9.43,18.63-26.43,8.63-39.43,8,14-3,32-17.57,37.25-3.27,1.51-7.26,2.42-8.43,4.75,1-2.5,4.87-3.48,8-5.06,14-5.94,23-21.94,18-36.94,3,16-10,30-25.11,32.68-3.6.75-8,.49-9.89,2.32,1.84-2,6.32-1.78,9.82-2.61,15.18-3.39,27.18-17.39,25.18-32.39,0,16-17,28-31.95,27.36-3.69,0-7.88-.85-10.05.64,2.17-1.66,6.43-.78,10.12-.92,15.88-.08,29.88-11.08,31.88-27.08-4,15-21,25-37.06,20.4-3.62-.67-7.6-2.56-9.94-1.4,2.34-1.16,6.25.66,9.73,1.24,15.27,3.76,30.27-6.24,36.27-19.24-8,13-26,18-39.55,11.85-3.37-1.36-6.95-4.34-9.45-3.85,2.51-.66,6,2.24,9.32,3.52,13.68,5.48,31.68,2.48,39.68-11.52-10,11-29,14-41.23,4-3.07-2-6.1-6-8.77-6,2.67-.5,5.61,3.2,8.6,5,12.4,8,31.4,9,40.4-4-15,15-39,4-48-12,9,16,32,24,48,12-17,9-40-3-45-22,6,17,28,32,45,21-19,8-36-11-41-28,5,17,22,34,41,28-20,3-34-18-34-36,2,18,14,37,34,36-20-2-31-25-25-43-6,18,6,39,25,43-20-7-25-31-16-48-8,17-1.86,38.5,16.14,46.5-19-10-17.14-32.5-7.14-48.5-10,15-10,37,6,47.78C48.9,48.43,49.26,48.62,49.26,48.62Z"/><path class="b8969097-e1f3-4206-ad07-08c9e6efb3ef" d="M304.22,89.86c-9.68,1-15.68-9-16.68-17-1-14,9-25,21-31-15,7-26,24-18,40,3,5,8,7,14,8-15-4-17-24-8-34,6-6,13-11,21-13-13,3-24,14-26,27a18.81,18.81,0,0,0,12,20c-9-5-12-17-8-26,5-11,17-16,28-19-14,3-29,12-30,28,0,7,3,15,11,17-10-5-10-18-5-26,7-11,19-14,31-15-10,2-20,4-28,12s-9,23,2,29c-8-6-8-17-3-24,8-11,22-15,35-12a33.71,33.71,0,0,0-33,10c-7,7-7,20,1,26-5-5-5-13-2-19,5-10,16-15,27.28-13.6,4.86.2,11.72,3.44,13.72,1.6-2,1.84-8.86-1.4-13.72-1.6-11.28-1.4-22.28,3.6-27.28,13.6-3,6-3,14,2,19a16.54,16.54,0,0,1,0-19c9-13,25-11,37.82-6.52,2.52,1.06,4.93,2.19,6.18,1.52-1.25.67-3.65-.45-6.15-1.49-10.85-5.51-25.85-5.51-34.85,3.49-5,6-8,15-3,22-3-9,0-18,9-23,11-5,22-3,32,3.46,2.36,1.45,4.63,3,6,2.54-1.34.42-3.59-1.19-5.93-2.64-11.07-8.36-27.07-9.36-37.07.64-5,5-7,12-4,19-3-8,3-16,10-20,10-5,20-3,28.54,2.46,4.33,2.68,8.79,8,11.46,7.54-2.67.84-7.09-4.44-11.36-6.93-8.64-5.07-18.64-7.07-28.64-3.07a20.31,20.31,0,0,0-10,20c-1-10,8-18,17-19s18,2,23.58,7.68c3.91,3.2,7.58,9.49,10.42,9.32-2.84.17-6.5-6.09-10.4-9.26-8.6-6.74-20.6-10.74-30.6-5.74-6,3-10,10-10,17,2-5,3-11,9-14,16-7,32,3,39.52,16.89,1.74,2.75,2.34,3,2.34,3s-.61-.14-2.33-2.78c-4.53-6.06-8.53-12.06-15.53-16.06-7-3-14-5-21-2-6,3-11,8-12,15,2-10,13-15,22-13,13,2,21,13,25.81,23.54,1.28,2.78,1.82,3.05,1.82,3.05s-.53-.31-1.85-2.94c-3.78-11.65-12.78-20.65-24.78-23.65-9-2-20,3-22,13,3-10,16-12,24-9,12,5,18,15,20.88,26.89.88,2.75,1.33,3.16,1.33,3.16s-.48-.35-1.36-3c-3.85-15-13.85-29-29.85-29-6,1-13,4-16,11,5-7,14-11,22-8,14,5,19,20,20.83,32.84.44,2.76.82,3.2.82,3.2s-.41-.39-.89-3.06c-1.76-11-4.76-23-15.76-30-8-5-21-5-26,5,5-8,16-9,23-4,12,8,16,22,14.7,35.21,0,2.7.33,3.18.33,3.18s-.34-.43-.41-3c.38-12.34-1.62-24.34-11.62-32.34-7-6-20-9-26,1,3-4,7-6,12-5,20,3,24,26,20.64,41.82-.37,2.61-.15,3.12-.15,3.12a8.42,8.42,0,0,1,.05-3.06c2.46-14.88.46-34.88-16.54-40.88-6-1-12-1-16,4,6-5,14-4,20,0,13,10,12,27,6.79,41.47a10.5,10.5,0,0,0-.65,3.08,8.5,8.5,0,0,1,.53-3c3.33-10.57,6.33-23.57-.67-34.57-5-8-17-14-26-7,11-6,23,4,26,14,3,11,0,22-5.7,31.18a10.76,10.76,0,0,0-1.15,2.93,8.92,8.92,0,0,1,1-2.85c4.83-7.26,7.83-15.26,6.83-24.26,0-8-4-14-10-19-5-4-11-5-17-2,8-3,15,1,19,7,8,14,5,30-5.66,40.82a11.63,11.63,0,0,0-1.65,2.72,9.21,9.21,0,0,1,1.51-2.67,40.05,40.05,0,0,0,9.8-32.87c-2-9-12-19-23-15,9-1,17,5,20,13,4,14-3,28-13.91,36.32a13.39,13.39,0,0,0-2.15,2.44,10.8,10.8,0,0,1,2-2.41c7.06-6.35,12.06-13.35,14.06-21.35,3-13-5-30-20-28,6-1,12,3,15,8,8,16-3,33-16.28,41.68a15.81,15.81,0,0,0-2.63,2.08,12.07,12.07,0,0,1,2.49-2.07c11.42-8.69,22.42-20.69,17.42-36.69-2-7-8-14-16-13,9,2,15,11,15,19-1,14-10,26-23.57,29.89a18.26,18.26,0,0,0-3.09,1.65,13.73,13.73,0,0,1,2.94-1.66c12.72-4.88,22.72-15.88,23.72-29.88,0-8-6-17-15-19,12,4,15,20,9,30a39.61,39.61,0,0,1-24.62,17,27,27,0,0,0-3.5,1.11,20.59,20.59,0,0,1,3.36-1.15c14.76-3,27.76-16,27.76-31-1-7-5-14-12-16,6,4,11,11,10,18-2,16-17,25-32.24,26.12-3.08.28-3.87.43-3.87.43s.8-.15,3.76-.53c12.35-1,23.35-7,29.35-18,4-9,2-21-7-26,9,6,9,19,3,27-8,10-19,15-31.28,13.27-3.15-.2-4.18-.33-4.18-.33s1,.1,4.07.25c12.39.81,24.39-3.19,31.39-13.19,6-9,5-20-3-27,8,9,6,21-2,29-10,9-24,8-36,6,13,3,28,2,38-8,7-8,6-19,0-27,4,6,4,13,1,20-4,7-11,11-19,13-9,1-16-2-24-4,9,3,19,6,29,2,12-5,22-20,12-31,7,10,0,23-11,27-12,5-24,2-34-5,10,6,22,9,34,5,11-4,17-17,11-27,3,5,2,11-1,16a23.45,23.45,0,0,1-22,10c-9-1-17-4-24-11,9,8,21,13,33,10,11-3,18-14,14-25,4,10-4,19-13,22-14,3-27-4-36-15,10,13,28,22,43,11,5-5,8-11,6-18,2,12-11,21-23,19-11-2-20-10-26-19,7,11,19,21,33,19,9-1,16-10,16-19-1,6-3,11-9,14-17,8-35-7-39-23,3,13,15,24,29,25,9,0,18-6,19-16-1,7-7,12-13,13-17,2-30-13-33-28,3,12,12,24,25,27,10,2,18-3,21-12-4,11-17,13-26,8-11-6-16-18-17-30,1,13,8,25,20,31,9,4,19-1,23-9-7,11-22,10-30,1-7-9-9-20-8-31-1,13,2,27,14,35,8,5,18,3,24-4-4,3-9,6-15,5-16-4-22-23-19-38-3,11,1,23,8,32,7,7,19,9,26,0-6,4-13,6-19,2-15-9-14-28-8-42-4,12-6,26,3,37,6,8,16,9,24,3-11,7-22-2-26-12-3-10,0-20,4-29-7,13-8,30,4,40,5,3,12,5,18,1-5,2-12,2-16-2-14-13-8-33,4-45-10,10-15,26-8,39,4,7,12,10,20,8-10,2-18-5-20-14-3-14,5-25,15-34-8,8-16,18-15,30,1,9,8,20,19.36,18.06Z"/></g></g></svg>