<?xml version="1.0" encoding="utf-8"?>
<!-- Generator: Adobe Illustrator 25.2.3, SVG Export Plug-In . SVG Version: 6.00 Build 0)  -->
<svg version="1.1" id="Layer_1" xmlns="http://www.w3.org/2000/svg" xmlns:xlink="http://www.w3.org/1999/xlink" x="0px" y="0px"
	 viewBox="0 0 429.4 623.2" style="enable-background:new 0 0 429.4 623.2;" xml:space="preserve">
<style type="text/css">
	.st0{enable-background:new    ;}
</style>
<g id="Layer_2_1_">
	<g id="Layer_3">
		<path d="M356.2,0.2c-0.5,0.9-1.2,1.8-2,2.5c-0.8,0.7-1.7,1.3-2.8,1.7c-1,0.4-2,0.6-3,1.1c-0.9,0.4-1.7,1.1-2.2,2
			c-0.9,1.9-1.5,3.9-1.7,6c-0.4,2.1-0.7,4.2-1,6.2c-0.2,2.1-0.2,4.2-0.1,6.3c0,0.5,0,1,0,1.6c-0.1,0.5-0.2,1.1-0.4,1.6
			c-0.4,1-1,1.9-1.6,2.8c-2.6,3.4-6.2,5.8-8.6,9.2c-0.6,0.8-1.1,1.8-1.3,2.8c-0.1,0.5-0.1,1,0.1,1.5c0.1,0.5,0.3,1,0.5,1.5
			c0.8,2,1.3,4.1,1.5,6.2c0,2.1-0.3,4.3-0.9,6.3c-0.5,2-1.2,4-1.9,6.1c-1.3,4-3,7.9-5.1,11.6c-1.1,1.8-2.4,3.5-3.9,5
			c-0.7,0.8-1.5,1.5-2.2,2.3s-1.6,1.4-2.2,2.2c-0.3,0.3-0.6,0.7-0.8,1.2c-0.1,0.4,0.1,0.8,0.3,1.3c0.4,1.1,0.4,2.2,0.2,3.3
			c-0.4,2.1-1.1,4.1-2,6.1c-1.6,3.9-3.8,7.6-6.5,10.9c-1.4,1.7-2.9,3.1-4.3,4.7c-1.3,1.6-2.3,3.4-3,5.3c-0.4,1-0.7,2-1,3
			c-0.1,0.2-0.1,0.4-0.1,0.6c0,0.1,0.2,0.4,0.3,0.7c0.2,0.5,0.3,1.1,0.4,1.6c0.2,2.1,0.3,4.3,0.2,6.4c0,2.1-0.2,4.3-0.6,6.4
			c-0.2,1.1-0.5,2.1-1,3.1c-0.3,0.5-0.7,1-1.2,1.3c-0.5,0.3-1.1,0.5-1.7,0.5c-0.5,0-1.1-0.1-1.6-0.2c-0.5-0.1-0.9,0-1,0.2
			c-0.2,0.4-0.3,0.8-0.3,1.3c0,0.5,0,1,0.1,1.5c0.2,2,0.6,4.2,0.9,6.2c0.1,0.5,0.2,1,0.3,1.5c0,0.2,0.1,0.5,0.2,0.7
			c0.1,0.3,0.2,0.6,0.2,0.9l0.3,3.2c0.3,2.1,0.3,4.3-0.1,6.4c-0.2,1.1-0.8,2.1-1.5,3c-0.8,0.8-1.7,1.4-2.7,1.9
			c-0.4,0.2-0.7,0.5-1,0.8c-0.1,0.4-0.1,0.8,0,1.1c0.2,0.8,1.1,1.5,1.7,2.4c0.7,0.9,1.2,2,1.4,3.1c0.2,1.1,0.2,2.2,0,3.3
			c-0.3,2.1-0.9,4.2-1.6,6.2c-1.6,4-3.3,7.8-5.4,11.6c-2,3.6-3.5,7.4-4.7,11.3c-0.2,0.9-0.4,1.9-0.5,2.8c0,0.5-0.1,0.9-0.1,1.4v1.6
			c0,2.2-0.1,4.4-0.4,6.6c-0.4,2.3-1.2,4.4-2.3,6.5c-1,1.9-2.2,3.7-3.3,5.5c-0.5,0.9-1.1,1.8-1.7,2.7l-0.8,1.3l-0.7,1.4
			c-0.9,1.8-1.7,3.7-2.4,5.7l-2.1,6c-0.7,2-1.6,4-2.5,5.9c-1.9,3.9-4.1,7.5-6.8,10.9c-1.3,1.7-2.7,3.3-4.1,4.9
			c-0.7,0.8-1.5,1.5-2.3,2.2s-1.7,1.4-2.4,2c-0.7,0.6-1.3,1.4-1.7,2.3c-0.4,0.9-0.7,1.9-1,2.9c-0.7,1.9-1,4-1.1,6
			c0.1,2,0.7,3.9,1.8,5.6c0.5,0.9,1,1.9,1.4,2.9c0.4,1.1,0.7,2.2,0.7,3.3c0,2.2-0.5,4.5-1.4,6.5c-0.9,2-1.8,3.9-2.8,5.8
			c-1,1.9-2,3.8-3.2,5.6c-1.2,1.8-2.5,3.6-3.9,5.2c-3,3.3-6.8,5.8-11,7.1l-1.5,0.5c-0.4,0.2-0.9,0.4-1.3,0.6c-0.8,0.4-1.5,1-2,1.7
			c-1,1.7-1.7,3.5-2.1,5.4c-0.5,2-1,4.1-1.7,6.2c-0.7,2.1-1.6,4.1-2.6,6c-1.1,1.9-2.2,3.7-3.6,5.5c-1.3,1.7-2.7,3.3-4,4.9
			s-2.7,3.2-4.2,4.8c-1.5,1.6-3.2,3-5.1,4.2c-1.9,1.2-3.7,2.1-5.6,3.1s-3.8,2-5.6,3c-0.9,0.5-1.8,1-2.6,1.6
			c-0.8,0.5-1.6,1.1-2.2,1.7c-0.2,0.3-0.4,0.6-0.5,0.9c-0.1,0.4-0.2,0.9-0.3,1.5c-0.3,1.1-0.8,2.2-1.4,3.2c-1.2,1.8-2.6,3.5-4.1,5
			c-1.4,1.5-2.8,3.1-4,4.7c-0.6,0.8-1.2,1.7-1.8,2.5c-0.6,0.9-1.2,1.8-1.9,2.7c-1.3,1.7-2.8,3.3-4.4,4.8c-3,3-6.3,5.7-8.5,9.1
			c-1.1,1.7-2,3.5-2.5,5.5c-0.5,2-0.7,4.1-0.8,6.1c-0.2,4.3-1.1,8.5-2.6,12.6c-0.8,2.1-2.2,4-4.1,5.2c-0.5,0.3-1,0.5-1.6,0.7
			c-0.5,0.2-1.1,0.3-1.4,0.4c-0.2,0.1-0.2,0.1-0.2,0.1c0,0.1,0,0.3,0,0.4c0.1,0.5,0.3,0.9,0.4,1.4c0.8,2,1.4,4.1,1.6,6.3
			c0.3,2.2,0.1,4.4-0.4,6.5c-1.2,4.2-3.2,8-6.1,11.3c-1.4,1.6-2.7,3.3-4.1,5c-1.4,1.8-3.1,3.4-5,4.6c-0.6,0.3-1.3,0.6-2,0.6
			c-0.5,0.1-0.9,0-1.4-0.1c-0.3-0.1-0.5-0.2-0.8-0.4c-0.1-0.1-0.3-0.2-0.4-0.3c-0.1-0.1-0.2-0.2-0.3-0.3c-0.7-0.9-1.4-1.8-1.9-2.8
			c-0.9-1.6-2.2-2.8-3.9-3.5c-1.8-0.7-3.6-0.9-5.5-0.8c-0.5,0-1,0-1.5,0.1c-0.4,0-0.9,0.1-1.3,0.2c-0.8,0.2-1.5,0.6-2.1,1.1
			c-1.2,1-1.7,2.8-2.1,4.8c-0.1,0.5-0.2,1-0.4,1.6c-0.2,0.7-0.5,1.4-0.9,2c-0.4,0.5-0.8,0.8-1.4,1c-0.5,0.1-1,0.1-1.5,0
			c-0.7-0.2-1.3-0.4-1.9-0.8c-0.5-0.3-1-0.6-1.4-1l-1.3-0.9c-0.4-0.3-0.8-0.6-1.2-0.8c-0.2-0.1-0.4-0.2-0.6-0.3
			c-0.1-0.1-0.2-0.1-0.3-0.1c0.1,0,0.2,0,0.3,0c0.1,0,0.3-0.1,0.3-0.2c0.1-0.1,0,0.1-0.1,0.3l-0.5,1.5c-0.4,1.1-0.9,2.1-1.6,3.1
			c-0.6,1-1.3,1.8-2.2,2.7c-0.4,0.4-0.8,0.8-1.2,1.1l-1.1,1c-1.5,1.2-2.7,2.7-3.5,4.5c-0.1,0.5-0.3,0.9-0.3,1.4
			c-0.1,0.6-0.3,1.2-0.5,1.7c-0.5,1.1-1.1,2-1.9,2.9c-0.7,0.9-1.5,1.7-2.3,2.4c-0.5,0.4-1,0.8-1.6,1.1c-0.7,0.4-1.5,0.5-2.3,0.3
			c-0.7-0.2-1.3-0.6-1.8-1.2c-0.4-0.5-0.7-0.9-1-1.2c-0.2-0.2-0.4-0.4-0.7-0.5c-0.3,0-0.6,0.1-0.8,0.2c-0.8,0.5-1.5,1.2-2.1,1.9
			c-0.6,0.8-1.3,1.6-2,2.4c-1.4,1.8-3.2,3.2-5.2,4.2c-0.6,0.2-1.2,0.4-1.8,0.4c-0.6,0-1.2,0-1.8-0.1c-1.1-0.2-1.7-0.2-2.4,0.3
			c-0.7,0.6-1.4,1.4-1.8,2.2c-0.5,0.9-1,1.8-1.5,2.7s-0.9,1.9-1.3,2.8c-0.4,1-0.9,2-1.6,2.9c-0.7,0.9-1.6,1.6-2.7,2.2
			c-1,0.5-2,0.9-3,1.3c-0.9,0.3-1.7,0.8-2.3,1.4c-0.4,0.8-0.3,1.8,0.2,2.6c0.4,1,0.8,2,1.1,3c0.3,1.1,0.3,2.3,0.1,3.4
			c-0.6,2.2-1.9,4.1-3.6,5.5c-1.6,1.5-3.4,2.6-4.8,4.1c-1.5,1.5-2.8,3.1-3.9,4.8c-1.1,1.7-2,3.7-3.2,5.5c-1.2,1.8-2.6,3.4-4.2,4.9
			c-1.5,1.5-3.1,2.9-4.7,4.2c-1.6,1.3-3.1,2.7-4.5,4.3c-1.3,1.5-2.1,3.6-1.4,5.4c0.4,1,0.9,1.9,1.4,2.8c0.5,0.9,1,1.8,1.5,2.8
			c0.2,0.6,0.3,1.2,0.2,1.8c-0.1,0.6-0.4,1.1-0.8,1.6c-0.7,0.9-1.4,1.7-2.1,2.4c-1.5,1.4-3,2.9-4.3,4.5c-1.3,1.6-2.3,3.5-2.8,5.5
			c-0.5,2-0.5,4.1,0.2,6.1c0.1,0.5,0.3,1,0.5,1.5c0.1,0.5,0.1,1.1,0.1,1.7c-0.2,1.1-0.5,2.1-0.9,3.1c-0.8,2-1.7,3.9-2.8,5.7
			c-0.5,0.9-1.1,1.8-1.7,2.7c-0.6,0.8-1.1,1.7-1.5,2.7c-0.3,1-0.4,2-0.3,3c0.2,1,0.6,2,1.3,2.7l-0.3,0.3c-0.7-0.8-1.2-1.8-1.4-2.9
			c-0.2-1.1-0.1-2.2,0.2-3.2c0.4-1,0.9-2,1.5-2.8c0.6-0.9,1.1-1.8,1.7-2.7c1.1-1.8,2-3.7,2.8-5.7c0.4-1,0.7-2,0.8-3
			c0.1-0.5,0.1-1,0-1.5c-0.2-0.5-0.3-1-0.5-1.5C6,598,6,595.7,6.5,593.6c0.5-2.1,1.5-4,2.8-5.6c1.4-1.6,2.8-3.2,4.3-4.6
			c0.7-0.7,1.4-1.5,2-2.3c0.3-0.4,0.5-0.8,0.6-1.3c0.1-0.5,0-0.9-0.2-1.3c-0.4-0.9-1-1.8-1.5-2.8c-0.5-0.9-1-1.9-1.4-2.9
			c-0.4-1.1-0.5-2.3-0.1-3.4c0.3-1.1,0.9-2,1.6-2.9c1.4-1.6,2.9-3.2,4.6-4.5c1.6-1.4,3.2-2.8,4.7-4.2c1.5-1.4,2.8-3,4-4.8
			c1.1-1.7,2-3.7,3.1-5.5c1.1-1.8,2.5-3.5,4-5c1.5-1.5,3.3-2.8,4.8-4.1c1.5-1.3,2.7-3,3.3-4.9c0.5-1.9-0.2-3.8-1-5.8
			c-0.2-0.5-0.4-1.1-0.5-1.6c-0.1-0.6,0-1.3,0.3-1.8c0.4-0.5,0.8-0.9,1.4-1.2c0.5-0.3,1-0.5,1.5-0.7c2-0.8,3.8-1.7,5-3.2
			c0.6-0.8,1-1.7,1.3-2.7c0.4-1,0.8-2,1.3-2.9s1-1.9,1.5-2.9c0.5-1,1.3-1.9,2.1-2.7c0.5-0.4,1.2-0.7,1.8-0.8c0.6,0,1.2,0,1.8,0.1
			c0.9,0.2,1.8,0.1,2.7-0.3c1.7-1,3.2-2.3,4.4-3.9c0.7-0.8,1.2-1.6,2-2.5c0.7-0.9,1.6-1.7,2.5-2.4c0.6-0.4,1.4-0.6,2.2-0.5
			c0.7,0.2,1.4,0.6,1.9,1.1c0.4,0.4,0.8,0.9,1.1,1.2c0.2,0.3,0.5,0.4,0.8,0.5c0.3,0.1,1.2-0.3,1.8-1c0.7-0.7,1.4-1.4,2-2.2
			c0.6-0.8,1-1.6,1.4-2.4c0.2-0.4,0.3-0.9,0.4-1.3c0.1-0.6,0.2-1.1,0.4-1.7c1.9-4.8,6.2-6.7,8-10c0.5-0.8,0.9-1.7,1.2-2.6L93,478
			c0.1-0.4,0.3-0.8,0.6-1.1c0.3-0.3,0.6-0.6,1-0.7c0.3-0.1,0.7-0.2,1-0.2c0.4,0.1,0.8,0.2,1.2,0.4l0.8,0.4c0.5,0.3,0.9,0.6,1.4,0.9
			l1.3,0.9c0.4,0.3,0.8,0.5,1.2,0.8c0.3,0.2,0.6,0.3,1,0.4c0.1,0,0.1,0,0,0c0,0-0.1,0-0.1,0.1c0.2-0.3,0.3-0.6,0.3-0.9
			c0.1-0.4,0.2-0.9,0.3-1.5c0.2-1.1,0.5-2.2,0.9-3.3c0.5-1.2,1.2-2.3,2.1-3.2c1-0.9,2.2-1.5,3.4-1.8c0.6-0.2,1.2-0.3,1.8-0.3
			c0.6,0,1.1-0.1,1.7-0.1c2.3-0.2,4.7,0.2,6.9,1c1.2,0.5,2.2,1.2,3.1,2c0.9,0.8,1.6,1.7,2.3,2.8c0.5,0.8,1,1.6,1.6,2.4
			c0,0.1,0,0.1,0,0s-0.1,0-0.1,0h-0.1c0,0,0.1,0,0.2,0c0.3,0,0.7-0.1,1-0.2c1.8-0.8,3.5-1.8,5-3.1c1.6-1.3,3.1-2.8,4.4-4.4
			c2.7-3.1,4.7-6.8,5.8-10.8c0.5-2,0.6-4,0.3-6c-0.3-2-0.8-4-1.6-5.9c-0.2-0.5-0.4-1.1-0.5-1.6c-0.1-0.4-0.1-0.8,0.1-1.1
			c0.2-0.4,0.5-0.7,0.9-0.9c0.5-0.2,1.1-0.3,1.6-0.5c0.5-0.1,0.9-0.3,1.3-0.5c1.6-1.1,2.9-2.7,3.5-4.5c1.4-3.9,2.1-8,2.3-12.2
			c0-2.2,0.3-4.3,0.8-6.4c0.6-2.1,1.5-4.2,2.7-6c2.4-3.7,5.7-6.5,8.6-9.5c1.5-1.4,2.8-3,4.1-4.6c1.2-1.6,2.2-3.5,3.5-5.2
			c1.3-1.7,2.6-3.4,4.1-5c1.4-1.5,2.7-3.1,3.8-4.8c0.5-0.8,0.9-1.6,1.1-2.5c0.1-0.4,0.1-1,0.3-1.6c0.2-0.7,0.5-1.3,1-1.8
			c0.8-0.8,1.7-1.6,2.7-2.2c0.9-0.6,1.9-1.1,2.8-1.7c1.9-1,3.7-2,5.6-3s3.7-2,5.4-3.1c3.4-2.1,5.9-5.4,8.6-8.6
			c1.3-1.6,2.7-3.3,4-4.9c1.3-1.6,2.4-3.3,3.4-5.1c1-1.8,1.8-3.6,2.5-5.6c0.7-1.9,1.2-3.9,1.7-6c0.4-2.2,1.3-4.4,2.5-6.3
			c0.7-1,1.7-1.8,2.8-2.4c0.5-0.3,1.1-0.5,1.6-0.7l1.6-0.5c3.9-1.2,7.3-3.4,10.1-6.4c1.4-1.5,2.7-3.1,3.8-4.8
			c1.2-1.7,2.2-3.5,3.2-5.4c1-1.8,1.9-3.7,2.8-5.6c0.9-1.8,1.4-3.7,1.4-5.7c-0.2-2-0.8-3.9-1.9-5.6c-0.5-1-1-2-1.3-3
			c-0.4-1.1-0.5-2.2-0.6-3.3c0-1.1,0.1-2.2,0.3-3.3c0.2-1.1,0.5-2.1,0.8-3.1c0.3-1.1,0.7-2.1,1.1-3.1c0.5-1,1.2-2,2-2.7
			c0.8-0.8,1.7-1.4,2.4-2s1.5-1.4,2.2-2.1c1.4-1.5,2.8-3.1,4-4.8c2.5-3.3,4.6-6.9,6.3-10.7c1.5-3.9,2.8-7.9,3.9-12
			c0.6-2.1,1.4-4.1,2.2-6.1l0.7-1.5l0.8-1.4c0.5-1,1-1.9,1.5-2.8c1-1.8,2-3.7,2.9-5.5c0.9-1.7,1.5-3.6,1.8-5.5c0.3-2,0.4-4,0.3-6
			c0-0.5,0-1,0-1.6c0-0.6,0.1-1.2,0.1-1.7c0.1-1.1,0.4-2.3,0.7-3.4c1.4-4.4,3.9-7.9,6.2-11.4c2.5-3.4,4.5-7,6.2-10.9
			c0.8-1.9,1.3-3.9,1.6-6c0.4-2,0-4-1.1-5.6c-0.3-0.4-0.6-0.8-1-1.2c-0.4-0.4-0.7-1-0.9-1.5c-0.2-0.6-0.2-1.3,0.1-1.9
			c0.3-0.5,0.8-0.9,1.4-1.2c0.9-0.4,1.8-1,2.5-1.7c0.6-0.7,1.1-1.6,1.3-2.6c0.4-2,0.4-4.1,0.1-6.1l-0.3-3.1c0-0.2,0-0.4-0.1-0.6
			c-0.1-0.3-0.2-0.6-0.2-0.9c-0.1-0.5-0.2-1.1-0.3-1.6c-0.3-2.1-0.7-4.2-0.9-6.3c-0.1-0.5-0.1-1.1,0-1.6c0-0.6,0.1-1.2,0.5-1.8
			c0.2-0.3,0.6-0.5,0.9-0.6c0.3,0,0.6,0,0.9,0c0.5,0.1,1,0.2,1.5,0.2c0.9,0,1.8-0.5,2.2-1.4c0.5-0.9,0.8-1.9,1-2.9
			c0.4-2.1,0.6-4.1,0.6-6.2c0.1-2.1,0-4.2-0.2-6.2c0-0.5-0.2-1-0.3-1.5c-0.1-0.3-0.2-0.5-0.3-0.8c0-0.3,0-0.6,0.1-0.9
			c0.3-1,0.6-2,1-3c0.7-2,1.8-3.9,3.2-5.6c1.4-1.6,3-3,4.3-4.6c2.6-3.3,4.8-6.9,6.4-10.7c0.9-1.9,1.6-3.9,2-5.9c0.2-1,0.2-2-0.2-3
			c-0.1-0.2-0.2-0.5-0.3-0.8c-0.1-0.3-0.1-0.7,0-1c0.2-0.5,0.5-1,0.9-1.4c0.7-0.8,1.5-1.5,2.3-2.2s1.5-1.5,2.2-2.2
			c1.4-1.5,2.7-3.2,3.8-5c2.2-3.6,3.9-7.5,5.1-11.5c0.7-2,1.3-4,1.9-6c0.6-2,0.9-4.1,0.9-6.2c-0.2-2.1-0.7-4.1-1.5-6.1
			c-0.2-0.5-0.3-1-0.5-1.5c-0.1-0.5-0.2-1.1-0.1-1.7c0.2-1,0.7-2,1.3-2.8c2.6-3.4,6.1-5.9,8.6-9.2c0.6-0.8,1.2-1.7,1.5-2.7
			c0.2-0.5,0.3-1,0.4-1.5c0-0.5,0-1,0-1.6c-0.1-2.1-0.1-4.2,0.1-6.3c0.3-2.1,0.6-4.2,1-6.3c0.2-2.1,0.8-4.2,1.8-6.1
			c0.6-1,1.4-1.7,2.4-2.2c1-0.5,2-0.7,3-1.1c1.9-0.8,3.5-2.2,4.5-4L356.2,0.2z"/>
		<path d="M194.5,191h1.5l2.3,7.2l2.3-7.2h1.5l-2.7,8.6h-2.1L194.5,191z"/>
		<path d="M207.7,199.6l-0.6-1.9h-3.4l-0.6,1.9h-1.5l2.7-8.6h2.1l2.7,8.6H207.7z M204.1,196.4h2.5l-1.3-4L204.1,196.4z"/>
		<path d="M210.4,191h1.4v7.3h3.8v1.4h-5.3V191z"/>
		<path d="M215.6,195.2h3.6v1.1h-3.6V195.2z"/>
		<path d="M223.5,191c0.4,0,0.8,0,1.1,0c0.7,0.1,1.2,0.3,1.7,0.7c0.5,0.4,0.8,0.9,1.1,1.5c0.2,0.6,0.4,1.3,0.4,2s-0.1,1.4-0.4,2
			c-0.2,0.6-0.6,1.1-1.1,1.5c-0.5,0.4-1.1,0.6-1.7,0.7c-0.3,0-0.6,0-1.1,0h-2.7V191H223.5z M224.4,198.2c0.6-0.1,1-0.4,1.3-1
			s0.4-1.2,0.4-1.9c0-0.7-0.1-1.4-0.4-1.9c-0.3-0.5-0.7-0.9-1.3-1c-0.2,0-0.5-0.1-1-0.1h-1.3v5.9h1.3
			C223.9,198.2,224.2,198.2,224.4,198.2z"/>
		<path d="M229.9,193.2c0.1-0.1,0.2-0.3,0.2-0.5c0-0.1,0-0.2,0-0.2h-0.8V191h1.5v1.6c0,0.5-0.1,0.8-0.3,1.1
			c-0.2,0.3-0.5,0.4-0.9,0.4c-0.1,0-0.2,0-0.3,0l0.1-0.6C229.6,193.4,229.8,193.4,229.9,193.2z"/>
		<path d="M232.6,191h1.4v8.6h-1.4V191z"/>
		<path d="M236,191h1.4v7.3h3.8v1.4H236V191z"/>
		<path d="M242.4,191h1.4v7.3h3.8v1.4h-5.3V191z"/>
		<path d="M248.8,191h1.4v8.6h-1.4V191z"/>
		<path d="M252,191h5.6v1.4h-4.1v2.1h3.4v1.3h-3.4v2.4h4.1v1.4H252V191z"/>
		<path d="M258.8,199.4l4.3-7.1h-4V191h6.5v0.2l-4.2,7.1h4.1v1.4h-6.7V199.4z"/>
		<g>
			<path d="M95.2,390.9c-0.6-0.4-1.1-0.9-1.4-1.6s-0.5-1.5-0.5-2.4c0-0.9,0.2-1.7,0.5-2.4s0.8-1.2,1.4-1.6s1.4-0.6,2.2-0.6
				c1,0,1.8,0.2,2.5,0.7s1.1,1.2,1.4,2l-1.5,0.4c-0.2-0.6-0.5-1-0.9-1.3c-0.4-0.3-0.9-0.5-1.6-0.5c-0.8,0-1.5,0.3-1.9,0.8
				c-0.4,0.6-0.7,1.3-0.7,2.3c0,1,0.2,1.7,0.7,2.3c0.5,0.6,1.1,0.8,2,0.8c0.6,0,1.2-0.2,1.6-0.5c0.4-0.3,0.7-0.8,0.9-1.3l1.5,0.4
				c-0.3,0.9-0.7,1.5-1.4,2s-1.5,0.7-2.5,0.7C96.5,391.4,95.8,391.2,95.2,390.9z"/>
			<path d="M102.6,382.6h1.4v3.6h4.1v-3.6h1.5v8.6h-1.5v-3.6H104v3.6h-1.4V382.6z"/>
			<path d="M116.7,391.2l-0.6-1.9h-3.4l-0.6,1.9h-1.5l2.7-8.6h2.1l2.7,8.6H116.7z M113.1,388h2.5l-1.3-4L113.1,388z"/>
			<path d="M119.3,382.6h1.3l3,6.1l3-6.1h1.3v8.6h-1.4v-5.5l-2.6,5.5h-0.6l-2.7-5.5v5.5h-1.4V382.6z"/>
			<path d="M133.1,382.6c0.3,0,0.5,0,0.7,0c0.7,0.1,1.3,0.4,1.6,0.9c0.4,0.5,0.6,1.1,0.6,1.9c0,0.7-0.2,1.4-0.6,1.8
				c-0.4,0.5-0.9,0.8-1.6,0.9c-0.2,0-0.4,0-0.7,0H131v3h-1.4v-8.6H133.1z M133.6,386.8c0.3-0.1,0.6-0.3,0.7-0.5
				c0.2-0.3,0.2-0.6,0.2-0.9s-0.1-0.6-0.2-0.9c-0.2-0.3-0.4-0.4-0.7-0.5c-0.1,0-0.3-0.1-0.5-0.1H131v2.9h2.1
				C133.3,386.9,133.4,386.9,133.6,386.8z"/>
			<path d="M142.8,382.6v1.4h-4.1v2.1h3.4v1.3h-3.4v2.4h4.1v1.4h-5.6v-8.6H142.8z M138.1,380.8l3.2-1.2l0.4,1.1l-3.2,1.2
				L138.1,380.8z"/>
			<path d="M149.2,391.2l-1.5-3h-2.1v3h-1.4v-8.6h3.6c0.3,0,0.5,0,0.7,0c0.7,0.1,1.3,0.4,1.6,0.9c0.4,0.5,0.6,1.1,0.6,1.9
				c0,0.6-0.1,1.1-0.4,1.6s-0.6,0.8-1.1,1l1.6,3.3H149.2z M145.7,386.9h2.1c0.2,0,0.4,0,0.5-0.1c0.3-0.1,0.6-0.3,0.7-0.5
				c0.2-0.3,0.2-0.6,0.2-0.9s-0.1-0.6-0.2-0.9c-0.2-0.3-0.4-0.4-0.7-0.5c-0.1,0-0.3-0.1-0.5-0.1h-2.1V386.9z"/>
			<path d="M154.1,387.7l-2.9-5.1h1.7l2,3.4l2-3.4h1.7l-2.9,5.1v3.5h-1.5V387.7z"/>
		</g>
		<g class="st0">
			<path d="M389.8,454.3c0.4,0,0.8,0,1.1,0c0.7,0.1,1.2,0.3,1.7,0.7c0.5,0.4,0.8,0.9,1.1,1.5c0.2,0.6,0.4,1.3,0.4,2s-0.1,1.4-0.4,2
				c-0.2,0.6-0.6,1.1-1.1,1.5c-0.5,0.4-1.1,0.6-1.7,0.7c-0.3,0-0.6,0-1.1,0H387v-8.6H389.8z M390.7,461.5c0.6-0.1,1-0.4,1.3-1
				s0.4-1.2,0.4-1.9c0-0.7-0.1-1.4-0.4-1.9c-0.3-0.5-0.7-0.9-1.3-1c-0.2,0-0.5-0.1-1-0.1h-1.3v5.9h1.3
				C390.2,461.5,390.6,461.5,390.7,461.5z"/>
			<path d="M395.4,454.3h5.6v1.4h-4.1v2.1h3.4v1.3h-3.4v2.4h4.1v1.4h-5.6V454.3z"/>
			<path d="M402.5,454.3h1.5l4,6.1v-6.1h1.5v8.6h-1.5l-4-6.1v6.1h-1.5V454.3z"/>
			<path d="M413.2,455.6h-2.8v-1.4h7v1.4h-2.8v7.3h-1.5V455.6z"/>
			<path d="M419.2,462.4c-0.7-0.5-1-1.2-1.2-2l1.5-0.2c0.1,0.5,0.4,0.9,0.8,1.2c0.4,0.3,0.9,0.4,1.4,0.4c0.5,0,0.9-0.1,1.3-0.3
				c0.4-0.2,0.5-0.5,0.5-0.9c0-0.2-0.1-0.5-0.2-0.6c-0.2-0.2-0.4-0.3-0.7-0.4l-2.2-0.6c-0.5-0.2-1-0.4-1.4-0.7s-0.6-0.8-0.6-1.5
				c0-0.5,0.1-1,0.4-1.4c0.3-0.4,0.7-0.7,1.1-0.9c0.5-0.2,1-0.3,1.6-0.3c0.9,0,1.6,0.2,2.2,0.7c0.6,0.4,1,1.1,1.2,1.9l-1.6,0.3
				c-0.1-0.5-0.3-0.8-0.7-1.1c-0.4-0.3-0.8-0.4-1.3-0.4c-0.4,0-0.8,0.1-1.1,0.3c-0.3,0.2-0.5,0.5-0.5,0.8c0,0.3,0.1,0.5,0.3,0.7
				c0.2,0.2,0.5,0.3,0.9,0.4l1.5,0.4c0.4,0.1,0.8,0.3,1.1,0.4c0.3,0.1,0.6,0.4,0.8,0.7c0.2,0.3,0.4,0.7,0.4,1.3
				c0,0.6-0.2,1.1-0.5,1.5c-0.3,0.4-0.7,0.7-1.2,0.9c-0.5,0.2-1.1,0.3-1.7,0.3C420.6,463.1,419.8,462.8,419.2,462.4z"/>
		</g>
		<g class="st0">
			<path d="M388.2,468.7c0.4,0,0.8,0,1.1,0c0.7,0.1,1.2,0.3,1.7,0.7c0.5,0.4,0.8,0.9,1.1,1.5c0.2,0.6,0.4,1.3,0.4,2s-0.1,1.4-0.4,2
				c-0.2,0.6-0.6,1.1-1.1,1.5c-0.5,0.4-1,0.6-1.7,0.7c-0.3,0-0.6,0-1.1,0h-2.7v-8.6H388.2z M389.1,475.9c0.6-0.1,1-0.4,1.3-1
				s0.4-1.2,0.4-1.9c0-0.7-0.1-1.4-0.4-1.9c-0.3-0.5-0.7-0.9-1.3-1c-0.2,0-0.5-0.1-1-0.1h-1.3v5.9h1.3
				C388.6,475.9,388.9,475.9,389.1,475.9z"/>
			<path d="M395.5,477.1c-0.5-0.3-0.9-0.7-1.2-1.2s-0.4-1.1-0.4-1.8v-5.4l1.5,0v5.4c0,0.4,0.1,0.8,0.3,1.1c0.2,0.3,0.4,0.6,0.7,0.7
				c0.3,0.2,0.6,0.3,1,0.3c0.4,0,0.7-0.1,1-0.3c0.3-0.2,0.6-0.4,0.7-0.7c0.2-0.3,0.3-0.7,0.3-1.1v-5.4h1.5v5.4
				c0,0.7-0.1,1.3-0.4,1.8s-0.7,0.9-1.2,1.2c-0.5,0.3-1.1,0.4-1.8,0.4C396.6,477.5,396,477.3,395.5,477.1z"/>
			<path d="M404.9,468.7h1.3l3,6.1l3-6.1h1.3v8.6h-1.4v-5.5l-2.6,5.5h-0.6l-2.7-5.5v5.5h-1.4V468.7z"/>
			<path d="M415.2,468.7h1.4v8.6h-1.4V468.7z"/>
			<path d="M421.2,468.7c0.4,0,0.8,0,1.1,0c0.7,0.1,1.2,0.3,1.7,0.7c0.5,0.4,0.8,0.9,1.1,1.5c0.2,0.6,0.4,1.3,0.4,2s-0.1,1.4-0.4,2
				c-0.2,0.6-0.6,1.1-1.1,1.5c-0.5,0.4-1,0.6-1.7,0.7c-0.3,0-0.6,0-1.1,0h-2.7v-8.6H421.2z M422.2,475.9c0.6-0.1,1-0.4,1.3-1
				s0.4-1.2,0.4-1.9c0-0.7-0.1-1.4-0.4-1.9c-0.3-0.5-0.7-0.9-1.3-1c-0.2,0-0.5-0.1-1-0.1H420v5.9h1.3
				C421.7,475.9,422,475.9,422.2,475.9z"/>
			<path d="M427,468.7h1.4v8.6H427V468.7z"/>
		</g>
	</g>
</g>
</svg>
