<svg xmlns="http://www.w3.org/2000/svg" viewBox="0 0 429.41 623.25"><defs><style>.cls-1{font-size:12px;font-family:Manrope-Bold, Manrope;font-weight:700;}.cls-2{letter-spacing:-0.07em;}.cls-3{letter-spacing:-0.08em;}.cls-4{letter-spacing:-0.01em;}.cls-5{letter-spacing:-0.04em;}</style></defs><g id="Layer_2" data-name="Layer 2"><g id="Layer_3" data-name="Layer 3"><path d="M356.16.24a10.83,10.83,0,0,1-2,2.52,8.58,8.58,0,0,1-2.76,1.67c-1,.38-2,.63-2.95,1.07a5.06,5.06,0,0,0-2.19,2,17,17,0,0,0-1.73,6c-.35,2.08-.72,4.16-1,6.24a43.92,43.92,0,0,0-.1,6.29c0,.53,0,1.05,0,1.6a6.15,6.15,0,0,1-.38,1.59A10.79,10.79,0,0,1,341.41,32c-2.6,3.39-6.16,5.84-8.65,9.2A6.59,6.59,0,0,0,331.49,44a3.57,3.57,0,0,0,.07,1.49c.14.48.31,1,.48,1.49a20.27,20.27,0,0,1,1.5,6.18,23.47,23.47,0,0,1-.92,6.3c-.54,2-1.19,4.05-1.86,6.06a55.08,55.08,0,0,1-5.15,11.59,33.79,33.79,0,0,1-3.88,5c-.72.79-1.46,1.54-2.23,2.27s-1.56,1.43-2.25,2.2a3.71,3.71,0,0,0-.81,1.19c-.15.38.07.79.27,1.32a6.3,6.3,0,0,1,.21,3.27,27.07,27.07,0,0,1-2,6.08,45,45,0,0,1-6.5,10.91c-1.35,1.65-2.93,3.09-4.29,4.65a16.22,16.22,0,0,0-3,5.35c-.36,1-.67,2-1,3a2.77,2.77,0,0,0-.11.63c0,.08.18.37.27.65a7.38,7.38,0,0,1,.36,1.62,47.08,47.08,0,0,1,.21,6.38,39,39,0,0,1-.57,6.36,10.89,10.89,0,0,1-1,3.12,3.77,3.77,0,0,1-1.16,1.33,3,3,0,0,1-1.74.5,12.72,12.72,0,0,1-1.62-.18c-.51-.06-.88,0-1,.22a2.65,2.65,0,0,0-.29,1.27c0,.5,0,1,.06,1.52.22,2,.58,4.16.92,6.22.09.52.18,1,.29,1.53a3.18,3.18,0,0,0,.19.67,3,3,0,0,1,.19.91l.29,3.16a20,20,0,0,1-.09,6.45,6.83,6.83,0,0,1-1.52,3,9.94,9.94,0,0,1-2.67,1.94,2.57,2.57,0,0,0-1,.84,1.55,1.55,0,0,0,0,1.15c.21.81,1.07,1.49,1.74,2.38a6.81,6.81,0,0,1,1.35,3.1,11.41,11.41,0,0,1,0,3.3,30.51,30.51,0,0,1-1.62,6.23,113,113,0,0,1-5.35,11.6,57.71,57.71,0,0,0-4.69,11.3,19.9,19.9,0,0,0-.51,2.82c0,.47-.07.94-.07,1.41v1.56a45.4,45.4,0,0,1-.41,6.58,21,21,0,0,1-2.28,6.46c-1,1.95-2.16,3.74-3.28,5.53-.55.9-1.15,1.8-1.66,2.67l-.78,1.32-.71,1.35a51.05,51.05,0,0,0-2.44,5.66l-2.11,6c-.73,2-1.56,4-2.45,5.93a59.7,59.7,0,0,1-6.76,10.89,56.21,56.21,0,0,1-4.13,4.89c-.74.78-1.53,1.52-2.34,2.23s-1.68,1.35-2.41,2a7.13,7.13,0,0,0-1.71,2.29,21,21,0,0,0-1,2.86,20.1,20.1,0,0,0-1.1,6,11.46,11.46,0,0,0,1.77,5.62,24.81,24.81,0,0,1,1.45,2.92,9.48,9.48,0,0,1,.73,3.34,15.13,15.13,0,0,1-1.45,6.5c-.88,2-1.78,3.86-2.76,5.76a63,63,0,0,1-3.19,5.57,37.58,37.58,0,0,1-3.93,5.16A25.42,25.42,0,0,1,227,330l-1.46.5a12.27,12.27,0,0,0-1.27.58,6.22,6.22,0,0,0-2,1.71,15.38,15.38,0,0,0-2.05,5.41c-.49,2-1,4.15-1.71,6.2a37.58,37.58,0,0,1-2.64,6,44.06,44.06,0,0,1-3.57,5.45c-1.34,1.73-2.69,3.28-4,4.93s-2.72,3.25-4.21,4.83a26.31,26.31,0,0,1-5.09,4.24c-1.85,1.17-3.74,2.14-5.6,3.13s-3.75,2-5.57,3c-.91.5-1.8,1-2.65,1.56a11.19,11.19,0,0,0-2.23,1.73,2.15,2.15,0,0,0-.52.89c-.1.36-.17.91-.32,1.49a10.5,10.5,0,0,1-1.43,3.23,36,36,0,0,1-4.15,5,54,54,0,0,0-4,4.73c-.62.82-1.18,1.67-1.75,2.55a29,29,0,0,1-1.85,2.67,48.37,48.37,0,0,1-4.36,4.76c-3,3-6.27,5.67-8.53,9.06a19.26,19.26,0,0,0-2.54,5.46,31.51,31.51,0,0,0-.78,6.12,44,44,0,0,1-2.57,12.57A10.17,10.17,0,0,1,146,443a7.61,7.61,0,0,1-1.6.66c-.53.16-1.1.27-1.43.42-.18.08-.18.11-.2.13a1.19,1.19,0,0,0,0,.42,8.28,8.28,0,0,0,.44,1.37,25.76,25.76,0,0,1,1.65,6.27,18.34,18.34,0,0,1-.38,6.52,28.57,28.57,0,0,1-6.12,11.29c-1.37,1.63-2.66,3.31-4.05,5a17.61,17.61,0,0,1-5,4.56,5.7,5.7,0,0,1-2,.65,3.49,3.49,0,0,1-1.4-.13,2.68,2.68,0,0,1-.78-.35,3.08,3.08,0,0,1-.38-.28,1.89,1.89,0,0,1-.26-.27,23.91,23.91,0,0,1-1.93-2.82,8.38,8.38,0,0,0-3.88-3.53,13.44,13.44,0,0,0-5.52-.83c-.48,0-1,.05-1.47.09a7.67,7.67,0,0,0-1.3.22,5.08,5.08,0,0,0-2.12,1.08c-1.17,1-1.73,2.77-2.13,4.79-.11.51-.21,1-.36,1.62a5.71,5.71,0,0,1-.89,2,2.93,2.93,0,0,1-1.4,1,3.22,3.22,0,0,1-1.53,0,6.42,6.42,0,0,1-1.91-.8,17.14,17.14,0,0,1-1.44-1l-1.26-.92c-.42-.29-.84-.59-1.25-.84-.2-.13-.4-.25-.57-.34a2.08,2.08,0,0,0-.32-.14.94.94,0,0,0,.3,0,.78.78,0,0,0,.35-.24c.06-.09,0,.09-.12.28l-.51,1.5a15,15,0,0,1-1.55,3.11,17.37,17.37,0,0,1-2.15,2.66c-.39.4-.82.79-1.22,1.15l-1.14,1a13.4,13.4,0,0,0-3.51,4.45,11.82,11.82,0,0,0-.34,1.39,10,10,0,0,1-.53,1.73,12.91,12.91,0,0,1-1.88,2.93,19.67,19.67,0,0,1-2.32,2.44A7.1,7.1,0,0,1,79,502.35a3.33,3.33,0,0,1-2.27.31,3.7,3.7,0,0,1-1.81-1.19c-.41-.45-.72-.87-1-1.2a1.64,1.64,0,0,0-.73-.55,1.24,1.24,0,0,0-.82.23,9.35,9.35,0,0,0-2.09,1.9c-.64.75-1.3,1.63-2,2.44a15.42,15.42,0,0,1-5.16,4.24,5.65,5.65,0,0,1-1.78.42,7.13,7.13,0,0,1-1.76-.12c-1.1-.21-1.73-.25-2.42.3a8,8,0,0,0-1.83,2.21c-.53.87-1,1.77-1.49,2.71s-.9,1.88-1.33,2.84a12.15,12.15,0,0,1-1.56,2.91A8.8,8.8,0,0,1,48.3,522a24,24,0,0,1-3,1.32A5.13,5.13,0,0,0,43,524.75a2.92,2.92,0,0,0,.15,2.59,27.77,27.77,0,0,1,1.08,3,7.14,7.14,0,0,1,.09,3.38,11.16,11.16,0,0,1-3.61,5.5c-1.62,1.45-3.36,2.61-4.82,4.06A25.46,25.46,0,0,0,32,548.13c-1.15,1.73-2,3.65-3.19,5.47a30.9,30.9,0,0,1-4.17,4.87c-1.53,1.49-3.15,2.86-4.74,4.23A36.13,36.13,0,0,0,15.38,567c-1.3,1.55-2.14,3.57-1.39,5.44a30.9,30.9,0,0,0,1.35,2.79c.49.93,1,1.81,1.48,2.84a3.15,3.15,0,0,1,.23,1.76,4,4,0,0,1-.75,1.56,22.57,22.57,0,0,1-2.14,2.41,52.75,52.75,0,0,0-4.33,4.54A14.58,14.58,0,0,0,7,593.84a11.26,11.26,0,0,0,.16,6.09c.13.51.31,1,.47,1.52a4.5,4.5,0,0,1,.06,1.67,13.64,13.64,0,0,1-.86,3.11A38.16,38.16,0,0,1,4,611.9c-.55.91-1.12,1.8-1.72,2.67a10.29,10.29,0,0,0-1.51,2.7,5.93,5.93,0,0,0-.26,3A5.79,5.79,0,0,0,1.81,623l-.27.26a6.06,6.06,0,0,1-1.43-2.9,6.3,6.3,0,0,1,.24-3.22,10.65,10.65,0,0,1,1.54-2.81c.59-.87,1.15-1.76,1.69-2.66A38.67,38.67,0,0,0,6.37,606a13.15,13.15,0,0,0,.8-3,4,4,0,0,0,0-1.47c-.15-.46-.35-1-.49-1.5a11.86,11.86,0,0,1-.21-6.39A15.12,15.12,0,0,1,9.3,588a53.33,53.33,0,0,1,4.35-4.64,21.14,21.14,0,0,0,2-2.33,3.37,3.37,0,0,0,.61-1.27,2.34,2.34,0,0,0-.2-1.33c-.39-.91-1-1.82-1.46-2.75a28.71,28.71,0,0,1-1.42-2.89,5.19,5.19,0,0,1-.12-3.37,8.69,8.69,0,0,1,1.6-2.89A37.07,37.07,0,0,1,19.25,562c1.59-1.4,3.18-2.77,4.67-4.23a30.6,30.6,0,0,0,4-4.75c1.13-1.69,2-3.68,3.13-5.48a27,27,0,0,1,4-5c1.52-1.54,3.3-2.75,4.81-4.13a10.63,10.63,0,0,0,3.27-4.89c.54-1.9-.16-3.84-1-5.81a8,8,0,0,1-.45-1.64,2.84,2.84,0,0,1,.35-1.85A3.68,3.68,0,0,1,43.43,523a12.46,12.46,0,0,1,1.48-.71c2-.79,3.83-1.65,5-3.23a10.77,10.77,0,0,0,1.35-2.67c.41-1,.83-2,1.29-2.92s.95-1.92,1.5-2.86a9.29,9.29,0,0,1,2.14-2.66,3.49,3.49,0,0,1,1.82-.78,6.9,6.9,0,0,1,1.77.12,4.4,4.4,0,0,0,2.66-.26,13.65,13.65,0,0,0,4.41-3.88c.66-.79,1.24-1.62,2-2.49a11.13,11.13,0,0,1,2.52-2.39,3.22,3.22,0,0,1,2.19-.51,3.5,3.5,0,0,1,1.88,1.12c.42.43.75.85,1.06,1.17a1.7,1.7,0,0,0,.79.55c.32.12,1.15-.31,1.82-.95a18.23,18.23,0,0,0,2-2.2A10.39,10.39,0,0,0,82.49,495a7.94,7.94,0,0,0,.36-1.3,11.16,11.16,0,0,1,.38-1.68c1.9-4.79,6.2-6.7,8-10a12.42,12.42,0,0,0,1.21-2.58L93,478a3.55,3.55,0,0,1,.57-1.13,2.09,2.09,0,0,1,1-.7A2.21,2.21,0,0,1,95.6,476a4.27,4.27,0,0,1,1.16.4l.8.44c.49.3.94.6,1.39.91l1.32.91c.43.29.81.55,1.21.77a3.8,3.8,0,0,0,1,.42c.1,0,.12,0,0,0a.56.56,0,0,0-.14.07,2.92,2.92,0,0,0,.33-.89c.11-.44.21-.94.31-1.47a18.94,18.94,0,0,1,.91-3.31,8.52,8.52,0,0,1,2.13-3.2,8.29,8.29,0,0,1,3.43-1.82,10.48,10.48,0,0,1,1.81-.34c.58-.05,1.11-.1,1.68-.11a16.37,16.37,0,0,1,6.9,1,11,11,0,0,1,3.14,2,14,14,0,0,1,2.27,2.75,25.74,25.74,0,0,0,1.64,2.39c0,.06,0,.06,0,0s-.06,0-.06-.05l-.07,0s.06,0,.16,0a3.7,3.7,0,0,0,1-.23,22,22,0,0,0,5-3.08,30.2,30.2,0,0,0,4.44-4.39,27.25,27.25,0,0,0,5.81-10.76,16.65,16.65,0,0,0,.34-6.05,23.79,23.79,0,0,0-1.58-5.92,10.22,10.22,0,0,1-.52-1.64,2.31,2.31,0,0,1,.06-1.15,1.67,1.67,0,0,1,.93-.91,15.57,15.57,0,0,1,1.6-.48,6.44,6.44,0,0,0,1.32-.55,8.79,8.79,0,0,0,3.5-4.55,42.25,42.25,0,0,0,2.3-12.16,32.14,32.14,0,0,1,.75-6.42,20.62,20.62,0,0,1,2.68-6c2.4-3.69,5.74-6.5,8.63-9.46a45.59,45.59,0,0,0,4.1-4.63c1.22-1.58,2.19-3.47,3.5-5.24a56.62,56.62,0,0,1,4.08-5,33.07,33.07,0,0,0,3.82-4.76,8.41,8.41,0,0,0,1.1-2.54c.1-.44.15-1,.33-1.61a4.67,4.67,0,0,1,1-1.83,13.55,13.55,0,0,1,2.72-2.18c.93-.6,1.85-1.14,2.78-1.66,1.88-1.05,3.73-2,5.59-3s3.71-2,5.41-3.06c3.39-2.11,5.94-5.38,8.64-8.61,1.32-1.61,2.71-3.28,4-4.87a41.67,41.67,0,0,0,3.39-5.09,35.53,35.53,0,0,0,2.5-5.56c.68-1.93,1.18-3.92,1.69-6a17.61,17.61,0,0,1,2.52-6.29,8.31,8.31,0,0,1,2.8-2.35,12,12,0,0,1,1.61-.71l1.55-.49a23.26,23.26,0,0,0,10.09-6.39,35.73,35.73,0,0,0,3.81-4.82,57.19,57.19,0,0,0,3.19-5.35c1-1.82,1.93-3.72,2.8-5.59a13.44,13.44,0,0,0,1.41-5.72,12,12,0,0,0-1.89-5.57,19.09,19.09,0,0,1-1.34-3,11.07,11.07,0,0,1-.56-3.33,14,14,0,0,1,.34-3.31c.25-1.09.52-2.08.83-3.12a20.38,20.38,0,0,1,1.14-3.07,8.5,8.5,0,0,1,2-2.74c.84-.75,1.67-1.36,2.45-2s1.53-1.39,2.24-2.13a52.49,52.49,0,0,0,4-4.76,51.26,51.26,0,0,0,6.3-10.73,107.6,107.6,0,0,0,3.85-12,51.69,51.69,0,0,1,2.23-6.08l.68-1.49.75-1.45c.51-1,1-1.86,1.53-2.8,1-1.83,2-3.68,2.91-5.49a17.64,17.64,0,0,0,1.78-5.46,40.69,40.69,0,0,0,.31-6c0-.54,0-1,0-1.61a17,17,0,0,1,.14-1.74,17.88,17.88,0,0,1,.73-3.37c1.37-4.37,3.91-7.93,6.25-11.43a53.69,53.69,0,0,0,6.16-10.9,27.5,27.5,0,0,0,1.61-6,7.25,7.25,0,0,0-1.13-5.64c-.3-.4-.65-.77-1-1.19a4.1,4.1,0,0,1-.9-1.54,2.49,2.49,0,0,1,.12-1.92,3.51,3.51,0,0,1,1.36-1.22A9.35,9.35,0,0,0,293,167a5.9,5.9,0,0,0,1.3-2.58,18.82,18.82,0,0,0,.09-6.14l-.27-3.14a2.58,2.58,0,0,0-.11-.63,4.68,4.68,0,0,1-.25-.85c-.11-.53-.2-1.05-.29-1.57-.33-2.11-.68-4.16-.9-6.3a11.15,11.15,0,0,1-.05-1.64,3.33,3.33,0,0,1,.46-1.75,1.41,1.41,0,0,1,.94-.57,3.14,3.14,0,0,1,.92,0,11,11,0,0,0,1.51.18,2.31,2.31,0,0,0,2.16-1.38,10.35,10.35,0,0,0,.95-2.86,39,39,0,0,0,.58-6.22,48.08,48.08,0,0,0-.18-6.25,6.63,6.63,0,0,0-.31-1.46,4.1,4.1,0,0,1-.31-.83,3,3,0,0,1,.14-.92c.31-1,.61-2,1-3a16.66,16.66,0,0,1,3.2-5.57c1.41-1.62,3-3,4.3-4.63a44.34,44.34,0,0,0,6.44-10.72,26.15,26.15,0,0,0,2-5.91,5.73,5.73,0,0,0-.16-3c-.09-.24-.2-.48-.28-.76a1.57,1.57,0,0,1,0-1,4.41,4.41,0,0,1,.94-1.4c.72-.8,1.53-1.5,2.28-2.22s1.51-1.46,2.22-2.23a34,34,0,0,0,3.84-5,54.44,54.44,0,0,0,5.15-11.46c.67-2,1.33-4,1.87-6a22.9,22.9,0,0,0,.94-6.17,20,20,0,0,0-1.46-6.06c-.16-.51-.32-1-.48-1.52a4,4,0,0,1-.07-1.65A7.09,7.09,0,0,1,332.45,41c2.57-3.43,6.1-5.88,8.65-9.21a10.75,10.75,0,0,0,1.55-2.68,6.34,6.34,0,0,0,.35-1.49c.05-.49,0-1,0-1.56a44.8,44.8,0,0,1,.1-6.34c.26-2.1.63-4.18,1-6.26a17.55,17.55,0,0,1,1.77-6.12,5.5,5.5,0,0,1,2.38-2.2c1-.48,2-.73,3-1.1a8.72,8.72,0,0,0,4.53-4Z"/><text class="cls-1" transform="translate(194.49 199.6)"><tspan class="cls-2">V</tspan><tspan x="6.85" y="0">A</tspan><tspan class="cls-3" x="14.9" y="0">L</tspan><tspan x="20.34" y="0">-D’ILLIEZ</tspan></text><text class="cls-1" transform="translate(92.86 391.25)">CHAMPÉ<tspan class="cls-4" x="50.52" y="0">R</tspan><tspan class="cls-5" x="58.27" y="0">Y</tspan></text><text class="cls-1" transform="translate(386.2 462.91)">DENTS <tspan x="-1.61" y="14.4">DU MIDI</tspan></text></g></g></svg>