<?xml version="1.0" encoding="UTF-8"?><svg id="Layer_2" xmlns="http://www.w3.org/2000/svg" viewBox="0 0 162.71 163.61"><defs><style>.cls-1{fill:#f05;}</style></defs><g id="Livello_1"><g><path class="cls-1" d="M2.05,77.37l-.24,3.69-1.8-.12,.61-9.31,1.8,.12-.24,3.69,9.69,.63-.12,1.92-9.69-.63Z"/><path class="cls-1" d="M1.57,65.62l.48-1.85,4.69,1.21,1.35-5.25-4.69-1.21,.48-1.86,11.15,2.88-.48,1.86-4.71-1.21-1.35,5.25,4.71,1.21-.48,1.85-11.15-2.88Z"/><path class="cls-1" d="M6.36,50.08l3.14-6.69,1.64,.77-2.33,4.96,2.58,1.21,1.92-4.1,1.62,.76-1.92,4.1,2.96,1.39,2.33-4.96,1.64,.77-3.14,6.69-10.43-4.89Z"/><path class="cls-1" d="M29.44,18.8l5.44-4.21,1.18,1.52-3.93,3.04,1.76,2.28,3.18-2.46,1.18,1.52-3.18,2.46,2.94,3.8-1.51,1.17-7.05-9.11Z"/><path class="cls-1" d="M46.84,20.06c-.96-.07-1.85-.4-2.66-1.01-.81-.6-1.48-1.43-2.02-2.49s-.82-2.08-.85-3.09c-.02-1.01,.22-1.92,.72-2.75,.5-.82,1.26-1.49,2.25-2.01,1-.51,1.98-.74,2.94-.67,.96,.07,1.85,.41,2.65,1.01s1.47,1.44,2.01,2.49,.83,2.08,.86,3.09c.03,1-.21,1.92-.71,2.74-.5,.82-1.26,1.49-2.25,2.01-1,.51-1.98,.74-2.94,.67Zm3.88-4.45c.18-.94-.03-1.98-.62-3.13s-1.32-1.92-2.18-2.31c-.86-.39-1.79-.33-2.8,.17-1,.5-1.6,1.22-1.78,2.16-.18,.93,.03,1.98,.62,3.14,.58,1.15,1.3,1.92,2.17,2.31s1.8,.33,2.8-.18,1.59-1.23,1.77-2.16Z"/><path class="cls-1" d="M64.83,13.46l-2.96-3.34-2.63,.74,1.09,3.86-1.83,.52-3.13-11.09,4.56-1.29c.33-.09,.62-.15,.89-.18,.97-.12,1.78,.07,2.43,.57,.65,.5,1.11,1.22,1.38,2.18,.22,.77,.25,1.49,.1,2.15-.15,.66-.5,1.22-1.04,1.66l3.22,3.63-2.08,.59Zm-6.08-4.33l2.64-.75c.28-.08,.5-.17,.67-.27,.39-.22,.63-.53,.73-.93,.1-.4,.09-.8-.03-1.21-.12-.41-.32-.76-.61-1.04-.29-.28-.66-.42-1.1-.4-.2,0-.43,.04-.71,.12l-2.65,.75,1.06,3.74Z"/><path class="cls-1" d="M70.21,.69l7.36-.69,.17,1.8-5.46,.51,.27,2.84,4.51-.42,.17,1.78-4.51,.42,.31,3.25,5.46-.51,.17,1.8-7.36,.69-1.08-11.47Z"/><path class="cls-1" d="M84.27,10.77c-.81-.73-1.25-1.65-1.34-2.79l2.02-.14c.1,.68,.4,1.24,.88,1.66s1.08,.66,1.79,.72c.64,.05,1.21-.05,1.7-.31,.49-.26,.76-.64,.8-1.14,.03-.33-.05-.61-.24-.84-.19-.23-.49-.43-.91-.61l-2.87-1.11c-.7-.27-1.28-.65-1.73-1.12-.45-.47-.64-1.15-.57-2.05,.06-.71,.29-1.31,.7-1.79,.41-.48,.94-.82,1.59-1.02,.65-.2,1.38-.26,2.17-.19,1.17,.11,2.12,.49,2.85,1.14,.73,.65,1.19,1.52,1.36,2.6l-2.09,.18c-.08-.62-.34-1.11-.78-1.49-.45-.37-.99-.59-1.62-.64-.56-.05-1.05,.05-1.47,.29s-.65,.57-.69,.99c-.03,.38,.09,.69,.38,.92,.28,.23,.67,.43,1.15,.61l2,.73c.55,.21,1.02,.43,1.41,.66,.39,.23,.74,.57,1.03,1.03s.41,1.03,.35,1.73c-.06,.77-.33,1.4-.78,1.91-.46,.51-1.04,.87-1.73,1.08-.7,.21-1.45,.29-2.25,.22-1.26-.11-2.29-.52-3.09-1.25Z"/><path class="cls-1" d="M101.36,4.36l-3.57-.98,.48-1.74,8.99,2.47-.48,1.74-3.57-.98-2.57,9.37-1.85-.51,2.57-9.37Z"/><path class="cls-1" d="M131.34,32.69l1.14-2.36-3.28-3.1-2.28,1.28-1.43-1.36,10.54-5.88,2.04,1.93-5.31,10.84-1.43-1.36Zm-.48-6.38l2.44,2.32,2.46-5.07-4.91,2.75Z"/><path class="cls-1" d="M144.8,30.47l1.12,1.58-3.53,9.03,6.61-4.7,1.12,1.58-9.39,6.68-1.12-1.58,3.55-9.04-6.62,4.71-1.12-1.58,9.39-6.68Z"/><path class="cls-1" d="M155.14,47.49c.24,.53,.41,.97,.51,1.3,.27,.86,.29,1.68,.06,2.47-.22,.79-.64,1.5-1.26,2.14-.62,.63-1.38,1.15-2.28,1.56-.91,.41-1.8,.62-2.68,.66-.88,.04-1.69-.13-2.43-.49s-1.34-.92-1.81-1.69c-.18-.3-.39-.72-.63-1.25l-1.49-3.32,10.52-4.7,1.49,3.32Zm-8.26,5.09c.45,.64,1.08,.98,1.9,1.05,.82,.06,1.67-.1,2.57-.5,.91-.41,1.6-.93,2.1-1.58,.49-.65,.65-1.35,.48-2.11-.05-.25-.2-.65-.45-1.19l-.69-1.54-7.19,3.21,.69,1.54c.24,.54,.44,.92,.59,1.13Z"/><path class="cls-1" d="M160.64,86.61l.27-3.69,1.8,.13-.67,9.3-1.8-.13,.27-3.69-9.69-.7,.14-1.92,9.69,.7Z"/><path class="cls-1" d="M161.03,98.38l-.49,1.84-4.69-1.24-1.39,5.24,4.69,1.24-.49,1.86-11.13-2.96,.49-1.86,4.7,1.25,1.39-5.24-4.7-1.25,.49-1.84,11.13,2.96Z"/><path class="cls-1" d="M156.14,113.89l-3.18,6.67-1.63-.78,2.36-4.95-2.57-1.23-1.95,4.09-1.62-.77,1.95-4.09-2.95-1.41-2.36,4.95-1.63-.78,3.18-6.67,10.4,4.96Z"/><path class="cls-1" d="M132.82,145.05l-5.9,4.44-1.09-1.44,4.38-3.3-1.71-2.28-3.62,2.72-1.08-1.43,3.62-2.72-1.96-2.61-4.38,3.3-1.09-1.44,5.9-4.44,6.93,9.2Z"/><path class="cls-1" d="M121.23,153.09l-1.74,.86-8.35-4.92,3.59,7.27-1.74,.86-5.1-10.33,1.74-.86,8.36,4.94-3.6-7.29,1.74-.86,5.1,10.33Z"/><path class="cls-1" d="M101.59,149.52c.93,.28,1.71,.8,2.37,1.57,.65,.77,1.13,1.72,1.42,2.87,.3,1.15,.34,2.21,.15,3.2-.2,.99-.64,1.83-1.31,2.52s-1.56,1.18-2.64,1.46c-1.25,.32-2.39,.28-3.41-.13-1.02-.41-1.85-1.13-2.48-2.15l1.73-.99c.4,.68,.92,1.15,1.55,1.42,.63,.27,1.35,.3,2.16,.09,1.09-.28,1.82-.86,2.21-1.73s.42-1.93,.1-3.18c-.31-1.25-.85-2.17-1.62-2.74-.77-.57-1.69-.72-2.78-.44-.81,.21-1.42,.58-1.84,1.12s-.64,1.21-.66,2.01l-2-.05c.06-1.21,.44-2.23,1.13-3.08,.69-.85,1.67-1.44,2.92-1.76,1.09-.28,2.09-.28,3.02,0Z"/><path class="cls-1" d="M87.46,152.24c.85,.46,1.51,1.14,1.99,2.02,.48,.89,.75,1.92,.8,3.1s-.12,2.24-.52,3.16c-.4,.92-1,1.66-1.8,2.2s-1.76,.83-2.89,.88c-1.12,.05-2.11-.16-2.96-.62-.85-.46-1.51-1.14-1.98-2.02s-.74-1.92-.79-3.1c-.05-1.18,.12-2.24,.51-3.16,.39-.93,.99-1.66,1.79-2.2s1.77-.83,2.89-.88c1.12-.05,2.11,.16,2.95,.62Zm-5.38,2.43c-.55,.78-.8,1.81-.74,3.1,.06,1.29,.4,2.29,1.02,3,.62,.71,1.49,1.05,2.61,1.01,1.12-.04,1.96-.45,2.51-1.22s.8-1.81,.74-3.11c-.05-1.29-.38-2.29-1.01-3.01s-1.5-1.05-2.62-1.01-1.96,.45-2.51,1.23Z"/><path class="cls-1" d="M72.6,151.74c.63,.48,1.08,1.09,1.36,1.82s.34,1.55,.19,2.45l-1.15,7.12-1.92-.29,1.14-7.09c.09-.56,.05-1.06-.13-1.51s-.45-.82-.81-1.1-.79-.47-1.26-.54c-.47-.08-.92-.03-1.36,.13-.44,.16-.81,.43-1.12,.8s-.5,.83-.59,1.38l-1.14,7.09-1.91-.31,1.15-7.14c.14-.9,.46-1.65,.95-2.26,.49-.61,1.11-1.05,1.86-1.31,.75-.26,1.57-.32,2.46-.17,.89,.14,1.65,.45,2.28,.93Z"/><path class="cls-1" d="M56.97,159.83l-1.81-.69-2.08-9.47-2.88,7.58-1.81-.69,4.09-10.77,1.81,.69,2.08,9.48,2.89-7.6,1.81,.69-4.09,10.77Z"/><path class="cls-1" d="M40.68,150.38l3.15,1.95-.95,1.54-7.94-4.9,.95-1.54,3.15,1.95,5.1-8.26,1.64,1.01-5.1,8.26Z"/><path class="cls-1" d="M30.21,145.31l-5.52-4.91,1.2-1.35,4.09,3.64,1.89-2.13-3.38-3.01,1.19-1.34,3.38,3.01,2.17-2.44-4.1-3.64,1.2-1.35,5.52,4.91-7.66,8.61Z"/><path class="cls-1" d="M25.12,123.29l-1.96,4,1.69,2.15,3.16-2.48,1.18,1.5-9.06,7.11-2.92-3.72c-.21-.27-.38-.52-.51-.75-.48-.85-.61-1.67-.4-2.46,.21-.79,.71-1.49,1.49-2.11,.63-.49,1.28-.8,1.95-.91,.67-.11,1.31,0,1.92,.33l2.13-4.36,1.33,1.7Zm-1.7,7.27l-1.7-2.16c-.18-.23-.34-.4-.5-.51-.35-.28-.73-.38-1.14-.32s-.78,.23-1.11,.49c-.34,.26-.58,.58-.73,.96-.15,.38-.14,.77,.05,1.17,.08,.18,.2,.39,.38,.61l1.7,2.16,3.06-2.4Z"/><path class="cls-1" d="M20.29,117.25c-.18,1.07-.73,1.94-1.64,2.62l-1.19-1.64c.52-.45,.83-.99,.93-1.63,.1-.63-.02-1.27-.35-1.9-.3-.57-.69-1-1.17-1.27-.48-.28-.94-.3-1.39-.07-.29,.15-.49,.37-.58,.65-.09,.28-.1,.65-.03,1.1l.59,3.02c.14,.74,.14,1.42-.02,2.06-.16,.64-.63,1.16-1.43,1.57-.63,.33-1.26,.45-1.89,.36-.62-.09-1.19-.36-1.71-.8-.52-.45-.96-1.02-1.31-1.73-.53-1.05-.72-2.05-.56-3.02,.16-.97,.65-1.81,1.48-2.54l1.26,1.67c-.48,.39-.76,.88-.84,1.46-.08,.58,.03,1.15,.32,1.71,.26,.5,.6,.86,1.03,1.1,.43,.23,.83,.25,1.21,.05,.34-.18,.53-.45,.57-.81,.04-.36,0-.79-.1-1.3l-.45-2.08c-.12-.57-.18-1.09-.2-1.54-.01-.46,.09-.93,.32-1.42,.23-.49,.65-.89,1.28-1.22,.68-.35,1.36-.47,2.03-.36,.67,.12,1.29,.41,1.84,.89,.55,.48,1.02,1.07,1.39,1.79,.58,1.12,.78,2.21,.59,3.28Z"/></g></g></svg>