<svg xmlns="http://www.w3.org/2000/svg" viewBox="0 0 166.93 167.88"><defs><style>.cls-1{font-size:16px;fill:#f05;font-family:Manrope-Bold, Manrope;font-weight:700;}</style></defs><g id="Layer_2" data-name="Layer 2"><g id="Livello_1" data-name="Livello 1"><text class="cls-1" transform="matrix(0.06, -0.99, 1, 0.07, 13.6, 84.09)">T</text><text class="cls-1" transform="translate(14.56 71.81) rotate(-75.54) scale(0.99 1)">H</text><text class="cls-1" transform="matrix(0.42, -0.9, 0.91, 0.42, 18.43, 58.21)">E</text><text class="cls-1" transform="translate(23.91 47.41) rotate(-57.48) scale(0.99 1)"> </text><text class="cls-1" transform="matrix(0.79, -0.61, 0.61, 0.79, 37.72, 30.82)">F</text><text class="cls-1" transform="matrix(0.88, -0.45, 0.46, 0.89, 46.49, 24.13)">O</text><text class="cls-1" transform="translate(59.54 17.78) rotate(-15.78) scale(0.99 1)">R</text><text class="cls-1" transform="translate(72.29 14.49) rotate(-5.36) scale(0.99 1)">E</text><text class="cls-1" transform="translate(84.16 13.56) rotate(4.81) scale(0.99 1)">S</text><text class="cls-1" transform="translate(97.18 14.94) rotate(15.33) scale(0.99 1)">T</text><text class="cls-1" transform="matrix(0.92, 0.38, -0.38, 0.92, 108.65, 18.45)"> </text><text class="cls-1" transform="matrix(0.72, 0.68, -0.69, 0.73, 127.38, 29.16)">A</text><text class="cls-1" transform="translate(136.88 38.47) rotate(54.58) scale(0.99 1)">N</text><text class="cls-1" transform="translate(144.8 50.08) rotate(65.91) scale(0.99 1)">D</text><text class="cls-1" transform="translate(150.03 62.95) rotate(74.03) scale(0.99 1)"> </text><text class="cls-1" transform="translate(153.34 84.3) rotate(94.12) scale(0.99 1)">T</text><text class="cls-1" transform="translate(152.29 96.58) rotate(104.86) scale(0.99 1)">H</text><text class="cls-1" transform="translate(148.33 110.15) rotate(115.53) scale(0.99 1)">E</text><text class="cls-1" transform="matrix(-0.54, 0.83, -0.84, -0.54, 142.78, 120.9)"> </text><text class="cls-1" transform="translate(128.87 137.43) rotate(143.04) scale(0.99 1)">E</text><text class="cls-1" transform="translate(119.23 144.5) rotate(153.72) scale(0.99 1)">N</text><text class="cls-1" transform="matrix(-0.96, 0.25, -0.25, -0.97, 106.51, 150.49)">C</text><text class="cls-1" transform="matrix(-0.99, 0.04, -0.04, -1, 92.55, 153.82)">O</text><text class="cls-1" transform="translate(78.04 154.18) rotate(-170.87) scale(0.99 1)">U</text><text class="cls-1" transform="translate(64.21 151.69) rotate(-159.2) scale(0.99 1)">N</text><text class="cls-1" transform="translate(51.18 146.38) rotate(-148.3) scale(0.99 1)">T</text><text class="cls-1" transform="matrix(-0.74, -0.66, 0.66, -0.75, 40.81, 139.68)">E</text><text class="cls-1" transform="translate(31.98 131.57) rotate(-128.12) scale(0.99 1)">R</text><text class="cls-1" transform="translate(24.06 121.06) rotate(-117.43) scale(0.99 1)">S</text></g></g></svg>